G04 #@! TF.GenerationSoftware,KiCad,Pcbnew,6.0.2-378541a8eb~116~ubuntu20.04.1*
G04 #@! TF.CreationDate,2022-04-19T13:42:03-07:00*
G04 #@! TF.ProjectId,vfo-control-mcu,76666f2d-636f-46e7-9472-6f6c2d6d6375,rev?*
G04 #@! TF.SameCoordinates,Original*
G04 #@! TF.FileFunction,Legend,Bot*
G04 #@! TF.FilePolarity,Positive*
%FSLAX46Y46*%
G04 Gerber Fmt 4.6, Leading zero omitted, Abs format (unit mm)*
G04 Created by KiCad (PCBNEW 6.0.2-378541a8eb~116~ubuntu20.04.1) date 2022-04-19 13:42:03*
%MOMM*%
%LPD*%
G01*
G04 APERTURE LIST*
G04 Aperture macros list*
%AMRoundRect*
0 Rectangle with rounded corners*
0 $1 Rounding radius*
0 $2 $3 $4 $5 $6 $7 $8 $9 X,Y pos of 4 corners*
0 Add a 4 corners polygon primitive as box body*
4,1,4,$2,$3,$4,$5,$6,$7,$8,$9,$2,$3,0*
0 Add four circle primitives for the rounded corners*
1,1,$1+$1,$2,$3*
1,1,$1+$1,$4,$5*
1,1,$1+$1,$6,$7*
1,1,$1+$1,$8,$9*
0 Add four rect primitives between the rounded corners*
20,1,$1+$1,$2,$3,$4,$5,0*
20,1,$1+$1,$4,$5,$6,$7,0*
20,1,$1+$1,$6,$7,$8,$9,0*
20,1,$1+$1,$8,$9,$2,$3,0*%
G04 Aperture macros list end*
%ADD10C,0.150000*%
%ADD11C,0.152400*%
%ADD12C,0.120000*%
%ADD13R,2.100000X1.400000*%
%ADD14O,2.100000X1.400000*%
%ADD15R,1.400000X2.100000*%
%ADD16O,1.400000X2.100000*%
%ADD17C,6.400000*%
%ADD18C,0.800000*%
%ADD19R,1.600000X1.600000*%
%ADD20C,1.600000*%
%ADD21R,2.300000X1.500000*%
%ADD22O,2.300000X1.500000*%
%ADD23R,4.200000X1.350000*%
%ADD24RoundRect,0.249999X0.325001X0.450001X-0.325001X0.450001X-0.325001X-0.450001X0.325001X-0.450001X0*%
%ADD25RoundRect,0.249999X-0.325001X-0.450001X0.325001X-0.450001X0.325001X0.450001X-0.325001X0.450001X0*%
%ADD26RoundRect,0.249999X0.450001X-0.325001X0.450001X0.325001X-0.450001X0.325001X-0.450001X-0.325001X0*%
%ADD27RoundRect,0.243750X0.456250X-0.243750X0.456250X0.243750X-0.456250X0.243750X-0.456250X-0.243750X0*%
%ADD28RoundRect,0.243750X-0.456250X0.243750X-0.456250X-0.243750X0.456250X-0.243750X0.456250X0.243750X0*%
%ADD29RoundRect,0.150000X-0.587500X-0.150000X0.587500X-0.150000X0.587500X0.150000X-0.587500X0.150000X0*%
%ADD30RoundRect,0.150000X-0.150000X0.587500X-0.150000X-0.587500X0.150000X-0.587500X0.150000X0.587500X0*%
%ADD31RoundRect,0.249999X1.425001X-0.450001X1.425001X0.450001X-1.425001X0.450001X-1.425001X-0.450001X0*%
%ADD32RoundRect,0.249999X-0.450001X0.325001X-0.450001X-0.325001X0.450001X-0.325001X0.450001X0.325001X0*%
%ADD33R,0.650000X1.060000*%
%ADD34C,2.700000*%
%ADD35RoundRect,0.250000X0.475000X-0.337500X0.475000X0.337500X-0.475000X0.337500X-0.475000X-0.337500X0*%
%ADD36RoundRect,0.250000X0.350000X0.450000X-0.350000X0.450000X-0.350000X-0.450000X0.350000X-0.450000X0*%
%ADD37RoundRect,0.249999X-0.450001X-1.425001X0.450001X-1.425001X0.450001X1.425001X-0.450001X1.425001X0*%
%ADD38RoundRect,0.050000X0.725000X-0.150000X0.725000X0.150000X-0.725000X0.150000X-0.725000X-0.150000X0*%
%ADD39RoundRect,0.237500X-0.300000X-0.237500X0.300000X-0.237500X0.300000X0.237500X-0.300000X0.237500X0*%
%ADD40RoundRect,0.250000X-0.337500X-0.475000X0.337500X-0.475000X0.337500X0.475000X-0.337500X0.475000X0*%
%ADD41RoundRect,0.237500X-0.237500X0.300000X-0.237500X-0.300000X0.237500X-0.300000X0.237500X0.300000X0*%
%ADD42RoundRect,0.250000X-0.350000X-0.450000X0.350000X-0.450000X0.350000X0.450000X-0.350000X0.450000X0*%
%ADD43R,2.500000X1.700000*%
%ADD44RoundRect,0.250000X-0.450000X0.350000X-0.450000X-0.350000X0.450000X-0.350000X0.450000X0.350000X0*%
G04 APERTURE END LIST*
D10*
X173376190Y-121052380D02*
X173947619Y-121052380D01*
X173661904Y-121052380D02*
X173661904Y-120052380D01*
X173757142Y-120195238D01*
X173852380Y-120290476D01*
X173947619Y-120338095D01*
X172995238Y-120147619D02*
X172947619Y-120100000D01*
X172852380Y-120052380D01*
X172614285Y-120052380D01*
X172519047Y-120100000D01*
X172471428Y-120147619D01*
X172423809Y-120242857D01*
X172423809Y-120338095D01*
X172471428Y-120480952D01*
X173042857Y-121052380D01*
X172423809Y-121052380D01*
X171852380Y-120480952D02*
X171947619Y-120433333D01*
X171995238Y-120385714D01*
X172042857Y-120290476D01*
X172042857Y-120242857D01*
X171995238Y-120147619D01*
X171947619Y-120100000D01*
X171852380Y-120052380D01*
X171661904Y-120052380D01*
X171566666Y-120100000D01*
X171519047Y-120147619D01*
X171471428Y-120242857D01*
X171471428Y-120290476D01*
X171519047Y-120385714D01*
X171566666Y-120433333D01*
X171661904Y-120480952D01*
X171852380Y-120480952D01*
X171947619Y-120528571D01*
X171995238Y-120576190D01*
X172042857Y-120671428D01*
X172042857Y-120861904D01*
X171995238Y-120957142D01*
X171947619Y-121004761D01*
X171852380Y-121052380D01*
X171661904Y-121052380D01*
X171566666Y-121004761D01*
X171519047Y-120957142D01*
X171471428Y-120861904D01*
X171471428Y-120671428D01*
X171519047Y-120576190D01*
X171566666Y-120528571D01*
X171661904Y-120480952D01*
X170614285Y-120052380D02*
X170804761Y-120052380D01*
X170900000Y-120100000D01*
X170947619Y-120147619D01*
X171042857Y-120290476D01*
X171090476Y-120480952D01*
X171090476Y-120861904D01*
X171042857Y-120957142D01*
X170995238Y-121004761D01*
X170900000Y-121052380D01*
X170709523Y-121052380D01*
X170614285Y-121004761D01*
X170566666Y-120957142D01*
X170519047Y-120861904D01*
X170519047Y-120623809D01*
X170566666Y-120528571D01*
X170614285Y-120480952D01*
X170709523Y-120433333D01*
X170900000Y-120433333D01*
X170995238Y-120480952D01*
X171042857Y-120528571D01*
X171090476Y-120623809D01*
X169661904Y-120385714D02*
X169661904Y-121052380D01*
X169900000Y-120004761D02*
X170138095Y-120719047D01*
X169519047Y-120719047D01*
X168376190Y-121052380D02*
X168376190Y-120052380D01*
X168138095Y-120052380D01*
X167995238Y-120100000D01*
X167900000Y-120195238D01*
X167852380Y-120290476D01*
X167804761Y-120480952D01*
X167804761Y-120623809D01*
X167852380Y-120814285D01*
X167900000Y-120909523D01*
X167995238Y-121004761D01*
X168138095Y-121052380D01*
X168376190Y-121052380D01*
X167376190Y-121052380D02*
X167376190Y-120052380D01*
X166947619Y-121004761D02*
X166804761Y-121052380D01*
X166566666Y-121052380D01*
X166471428Y-121004761D01*
X166423809Y-120957142D01*
X166376190Y-120861904D01*
X166376190Y-120766666D01*
X166423809Y-120671428D01*
X166471428Y-120623809D01*
X166566666Y-120576190D01*
X166757142Y-120528571D01*
X166852380Y-120480952D01*
X166900000Y-120433333D01*
X166947619Y-120338095D01*
X166947619Y-120242857D01*
X166900000Y-120147619D01*
X166852380Y-120100000D01*
X166757142Y-120052380D01*
X166519047Y-120052380D01*
X166376190Y-120100000D01*
X165947619Y-121052380D02*
X165947619Y-120052380D01*
X165566666Y-120052380D01*
X165471428Y-120100000D01*
X165423809Y-120147619D01*
X165376190Y-120242857D01*
X165376190Y-120385714D01*
X165423809Y-120480952D01*
X165471428Y-120528571D01*
X165566666Y-120576190D01*
X165947619Y-120576190D01*
X164471428Y-121052380D02*
X164947619Y-121052380D01*
X164947619Y-120052380D01*
X164185714Y-120766666D02*
X163709523Y-120766666D01*
X164280952Y-121052380D02*
X163947619Y-120052380D01*
X163614285Y-121052380D01*
X163090476Y-120576190D02*
X163090476Y-121052380D01*
X163423809Y-120052380D02*
X163090476Y-120576190D01*
X162757142Y-120052380D01*
X130119047Y-64357142D02*
X130166666Y-64404761D01*
X130309523Y-64452380D01*
X130404761Y-64452380D01*
X130547619Y-64404761D01*
X130642857Y-64309523D01*
X130690476Y-64214285D01*
X130738095Y-64023809D01*
X130738095Y-63880952D01*
X130690476Y-63690476D01*
X130642857Y-63595238D01*
X130547619Y-63500000D01*
X130404761Y-63452380D01*
X130309523Y-63452380D01*
X130166666Y-63500000D01*
X130119047Y-63547619D01*
X129738095Y-63547619D02*
X129690476Y-63500000D01*
X129595238Y-63452380D01*
X129357142Y-63452380D01*
X129261904Y-63500000D01*
X129214285Y-63547619D01*
X129166666Y-63642857D01*
X129166666Y-63738095D01*
X129214285Y-63880952D01*
X129785714Y-64452380D01*
X129166666Y-64452380D01*
X128547619Y-63452380D02*
X128452380Y-63452380D01*
X128357142Y-63500000D01*
X128309523Y-63547619D01*
X128261904Y-63642857D01*
X128214285Y-63833333D01*
X128214285Y-64071428D01*
X128261904Y-64261904D01*
X128309523Y-64357142D01*
X128357142Y-64404761D01*
X128452380Y-64452380D01*
X128547619Y-64452380D01*
X128642857Y-64404761D01*
X128690476Y-64357142D01*
X128738095Y-64261904D01*
X128785714Y-64071428D01*
X128785714Y-63833333D01*
X128738095Y-63642857D01*
X128690476Y-63547619D01*
X128642857Y-63500000D01*
X128547619Y-63452380D01*
X127833333Y-63547619D02*
X127785714Y-63500000D01*
X127690476Y-63452380D01*
X127452380Y-63452380D01*
X127357142Y-63500000D01*
X127309523Y-63547619D01*
X127261904Y-63642857D01*
X127261904Y-63738095D01*
X127309523Y-63880952D01*
X127880952Y-64452380D01*
X127261904Y-64452380D01*
X172119047Y-95357142D02*
X172166666Y-95404761D01*
X172309523Y-95452380D01*
X172404761Y-95452380D01*
X172547619Y-95404761D01*
X172642857Y-95309523D01*
X172690476Y-95214285D01*
X172738095Y-95023809D01*
X172738095Y-94880952D01*
X172690476Y-94690476D01*
X172642857Y-94595238D01*
X172547619Y-94500000D01*
X172404761Y-94452380D01*
X172309523Y-94452380D01*
X172166666Y-94500000D01*
X172119047Y-94547619D01*
X171214285Y-94452380D02*
X171690476Y-94452380D01*
X171738095Y-94928571D01*
X171690476Y-94880952D01*
X171595238Y-94833333D01*
X171357142Y-94833333D01*
X171261904Y-94880952D01*
X171214285Y-94928571D01*
X171166666Y-95023809D01*
X171166666Y-95261904D01*
X171214285Y-95357142D01*
X171261904Y-95404761D01*
X171357142Y-95452380D01*
X171595238Y-95452380D01*
X171690476Y-95404761D01*
X171738095Y-95357142D01*
X170547619Y-94452380D02*
X170452380Y-94452380D01*
X170357142Y-94500000D01*
X170309523Y-94547619D01*
X170261904Y-94642857D01*
X170214285Y-94833333D01*
X170214285Y-95071428D01*
X170261904Y-95261904D01*
X170309523Y-95357142D01*
X170357142Y-95404761D01*
X170452380Y-95452380D01*
X170547619Y-95452380D01*
X170642857Y-95404761D01*
X170690476Y-95357142D01*
X170738095Y-95261904D01*
X170785714Y-95071428D01*
X170785714Y-94833333D01*
X170738095Y-94642857D01*
X170690476Y-94547619D01*
X170642857Y-94500000D01*
X170547619Y-94452380D01*
X169833333Y-94547619D02*
X169785714Y-94500000D01*
X169690476Y-94452380D01*
X169452380Y-94452380D01*
X169357142Y-94500000D01*
X169309523Y-94547619D01*
X169261904Y-94642857D01*
X169261904Y-94738095D01*
X169309523Y-94880952D01*
X169880952Y-95452380D01*
X169261904Y-95452380D01*
X166919047Y-95357142D02*
X166966666Y-95404761D01*
X167109523Y-95452380D01*
X167204761Y-95452380D01*
X167347619Y-95404761D01*
X167442857Y-95309523D01*
X167490476Y-95214285D01*
X167538095Y-95023809D01*
X167538095Y-94880952D01*
X167490476Y-94690476D01*
X167442857Y-94595238D01*
X167347619Y-94500000D01*
X167204761Y-94452380D01*
X167109523Y-94452380D01*
X166966666Y-94500000D01*
X166919047Y-94547619D01*
X166014285Y-94452380D02*
X166490476Y-94452380D01*
X166538095Y-94928571D01*
X166490476Y-94880952D01*
X166395238Y-94833333D01*
X166157142Y-94833333D01*
X166061904Y-94880952D01*
X166014285Y-94928571D01*
X165966666Y-95023809D01*
X165966666Y-95261904D01*
X166014285Y-95357142D01*
X166061904Y-95404761D01*
X166157142Y-95452380D01*
X166395238Y-95452380D01*
X166490476Y-95404761D01*
X166538095Y-95357142D01*
X165347619Y-94452380D02*
X165252380Y-94452380D01*
X165157142Y-94500000D01*
X165109523Y-94547619D01*
X165061904Y-94642857D01*
X165014285Y-94833333D01*
X165014285Y-95071428D01*
X165061904Y-95261904D01*
X165109523Y-95357142D01*
X165157142Y-95404761D01*
X165252380Y-95452380D01*
X165347619Y-95452380D01*
X165442857Y-95404761D01*
X165490476Y-95357142D01*
X165538095Y-95261904D01*
X165585714Y-95071428D01*
X165585714Y-94833333D01*
X165538095Y-94642857D01*
X165490476Y-94547619D01*
X165442857Y-94500000D01*
X165347619Y-94452380D01*
X164680952Y-94452380D02*
X164061904Y-94452380D01*
X164395238Y-94833333D01*
X164252380Y-94833333D01*
X164157142Y-94880952D01*
X164109523Y-94928571D01*
X164061904Y-95023809D01*
X164061904Y-95261904D01*
X164109523Y-95357142D01*
X164157142Y-95404761D01*
X164252380Y-95452380D01*
X164538095Y-95452380D01*
X164633333Y-95404761D01*
X164680952Y-95357142D01*
X175157142Y-73480952D02*
X175204761Y-73433333D01*
X175252380Y-73290476D01*
X175252380Y-73195238D01*
X175204761Y-73052380D01*
X175109523Y-72957142D01*
X175014285Y-72909523D01*
X174823809Y-72861904D01*
X174680952Y-72861904D01*
X174490476Y-72909523D01*
X174395238Y-72957142D01*
X174300000Y-73052380D01*
X174252380Y-73195238D01*
X174252380Y-73290476D01*
X174300000Y-73433333D01*
X174347619Y-73480952D01*
X174252380Y-74385714D02*
X174252380Y-73909523D01*
X174728571Y-73861904D01*
X174680952Y-73909523D01*
X174633333Y-74004761D01*
X174633333Y-74242857D01*
X174680952Y-74338095D01*
X174728571Y-74385714D01*
X174823809Y-74433333D01*
X175061904Y-74433333D01*
X175157142Y-74385714D01*
X175204761Y-74338095D01*
X175252380Y-74242857D01*
X175252380Y-74004761D01*
X175204761Y-73909523D01*
X175157142Y-73861904D01*
X174252380Y-75052380D02*
X174252380Y-75147619D01*
X174300000Y-75242857D01*
X174347619Y-75290476D01*
X174442857Y-75338095D01*
X174633333Y-75385714D01*
X174871428Y-75385714D01*
X175061904Y-75338095D01*
X175157142Y-75290476D01*
X175204761Y-75242857D01*
X175252380Y-75147619D01*
X175252380Y-75052380D01*
X175204761Y-74957142D01*
X175157142Y-74909523D01*
X175061904Y-74861904D01*
X174871428Y-74814285D01*
X174633333Y-74814285D01*
X174442857Y-74861904D01*
X174347619Y-74909523D01*
X174300000Y-74957142D01*
X174252380Y-75052380D01*
X174585714Y-76242857D02*
X175252380Y-76242857D01*
X174204761Y-76004761D02*
X174919047Y-75766666D01*
X174919047Y-76385714D01*
X127728571Y-65157142D02*
X127728571Y-65490476D01*
X128252380Y-65633333D02*
X128252380Y-65157142D01*
X127252380Y-65157142D01*
X127252380Y-65633333D01*
X127347619Y-66014285D02*
X127300000Y-66061904D01*
X127252380Y-66157142D01*
X127252380Y-66395238D01*
X127300000Y-66490476D01*
X127347619Y-66538095D01*
X127442857Y-66585714D01*
X127538095Y-66585714D01*
X127680952Y-66538095D01*
X128252380Y-65966666D01*
X128252380Y-66585714D01*
X127252380Y-67204761D02*
X127252380Y-67300000D01*
X127300000Y-67395238D01*
X127347619Y-67442857D01*
X127442857Y-67490476D01*
X127633333Y-67538095D01*
X127871428Y-67538095D01*
X128061904Y-67490476D01*
X128157142Y-67442857D01*
X128204761Y-67395238D01*
X128252380Y-67300000D01*
X128252380Y-67204761D01*
X128204761Y-67109523D01*
X128157142Y-67061904D01*
X128061904Y-67014285D01*
X127871428Y-66966666D01*
X127633333Y-66966666D01*
X127442857Y-67014285D01*
X127347619Y-67061904D01*
X127300000Y-67109523D01*
X127252380Y-67204761D01*
X128252380Y-68490476D02*
X128252380Y-67919047D01*
X128252380Y-68204761D02*
X127252380Y-68204761D01*
X127395238Y-68109523D01*
X127490476Y-68014285D01*
X127538095Y-67919047D01*
X119642857Y-65728571D02*
X119309523Y-65728571D01*
X119166666Y-66252380D02*
X119642857Y-66252380D01*
X119642857Y-65252380D01*
X119166666Y-65252380D01*
X118785714Y-65347619D02*
X118738095Y-65300000D01*
X118642857Y-65252380D01*
X118404761Y-65252380D01*
X118309523Y-65300000D01*
X118261904Y-65347619D01*
X118214285Y-65442857D01*
X118214285Y-65538095D01*
X118261904Y-65680952D01*
X118833333Y-66252380D01*
X118214285Y-66252380D01*
X117595238Y-65252380D02*
X117500000Y-65252380D01*
X117404761Y-65300000D01*
X117357142Y-65347619D01*
X117309523Y-65442857D01*
X117261904Y-65633333D01*
X117261904Y-65871428D01*
X117309523Y-66061904D01*
X117357142Y-66157142D01*
X117404761Y-66204761D01*
X117500000Y-66252380D01*
X117595238Y-66252380D01*
X117690476Y-66204761D01*
X117738095Y-66157142D01*
X117785714Y-66061904D01*
X117833333Y-65871428D01*
X117833333Y-65633333D01*
X117785714Y-65442857D01*
X117738095Y-65347619D01*
X117690476Y-65300000D01*
X117595238Y-65252380D01*
X116928571Y-65252380D02*
X116309523Y-65252380D01*
X116642857Y-65633333D01*
X116500000Y-65633333D01*
X116404761Y-65680952D01*
X116357142Y-65728571D01*
X116309523Y-65823809D01*
X116309523Y-66061904D01*
X116357142Y-66157142D01*
X116404761Y-66204761D01*
X116500000Y-66252380D01*
X116785714Y-66252380D01*
X116880952Y-66204761D01*
X116928571Y-66157142D01*
X90728571Y-92157142D02*
X90728571Y-92490476D01*
X91252380Y-92633333D02*
X91252380Y-92157142D01*
X90252380Y-92157142D01*
X90252380Y-92633333D01*
X90347619Y-93014285D02*
X90300000Y-93061904D01*
X90252380Y-93157142D01*
X90252380Y-93395238D01*
X90300000Y-93490476D01*
X90347619Y-93538095D01*
X90442857Y-93585714D01*
X90538095Y-93585714D01*
X90680952Y-93538095D01*
X91252380Y-92966666D01*
X91252380Y-93585714D01*
X90252380Y-94204761D02*
X90252380Y-94300000D01*
X90300000Y-94395238D01*
X90347619Y-94442857D01*
X90442857Y-94490476D01*
X90633333Y-94538095D01*
X90871428Y-94538095D01*
X91061904Y-94490476D01*
X91157142Y-94442857D01*
X91204761Y-94395238D01*
X91252380Y-94300000D01*
X91252380Y-94204761D01*
X91204761Y-94109523D01*
X91157142Y-94061904D01*
X91061904Y-94014285D01*
X90871428Y-93966666D01*
X90633333Y-93966666D01*
X90442857Y-94014285D01*
X90347619Y-94061904D01*
X90300000Y-94109523D01*
X90252380Y-94204761D01*
X90585714Y-95395238D02*
X91252380Y-95395238D01*
X90204761Y-95157142D02*
X90919047Y-94919047D01*
X90919047Y-95538095D01*
X96928571Y-92357142D02*
X96928571Y-92690476D01*
X97452380Y-92833333D02*
X97452380Y-92357142D01*
X96452380Y-92357142D01*
X96452380Y-92833333D01*
X96547619Y-93214285D02*
X96500000Y-93261904D01*
X96452380Y-93357142D01*
X96452380Y-93595238D01*
X96500000Y-93690476D01*
X96547619Y-93738095D01*
X96642857Y-93785714D01*
X96738095Y-93785714D01*
X96880952Y-93738095D01*
X97452380Y-93166666D01*
X97452380Y-93785714D01*
X96452380Y-94404761D02*
X96452380Y-94500000D01*
X96500000Y-94595238D01*
X96547619Y-94642857D01*
X96642857Y-94690476D01*
X96833333Y-94738095D01*
X97071428Y-94738095D01*
X97261904Y-94690476D01*
X97357142Y-94642857D01*
X97404761Y-94595238D01*
X97452380Y-94500000D01*
X97452380Y-94404761D01*
X97404761Y-94309523D01*
X97357142Y-94261904D01*
X97261904Y-94214285D01*
X97071428Y-94166666D01*
X96833333Y-94166666D01*
X96642857Y-94214285D01*
X96547619Y-94261904D01*
X96500000Y-94309523D01*
X96452380Y-94404761D01*
X96452380Y-95642857D02*
X96452380Y-95166666D01*
X96928571Y-95119047D01*
X96880952Y-95166666D01*
X96833333Y-95261904D01*
X96833333Y-95500000D01*
X96880952Y-95595238D01*
X96928571Y-95642857D01*
X97023809Y-95690476D01*
X97261904Y-95690476D01*
X97357142Y-95642857D01*
X97404761Y-95595238D01*
X97452380Y-95500000D01*
X97452380Y-95261904D01*
X97404761Y-95166666D01*
X97357142Y-95119047D01*
X179647619Y-116947619D02*
X179742857Y-116900000D01*
X179838095Y-116804761D01*
X179980952Y-116661904D01*
X180076190Y-116614285D01*
X180171428Y-116614285D01*
X180123809Y-116852380D02*
X180219047Y-116804761D01*
X180314285Y-116709523D01*
X180361904Y-116519047D01*
X180361904Y-116185714D01*
X180314285Y-115995238D01*
X180219047Y-115900000D01*
X180123809Y-115852380D01*
X179933333Y-115852380D01*
X179838095Y-115900000D01*
X179742857Y-115995238D01*
X179695238Y-116185714D01*
X179695238Y-116519047D01*
X179742857Y-116709523D01*
X179838095Y-116804761D01*
X179933333Y-116852380D01*
X180123809Y-116852380D01*
X179314285Y-115947619D02*
X179266666Y-115900000D01*
X179171428Y-115852380D01*
X178933333Y-115852380D01*
X178838095Y-115900000D01*
X178790476Y-115947619D01*
X178742857Y-116042857D01*
X178742857Y-116138095D01*
X178790476Y-116280952D01*
X179361904Y-116852380D01*
X178742857Y-116852380D01*
X178123809Y-115852380D02*
X178028571Y-115852380D01*
X177933333Y-115900000D01*
X177885714Y-115947619D01*
X177838095Y-116042857D01*
X177790476Y-116233333D01*
X177790476Y-116471428D01*
X177838095Y-116661904D01*
X177885714Y-116757142D01*
X177933333Y-116804761D01*
X178028571Y-116852380D01*
X178123809Y-116852380D01*
X178219047Y-116804761D01*
X178266666Y-116757142D01*
X178314285Y-116661904D01*
X178361904Y-116471428D01*
X178361904Y-116233333D01*
X178314285Y-116042857D01*
X178266666Y-115947619D01*
X178219047Y-115900000D01*
X178123809Y-115852380D01*
X176838095Y-116852380D02*
X177409523Y-116852380D01*
X177123809Y-116852380D02*
X177123809Y-115852380D01*
X177219047Y-115995238D01*
X177314285Y-116090476D01*
X177409523Y-116138095D01*
X107147619Y-68952380D02*
X107100000Y-68857142D01*
X107004761Y-68761904D01*
X106861904Y-68619047D01*
X106814285Y-68523809D01*
X106814285Y-68428571D01*
X107052380Y-68476190D02*
X107004761Y-68380952D01*
X106909523Y-68285714D01*
X106719047Y-68238095D01*
X106385714Y-68238095D01*
X106195238Y-68285714D01*
X106100000Y-68380952D01*
X106052380Y-68476190D01*
X106052380Y-68666666D01*
X106100000Y-68761904D01*
X106195238Y-68857142D01*
X106385714Y-68904761D01*
X106719047Y-68904761D01*
X106909523Y-68857142D01*
X107004761Y-68761904D01*
X107052380Y-68666666D01*
X107052380Y-68476190D01*
X106147619Y-69285714D02*
X106100000Y-69333333D01*
X106052380Y-69428571D01*
X106052380Y-69666666D01*
X106100000Y-69761904D01*
X106147619Y-69809523D01*
X106242857Y-69857142D01*
X106338095Y-69857142D01*
X106480952Y-69809523D01*
X107052380Y-69238095D01*
X107052380Y-69857142D01*
X106052380Y-70476190D02*
X106052380Y-70571428D01*
X106100000Y-70666666D01*
X106147619Y-70714285D01*
X106242857Y-70761904D01*
X106433333Y-70809523D01*
X106671428Y-70809523D01*
X106861904Y-70761904D01*
X106957142Y-70714285D01*
X107004761Y-70666666D01*
X107052380Y-70571428D01*
X107052380Y-70476190D01*
X107004761Y-70380952D01*
X106957142Y-70333333D01*
X106861904Y-70285714D01*
X106671428Y-70238095D01*
X106433333Y-70238095D01*
X106242857Y-70285714D01*
X106147619Y-70333333D01*
X106100000Y-70380952D01*
X106052380Y-70476190D01*
X106147619Y-71190476D02*
X106100000Y-71238095D01*
X106052380Y-71333333D01*
X106052380Y-71571428D01*
X106100000Y-71666666D01*
X106147619Y-71714285D01*
X106242857Y-71761904D01*
X106338095Y-71761904D01*
X106480952Y-71714285D01*
X107052380Y-71142857D01*
X107052380Y-71761904D01*
X186452380Y-110780952D02*
X185976190Y-110447619D01*
X186452380Y-110209523D02*
X185452380Y-110209523D01*
X185452380Y-110590476D01*
X185500000Y-110685714D01*
X185547619Y-110733333D01*
X185642857Y-110780952D01*
X185785714Y-110780952D01*
X185880952Y-110733333D01*
X185928571Y-110685714D01*
X185976190Y-110590476D01*
X185976190Y-110209523D01*
X185547619Y-111161904D02*
X185500000Y-111209523D01*
X185452380Y-111304761D01*
X185452380Y-111542857D01*
X185500000Y-111638095D01*
X185547619Y-111685714D01*
X185642857Y-111733333D01*
X185738095Y-111733333D01*
X185880952Y-111685714D01*
X186452380Y-111114285D01*
X186452380Y-111733333D01*
X185452380Y-112352380D02*
X185452380Y-112447619D01*
X185500000Y-112542857D01*
X185547619Y-112590476D01*
X185642857Y-112638095D01*
X185833333Y-112685714D01*
X186071428Y-112685714D01*
X186261904Y-112638095D01*
X186357142Y-112590476D01*
X186404761Y-112542857D01*
X186452380Y-112447619D01*
X186452380Y-112352380D01*
X186404761Y-112257142D01*
X186357142Y-112209523D01*
X186261904Y-112161904D01*
X186071428Y-112114285D01*
X185833333Y-112114285D01*
X185642857Y-112161904D01*
X185547619Y-112209523D01*
X185500000Y-112257142D01*
X185452380Y-112352380D01*
X186452380Y-113638095D02*
X186452380Y-113066666D01*
X186452380Y-113352380D02*
X185452380Y-113352380D01*
X185595238Y-113257142D01*
X185690476Y-113161904D01*
X185738095Y-113066666D01*
X112519047Y-66852380D02*
X112852380Y-66376190D01*
X113090476Y-66852380D02*
X113090476Y-65852380D01*
X112709523Y-65852380D01*
X112614285Y-65900000D01*
X112566666Y-65947619D01*
X112519047Y-66042857D01*
X112519047Y-66185714D01*
X112566666Y-66280952D01*
X112614285Y-66328571D01*
X112709523Y-66376190D01*
X113090476Y-66376190D01*
X111614285Y-65852380D02*
X112090476Y-65852380D01*
X112138095Y-66328571D01*
X112090476Y-66280952D01*
X111995238Y-66233333D01*
X111757142Y-66233333D01*
X111661904Y-66280952D01*
X111614285Y-66328571D01*
X111566666Y-66423809D01*
X111566666Y-66661904D01*
X111614285Y-66757142D01*
X111661904Y-66804761D01*
X111757142Y-66852380D01*
X111995238Y-66852380D01*
X112090476Y-66804761D01*
X112138095Y-66757142D01*
X110947619Y-65852380D02*
X110852380Y-65852380D01*
X110757142Y-65900000D01*
X110709523Y-65947619D01*
X110661904Y-66042857D01*
X110614285Y-66233333D01*
X110614285Y-66471428D01*
X110661904Y-66661904D01*
X110709523Y-66757142D01*
X110757142Y-66804761D01*
X110852380Y-66852380D01*
X110947619Y-66852380D01*
X111042857Y-66804761D01*
X111090476Y-66757142D01*
X111138095Y-66661904D01*
X111185714Y-66471428D01*
X111185714Y-66233333D01*
X111138095Y-66042857D01*
X111090476Y-65947619D01*
X111042857Y-65900000D01*
X110947619Y-65852380D01*
X109661904Y-66852380D02*
X110233333Y-66852380D01*
X109947619Y-66852380D02*
X109947619Y-65852380D01*
X110042857Y-65995238D01*
X110138095Y-66090476D01*
X110233333Y-66138095D01*
X173652380Y-112880952D02*
X173176190Y-112547619D01*
X173652380Y-112309523D02*
X172652380Y-112309523D01*
X172652380Y-112690476D01*
X172700000Y-112785714D01*
X172747619Y-112833333D01*
X172842857Y-112880952D01*
X172985714Y-112880952D01*
X173080952Y-112833333D01*
X173128571Y-112785714D01*
X173176190Y-112690476D01*
X173176190Y-112309523D01*
X172652380Y-113785714D02*
X172652380Y-113309523D01*
X173128571Y-113261904D01*
X173080952Y-113309523D01*
X173033333Y-113404761D01*
X173033333Y-113642857D01*
X173080952Y-113738095D01*
X173128571Y-113785714D01*
X173223809Y-113833333D01*
X173461904Y-113833333D01*
X173557142Y-113785714D01*
X173604761Y-113738095D01*
X173652380Y-113642857D01*
X173652380Y-113404761D01*
X173604761Y-113309523D01*
X173557142Y-113261904D01*
X172652380Y-114452380D02*
X172652380Y-114547619D01*
X172700000Y-114642857D01*
X172747619Y-114690476D01*
X172842857Y-114738095D01*
X173033333Y-114785714D01*
X173271428Y-114785714D01*
X173461904Y-114738095D01*
X173557142Y-114690476D01*
X173604761Y-114642857D01*
X173652380Y-114547619D01*
X173652380Y-114452380D01*
X173604761Y-114357142D01*
X173557142Y-114309523D01*
X173461904Y-114261904D01*
X173271428Y-114214285D01*
X173033333Y-114214285D01*
X172842857Y-114261904D01*
X172747619Y-114309523D01*
X172700000Y-114357142D01*
X172652380Y-114452380D01*
X172747619Y-115166666D02*
X172700000Y-115214285D01*
X172652380Y-115309523D01*
X172652380Y-115547619D01*
X172700000Y-115642857D01*
X172747619Y-115690476D01*
X172842857Y-115738095D01*
X172938095Y-115738095D01*
X173080952Y-115690476D01*
X173652380Y-115119047D01*
X173652380Y-115738095D01*
X165552380Y-67880952D02*
X165076190Y-67547619D01*
X165552380Y-67309523D02*
X164552380Y-67309523D01*
X164552380Y-67690476D01*
X164600000Y-67785714D01*
X164647619Y-67833333D01*
X164742857Y-67880952D01*
X164885714Y-67880952D01*
X164980952Y-67833333D01*
X165028571Y-67785714D01*
X165076190Y-67690476D01*
X165076190Y-67309523D01*
X164552380Y-68785714D02*
X164552380Y-68309523D01*
X165028571Y-68261904D01*
X164980952Y-68309523D01*
X164933333Y-68404761D01*
X164933333Y-68642857D01*
X164980952Y-68738095D01*
X165028571Y-68785714D01*
X165123809Y-68833333D01*
X165361904Y-68833333D01*
X165457142Y-68785714D01*
X165504761Y-68738095D01*
X165552380Y-68642857D01*
X165552380Y-68404761D01*
X165504761Y-68309523D01*
X165457142Y-68261904D01*
X164552380Y-69452380D02*
X164552380Y-69547619D01*
X164600000Y-69642857D01*
X164647619Y-69690476D01*
X164742857Y-69738095D01*
X164933333Y-69785714D01*
X165171428Y-69785714D01*
X165361904Y-69738095D01*
X165457142Y-69690476D01*
X165504761Y-69642857D01*
X165552380Y-69547619D01*
X165552380Y-69452380D01*
X165504761Y-69357142D01*
X165457142Y-69309523D01*
X165361904Y-69261904D01*
X165171428Y-69214285D01*
X164933333Y-69214285D01*
X164742857Y-69261904D01*
X164647619Y-69309523D01*
X164600000Y-69357142D01*
X164552380Y-69452380D01*
X164552380Y-70119047D02*
X164552380Y-70738095D01*
X164933333Y-70404761D01*
X164933333Y-70547619D01*
X164980952Y-70642857D01*
X165028571Y-70690476D01*
X165123809Y-70738095D01*
X165361904Y-70738095D01*
X165457142Y-70690476D01*
X165504761Y-70642857D01*
X165552380Y-70547619D01*
X165552380Y-70261904D01*
X165504761Y-70166666D01*
X165457142Y-70119047D01*
X163452380Y-69880952D02*
X162976190Y-69547619D01*
X163452380Y-69309523D02*
X162452380Y-69309523D01*
X162452380Y-69690476D01*
X162500000Y-69785714D01*
X162547619Y-69833333D01*
X162642857Y-69880952D01*
X162785714Y-69880952D01*
X162880952Y-69833333D01*
X162928571Y-69785714D01*
X162976190Y-69690476D01*
X162976190Y-69309523D01*
X162452380Y-70785714D02*
X162452380Y-70309523D01*
X162928571Y-70261904D01*
X162880952Y-70309523D01*
X162833333Y-70404761D01*
X162833333Y-70642857D01*
X162880952Y-70738095D01*
X162928571Y-70785714D01*
X163023809Y-70833333D01*
X163261904Y-70833333D01*
X163357142Y-70785714D01*
X163404761Y-70738095D01*
X163452380Y-70642857D01*
X163452380Y-70404761D01*
X163404761Y-70309523D01*
X163357142Y-70261904D01*
X162452380Y-71452380D02*
X162452380Y-71547619D01*
X162500000Y-71642857D01*
X162547619Y-71690476D01*
X162642857Y-71738095D01*
X162833333Y-71785714D01*
X163071428Y-71785714D01*
X163261904Y-71738095D01*
X163357142Y-71690476D01*
X163404761Y-71642857D01*
X163452380Y-71547619D01*
X163452380Y-71452380D01*
X163404761Y-71357142D01*
X163357142Y-71309523D01*
X163261904Y-71261904D01*
X163071428Y-71214285D01*
X162833333Y-71214285D01*
X162642857Y-71261904D01*
X162547619Y-71309523D01*
X162500000Y-71357142D01*
X162452380Y-71452380D01*
X162785714Y-72642857D02*
X163452380Y-72642857D01*
X162404761Y-72404761D02*
X163119047Y-72166666D01*
X163119047Y-72785714D01*
X160452380Y-68080952D02*
X159976190Y-67747619D01*
X160452380Y-67509523D02*
X159452380Y-67509523D01*
X159452380Y-67890476D01*
X159500000Y-67985714D01*
X159547619Y-68033333D01*
X159642857Y-68080952D01*
X159785714Y-68080952D01*
X159880952Y-68033333D01*
X159928571Y-67985714D01*
X159976190Y-67890476D01*
X159976190Y-67509523D01*
X159452380Y-68985714D02*
X159452380Y-68509523D01*
X159928571Y-68461904D01*
X159880952Y-68509523D01*
X159833333Y-68604761D01*
X159833333Y-68842857D01*
X159880952Y-68938095D01*
X159928571Y-68985714D01*
X160023809Y-69033333D01*
X160261904Y-69033333D01*
X160357142Y-68985714D01*
X160404761Y-68938095D01*
X160452380Y-68842857D01*
X160452380Y-68604761D01*
X160404761Y-68509523D01*
X160357142Y-68461904D01*
X159452380Y-69652380D02*
X159452380Y-69747619D01*
X159500000Y-69842857D01*
X159547619Y-69890476D01*
X159642857Y-69938095D01*
X159833333Y-69985714D01*
X160071428Y-69985714D01*
X160261904Y-69938095D01*
X160357142Y-69890476D01*
X160404761Y-69842857D01*
X160452380Y-69747619D01*
X160452380Y-69652380D01*
X160404761Y-69557142D01*
X160357142Y-69509523D01*
X160261904Y-69461904D01*
X160071428Y-69414285D01*
X159833333Y-69414285D01*
X159642857Y-69461904D01*
X159547619Y-69509523D01*
X159500000Y-69557142D01*
X159452380Y-69652380D01*
X159452380Y-70890476D02*
X159452380Y-70414285D01*
X159928571Y-70366666D01*
X159880952Y-70414285D01*
X159833333Y-70509523D01*
X159833333Y-70747619D01*
X159880952Y-70842857D01*
X159928571Y-70890476D01*
X160023809Y-70938095D01*
X160261904Y-70938095D01*
X160357142Y-70890476D01*
X160404761Y-70842857D01*
X160452380Y-70747619D01*
X160452380Y-70509523D01*
X160404761Y-70414285D01*
X160357142Y-70366666D01*
X158452380Y-68080952D02*
X157976190Y-67747619D01*
X158452380Y-67509523D02*
X157452380Y-67509523D01*
X157452380Y-67890476D01*
X157500000Y-67985714D01*
X157547619Y-68033333D01*
X157642857Y-68080952D01*
X157785714Y-68080952D01*
X157880952Y-68033333D01*
X157928571Y-67985714D01*
X157976190Y-67890476D01*
X157976190Y-67509523D01*
X157452380Y-68985714D02*
X157452380Y-68509523D01*
X157928571Y-68461904D01*
X157880952Y-68509523D01*
X157833333Y-68604761D01*
X157833333Y-68842857D01*
X157880952Y-68938095D01*
X157928571Y-68985714D01*
X158023809Y-69033333D01*
X158261904Y-69033333D01*
X158357142Y-68985714D01*
X158404761Y-68938095D01*
X158452380Y-68842857D01*
X158452380Y-68604761D01*
X158404761Y-68509523D01*
X158357142Y-68461904D01*
X157452380Y-69652380D02*
X157452380Y-69747619D01*
X157500000Y-69842857D01*
X157547619Y-69890476D01*
X157642857Y-69938095D01*
X157833333Y-69985714D01*
X158071428Y-69985714D01*
X158261904Y-69938095D01*
X158357142Y-69890476D01*
X158404761Y-69842857D01*
X158452380Y-69747619D01*
X158452380Y-69652380D01*
X158404761Y-69557142D01*
X158357142Y-69509523D01*
X158261904Y-69461904D01*
X158071428Y-69414285D01*
X157833333Y-69414285D01*
X157642857Y-69461904D01*
X157547619Y-69509523D01*
X157500000Y-69557142D01*
X157452380Y-69652380D01*
X157452380Y-70842857D02*
X157452380Y-70652380D01*
X157500000Y-70557142D01*
X157547619Y-70509523D01*
X157690476Y-70414285D01*
X157880952Y-70366666D01*
X158261904Y-70366666D01*
X158357142Y-70414285D01*
X158404761Y-70461904D01*
X158452380Y-70557142D01*
X158452380Y-70747619D01*
X158404761Y-70842857D01*
X158357142Y-70890476D01*
X158261904Y-70938095D01*
X158023809Y-70938095D01*
X157928571Y-70890476D01*
X157880952Y-70842857D01*
X157833333Y-70747619D01*
X157833333Y-70557142D01*
X157880952Y-70461904D01*
X157928571Y-70414285D01*
X158023809Y-70366666D01*
X169652380Y-67880952D02*
X169176190Y-67547619D01*
X169652380Y-67309523D02*
X168652380Y-67309523D01*
X168652380Y-67690476D01*
X168700000Y-67785714D01*
X168747619Y-67833333D01*
X168842857Y-67880952D01*
X168985714Y-67880952D01*
X169080952Y-67833333D01*
X169128571Y-67785714D01*
X169176190Y-67690476D01*
X169176190Y-67309523D01*
X168652380Y-68785714D02*
X168652380Y-68309523D01*
X169128571Y-68261904D01*
X169080952Y-68309523D01*
X169033333Y-68404761D01*
X169033333Y-68642857D01*
X169080952Y-68738095D01*
X169128571Y-68785714D01*
X169223809Y-68833333D01*
X169461904Y-68833333D01*
X169557142Y-68785714D01*
X169604761Y-68738095D01*
X169652380Y-68642857D01*
X169652380Y-68404761D01*
X169604761Y-68309523D01*
X169557142Y-68261904D01*
X168652380Y-69452380D02*
X168652380Y-69547619D01*
X168700000Y-69642857D01*
X168747619Y-69690476D01*
X168842857Y-69738095D01*
X169033333Y-69785714D01*
X169271428Y-69785714D01*
X169461904Y-69738095D01*
X169557142Y-69690476D01*
X169604761Y-69642857D01*
X169652380Y-69547619D01*
X169652380Y-69452380D01*
X169604761Y-69357142D01*
X169557142Y-69309523D01*
X169461904Y-69261904D01*
X169271428Y-69214285D01*
X169033333Y-69214285D01*
X168842857Y-69261904D01*
X168747619Y-69309523D01*
X168700000Y-69357142D01*
X168652380Y-69452380D01*
X169080952Y-70357142D02*
X169033333Y-70261904D01*
X168985714Y-70214285D01*
X168890476Y-70166666D01*
X168842857Y-70166666D01*
X168747619Y-70214285D01*
X168700000Y-70261904D01*
X168652380Y-70357142D01*
X168652380Y-70547619D01*
X168700000Y-70642857D01*
X168747619Y-70690476D01*
X168842857Y-70738095D01*
X168890476Y-70738095D01*
X168985714Y-70690476D01*
X169033333Y-70642857D01*
X169080952Y-70547619D01*
X169080952Y-70357142D01*
X169128571Y-70261904D01*
X169176190Y-70214285D01*
X169271428Y-70166666D01*
X169461904Y-70166666D01*
X169557142Y-70214285D01*
X169604761Y-70261904D01*
X169652380Y-70357142D01*
X169652380Y-70547619D01*
X169604761Y-70642857D01*
X169557142Y-70690476D01*
X169461904Y-70738095D01*
X169271428Y-70738095D01*
X169176190Y-70690476D01*
X169128571Y-70642857D01*
X169080952Y-70547619D01*
X173252380Y-63880952D02*
X172776190Y-63547619D01*
X173252380Y-63309523D02*
X172252380Y-63309523D01*
X172252380Y-63690476D01*
X172300000Y-63785714D01*
X172347619Y-63833333D01*
X172442857Y-63880952D01*
X172585714Y-63880952D01*
X172680952Y-63833333D01*
X172728571Y-63785714D01*
X172776190Y-63690476D01*
X172776190Y-63309523D01*
X172252380Y-64785714D02*
X172252380Y-64309523D01*
X172728571Y-64261904D01*
X172680952Y-64309523D01*
X172633333Y-64404761D01*
X172633333Y-64642857D01*
X172680952Y-64738095D01*
X172728571Y-64785714D01*
X172823809Y-64833333D01*
X173061904Y-64833333D01*
X173157142Y-64785714D01*
X173204761Y-64738095D01*
X173252380Y-64642857D01*
X173252380Y-64404761D01*
X173204761Y-64309523D01*
X173157142Y-64261904D01*
X172252380Y-65452380D02*
X172252380Y-65547619D01*
X172300000Y-65642857D01*
X172347619Y-65690476D01*
X172442857Y-65738095D01*
X172633333Y-65785714D01*
X172871428Y-65785714D01*
X173061904Y-65738095D01*
X173157142Y-65690476D01*
X173204761Y-65642857D01*
X173252380Y-65547619D01*
X173252380Y-65452380D01*
X173204761Y-65357142D01*
X173157142Y-65309523D01*
X173061904Y-65261904D01*
X172871428Y-65214285D01*
X172633333Y-65214285D01*
X172442857Y-65261904D01*
X172347619Y-65309523D01*
X172300000Y-65357142D01*
X172252380Y-65452380D01*
X173252380Y-66261904D02*
X173252380Y-66452380D01*
X173204761Y-66547619D01*
X173157142Y-66595238D01*
X173014285Y-66690476D01*
X172823809Y-66738095D01*
X172442857Y-66738095D01*
X172347619Y-66690476D01*
X172300000Y-66642857D01*
X172252380Y-66547619D01*
X172252380Y-66357142D01*
X172300000Y-66261904D01*
X172347619Y-66214285D01*
X172442857Y-66166666D01*
X172680952Y-66166666D01*
X172776190Y-66214285D01*
X172823809Y-66261904D01*
X172871428Y-66357142D01*
X172871428Y-66547619D01*
X172823809Y-66642857D01*
X172776190Y-66690476D01*
X172680952Y-66738095D01*
X120452380Y-95880952D02*
X119976190Y-95547619D01*
X120452380Y-95309523D02*
X119452380Y-95309523D01*
X119452380Y-95690476D01*
X119500000Y-95785714D01*
X119547619Y-95833333D01*
X119642857Y-95880952D01*
X119785714Y-95880952D01*
X119880952Y-95833333D01*
X119928571Y-95785714D01*
X119976190Y-95690476D01*
X119976190Y-95309523D01*
X119452380Y-96785714D02*
X119452380Y-96309523D01*
X119928571Y-96261904D01*
X119880952Y-96309523D01*
X119833333Y-96404761D01*
X119833333Y-96642857D01*
X119880952Y-96738095D01*
X119928571Y-96785714D01*
X120023809Y-96833333D01*
X120261904Y-96833333D01*
X120357142Y-96785714D01*
X120404761Y-96738095D01*
X120452380Y-96642857D01*
X120452380Y-96404761D01*
X120404761Y-96309523D01*
X120357142Y-96261904D01*
X120452380Y-97785714D02*
X120452380Y-97214285D01*
X120452380Y-97500000D02*
X119452380Y-97500000D01*
X119595238Y-97404761D01*
X119690476Y-97309523D01*
X119738095Y-97214285D01*
X120452380Y-98738095D02*
X120452380Y-98166666D01*
X120452380Y-98452380D02*
X119452380Y-98452380D01*
X119595238Y-98357142D01*
X119690476Y-98261904D01*
X119738095Y-98166666D01*
X111252380Y-95680952D02*
X110776190Y-95347619D01*
X111252380Y-95109523D02*
X110252380Y-95109523D01*
X110252380Y-95490476D01*
X110300000Y-95585714D01*
X110347619Y-95633333D01*
X110442857Y-95680952D01*
X110585714Y-95680952D01*
X110680952Y-95633333D01*
X110728571Y-95585714D01*
X110776190Y-95490476D01*
X110776190Y-95109523D01*
X110252380Y-96585714D02*
X110252380Y-96109523D01*
X110728571Y-96061904D01*
X110680952Y-96109523D01*
X110633333Y-96204761D01*
X110633333Y-96442857D01*
X110680952Y-96538095D01*
X110728571Y-96585714D01*
X110823809Y-96633333D01*
X111061904Y-96633333D01*
X111157142Y-96585714D01*
X111204761Y-96538095D01*
X111252380Y-96442857D01*
X111252380Y-96204761D01*
X111204761Y-96109523D01*
X111157142Y-96061904D01*
X111252380Y-97585714D02*
X111252380Y-97014285D01*
X111252380Y-97300000D02*
X110252380Y-97300000D01*
X110395238Y-97204761D01*
X110490476Y-97109523D01*
X110538095Y-97014285D01*
X110347619Y-97966666D02*
X110300000Y-98014285D01*
X110252380Y-98109523D01*
X110252380Y-98347619D01*
X110300000Y-98442857D01*
X110347619Y-98490476D01*
X110442857Y-98538095D01*
X110538095Y-98538095D01*
X110680952Y-98490476D01*
X111252380Y-97919047D01*
X111252380Y-98538095D01*
X128452380Y-69880952D02*
X127976190Y-69547619D01*
X128452380Y-69309523D02*
X127452380Y-69309523D01*
X127452380Y-69690476D01*
X127500000Y-69785714D01*
X127547619Y-69833333D01*
X127642857Y-69880952D01*
X127785714Y-69880952D01*
X127880952Y-69833333D01*
X127928571Y-69785714D01*
X127976190Y-69690476D01*
X127976190Y-69309523D01*
X127452380Y-70785714D02*
X127452380Y-70309523D01*
X127928571Y-70261904D01*
X127880952Y-70309523D01*
X127833333Y-70404761D01*
X127833333Y-70642857D01*
X127880952Y-70738095D01*
X127928571Y-70785714D01*
X128023809Y-70833333D01*
X128261904Y-70833333D01*
X128357142Y-70785714D01*
X128404761Y-70738095D01*
X128452380Y-70642857D01*
X128452380Y-70404761D01*
X128404761Y-70309523D01*
X128357142Y-70261904D01*
X128452380Y-71785714D02*
X128452380Y-71214285D01*
X128452380Y-71500000D02*
X127452380Y-71500000D01*
X127595238Y-71404761D01*
X127690476Y-71309523D01*
X127738095Y-71214285D01*
X127785714Y-72642857D02*
X128452380Y-72642857D01*
X127404761Y-72404761D02*
X128119047Y-72166666D01*
X128119047Y-72785714D01*
X120252380Y-68480952D02*
X119776190Y-68147619D01*
X120252380Y-67909523D02*
X119252380Y-67909523D01*
X119252380Y-68290476D01*
X119300000Y-68385714D01*
X119347619Y-68433333D01*
X119442857Y-68480952D01*
X119585714Y-68480952D01*
X119680952Y-68433333D01*
X119728571Y-68385714D01*
X119776190Y-68290476D01*
X119776190Y-67909523D01*
X119252380Y-69385714D02*
X119252380Y-68909523D01*
X119728571Y-68861904D01*
X119680952Y-68909523D01*
X119633333Y-69004761D01*
X119633333Y-69242857D01*
X119680952Y-69338095D01*
X119728571Y-69385714D01*
X119823809Y-69433333D01*
X120061904Y-69433333D01*
X120157142Y-69385714D01*
X120204761Y-69338095D01*
X120252380Y-69242857D01*
X120252380Y-69004761D01*
X120204761Y-68909523D01*
X120157142Y-68861904D01*
X120252380Y-70385714D02*
X120252380Y-69814285D01*
X120252380Y-70100000D02*
X119252380Y-70100000D01*
X119395238Y-70004761D01*
X119490476Y-69909523D01*
X119538095Y-69814285D01*
X119252380Y-71290476D02*
X119252380Y-70814285D01*
X119728571Y-70766666D01*
X119680952Y-70814285D01*
X119633333Y-70909523D01*
X119633333Y-71147619D01*
X119680952Y-71242857D01*
X119728571Y-71290476D01*
X119823809Y-71338095D01*
X120061904Y-71338095D01*
X120157142Y-71290476D01*
X120204761Y-71242857D01*
X120252380Y-71147619D01*
X120252380Y-70909523D01*
X120204761Y-70814285D01*
X120157142Y-70766666D01*
X128252380Y-112880952D02*
X127776190Y-112547619D01*
X128252380Y-112309523D02*
X127252380Y-112309523D01*
X127252380Y-112690476D01*
X127300000Y-112785714D01*
X127347619Y-112833333D01*
X127442857Y-112880952D01*
X127585714Y-112880952D01*
X127680952Y-112833333D01*
X127728571Y-112785714D01*
X127776190Y-112690476D01*
X127776190Y-112309523D01*
X127252380Y-113785714D02*
X127252380Y-113309523D01*
X127728571Y-113261904D01*
X127680952Y-113309523D01*
X127633333Y-113404761D01*
X127633333Y-113642857D01*
X127680952Y-113738095D01*
X127728571Y-113785714D01*
X127823809Y-113833333D01*
X128061904Y-113833333D01*
X128157142Y-113785714D01*
X128204761Y-113738095D01*
X128252380Y-113642857D01*
X128252380Y-113404761D01*
X128204761Y-113309523D01*
X128157142Y-113261904D01*
X128252380Y-114785714D02*
X128252380Y-114214285D01*
X128252380Y-114500000D02*
X127252380Y-114500000D01*
X127395238Y-114404761D01*
X127490476Y-114309523D01*
X127538095Y-114214285D01*
X128252380Y-115261904D02*
X128252380Y-115452380D01*
X128204761Y-115547619D01*
X128157142Y-115595238D01*
X128014285Y-115690476D01*
X127823809Y-115738095D01*
X127442857Y-115738095D01*
X127347619Y-115690476D01*
X127300000Y-115642857D01*
X127252380Y-115547619D01*
X127252380Y-115357142D01*
X127300000Y-115261904D01*
X127347619Y-115214285D01*
X127442857Y-115166666D01*
X127680952Y-115166666D01*
X127776190Y-115214285D01*
X127823809Y-115261904D01*
X127871428Y-115357142D01*
X127871428Y-115547619D01*
X127823809Y-115642857D01*
X127776190Y-115690476D01*
X127680952Y-115738095D01*
X149652380Y-64080952D02*
X149176190Y-63747619D01*
X149652380Y-63509523D02*
X148652380Y-63509523D01*
X148652380Y-63890476D01*
X148700000Y-63985714D01*
X148747619Y-64033333D01*
X148842857Y-64080952D01*
X148985714Y-64080952D01*
X149080952Y-64033333D01*
X149128571Y-63985714D01*
X149176190Y-63890476D01*
X149176190Y-63509523D01*
X148652380Y-64985714D02*
X148652380Y-64509523D01*
X149128571Y-64461904D01*
X149080952Y-64509523D01*
X149033333Y-64604761D01*
X149033333Y-64842857D01*
X149080952Y-64938095D01*
X149128571Y-64985714D01*
X149223809Y-65033333D01*
X149461904Y-65033333D01*
X149557142Y-64985714D01*
X149604761Y-64938095D01*
X149652380Y-64842857D01*
X149652380Y-64604761D01*
X149604761Y-64509523D01*
X149557142Y-64461904D01*
X148747619Y-65414285D02*
X148700000Y-65461904D01*
X148652380Y-65557142D01*
X148652380Y-65795238D01*
X148700000Y-65890476D01*
X148747619Y-65938095D01*
X148842857Y-65985714D01*
X148938095Y-65985714D01*
X149080952Y-65938095D01*
X149652380Y-65366666D01*
X149652380Y-65985714D01*
X148652380Y-66604761D02*
X148652380Y-66700000D01*
X148700000Y-66795238D01*
X148747619Y-66842857D01*
X148842857Y-66890476D01*
X149033333Y-66938095D01*
X149271428Y-66938095D01*
X149461904Y-66890476D01*
X149557142Y-66842857D01*
X149604761Y-66795238D01*
X149652380Y-66700000D01*
X149652380Y-66604761D01*
X149604761Y-66509523D01*
X149557142Y-66461904D01*
X149461904Y-66414285D01*
X149271428Y-66366666D01*
X149033333Y-66366666D01*
X148842857Y-66414285D01*
X148747619Y-66461904D01*
X148700000Y-66509523D01*
X148652380Y-66604761D01*
X142452380Y-63880952D02*
X141976190Y-63547619D01*
X142452380Y-63309523D02*
X141452380Y-63309523D01*
X141452380Y-63690476D01*
X141500000Y-63785714D01*
X141547619Y-63833333D01*
X141642857Y-63880952D01*
X141785714Y-63880952D01*
X141880952Y-63833333D01*
X141928571Y-63785714D01*
X141976190Y-63690476D01*
X141976190Y-63309523D01*
X141452380Y-64785714D02*
X141452380Y-64309523D01*
X141928571Y-64261904D01*
X141880952Y-64309523D01*
X141833333Y-64404761D01*
X141833333Y-64642857D01*
X141880952Y-64738095D01*
X141928571Y-64785714D01*
X142023809Y-64833333D01*
X142261904Y-64833333D01*
X142357142Y-64785714D01*
X142404761Y-64738095D01*
X142452380Y-64642857D01*
X142452380Y-64404761D01*
X142404761Y-64309523D01*
X142357142Y-64261904D01*
X141547619Y-65214285D02*
X141500000Y-65261904D01*
X141452380Y-65357142D01*
X141452380Y-65595238D01*
X141500000Y-65690476D01*
X141547619Y-65738095D01*
X141642857Y-65785714D01*
X141738095Y-65785714D01*
X141880952Y-65738095D01*
X142452380Y-65166666D01*
X142452380Y-65785714D01*
X142452380Y-66738095D02*
X142452380Y-66166666D01*
X142452380Y-66452380D02*
X141452380Y-66452380D01*
X141595238Y-66357142D01*
X141690476Y-66261904D01*
X141738095Y-66166666D01*
X171452380Y-81480952D02*
X170976190Y-81147619D01*
X171452380Y-80909523D02*
X170452380Y-80909523D01*
X170452380Y-81290476D01*
X170500000Y-81385714D01*
X170547619Y-81433333D01*
X170642857Y-81480952D01*
X170785714Y-81480952D01*
X170880952Y-81433333D01*
X170928571Y-81385714D01*
X170976190Y-81290476D01*
X170976190Y-80909523D01*
X170452380Y-82385714D02*
X170452380Y-81909523D01*
X170928571Y-81861904D01*
X170880952Y-81909523D01*
X170833333Y-82004761D01*
X170833333Y-82242857D01*
X170880952Y-82338095D01*
X170928571Y-82385714D01*
X171023809Y-82433333D01*
X171261904Y-82433333D01*
X171357142Y-82385714D01*
X171404761Y-82338095D01*
X171452380Y-82242857D01*
X171452380Y-82004761D01*
X171404761Y-81909523D01*
X171357142Y-81861904D01*
X170547619Y-82814285D02*
X170500000Y-82861904D01*
X170452380Y-82957142D01*
X170452380Y-83195238D01*
X170500000Y-83290476D01*
X170547619Y-83338095D01*
X170642857Y-83385714D01*
X170738095Y-83385714D01*
X170880952Y-83338095D01*
X171452380Y-82766666D01*
X171452380Y-83385714D01*
X170785714Y-84242857D02*
X171452380Y-84242857D01*
X170404761Y-84004761D02*
X171119047Y-83766666D01*
X171119047Y-84385714D01*
X166919047Y-81752380D02*
X167252380Y-81276190D01*
X167490476Y-81752380D02*
X167490476Y-80752380D01*
X167109523Y-80752380D01*
X167014285Y-80800000D01*
X166966666Y-80847619D01*
X166919047Y-80942857D01*
X166919047Y-81085714D01*
X166966666Y-81180952D01*
X167014285Y-81228571D01*
X167109523Y-81276190D01*
X167490476Y-81276190D01*
X166014285Y-80752380D02*
X166490476Y-80752380D01*
X166538095Y-81228571D01*
X166490476Y-81180952D01*
X166395238Y-81133333D01*
X166157142Y-81133333D01*
X166061904Y-81180952D01*
X166014285Y-81228571D01*
X165966666Y-81323809D01*
X165966666Y-81561904D01*
X166014285Y-81657142D01*
X166061904Y-81704761D01*
X166157142Y-81752380D01*
X166395238Y-81752380D01*
X166490476Y-81704761D01*
X166538095Y-81657142D01*
X165585714Y-80847619D02*
X165538095Y-80800000D01*
X165442857Y-80752380D01*
X165204761Y-80752380D01*
X165109523Y-80800000D01*
X165061904Y-80847619D01*
X165014285Y-80942857D01*
X165014285Y-81038095D01*
X165061904Y-81180952D01*
X165633333Y-81752380D01*
X165014285Y-81752380D01*
X164109523Y-80752380D02*
X164585714Y-80752380D01*
X164633333Y-81228571D01*
X164585714Y-81180952D01*
X164490476Y-81133333D01*
X164252380Y-81133333D01*
X164157142Y-81180952D01*
X164109523Y-81228571D01*
X164061904Y-81323809D01*
X164061904Y-81561904D01*
X164109523Y-81657142D01*
X164157142Y-81704761D01*
X164252380Y-81752380D01*
X164490476Y-81752380D01*
X164585714Y-81704761D01*
X164633333Y-81657142D01*
X161452380Y-84680952D02*
X160976190Y-84347619D01*
X161452380Y-84109523D02*
X160452380Y-84109523D01*
X160452380Y-84490476D01*
X160500000Y-84585714D01*
X160547619Y-84633333D01*
X160642857Y-84680952D01*
X160785714Y-84680952D01*
X160880952Y-84633333D01*
X160928571Y-84585714D01*
X160976190Y-84490476D01*
X160976190Y-84109523D01*
X160452380Y-85585714D02*
X160452380Y-85109523D01*
X160928571Y-85061904D01*
X160880952Y-85109523D01*
X160833333Y-85204761D01*
X160833333Y-85442857D01*
X160880952Y-85538095D01*
X160928571Y-85585714D01*
X161023809Y-85633333D01*
X161261904Y-85633333D01*
X161357142Y-85585714D01*
X161404761Y-85538095D01*
X161452380Y-85442857D01*
X161452380Y-85204761D01*
X161404761Y-85109523D01*
X161357142Y-85061904D01*
X160547619Y-86014285D02*
X160500000Y-86061904D01*
X160452380Y-86157142D01*
X160452380Y-86395238D01*
X160500000Y-86490476D01*
X160547619Y-86538095D01*
X160642857Y-86585714D01*
X160738095Y-86585714D01*
X160880952Y-86538095D01*
X161452380Y-85966666D01*
X161452380Y-86585714D01*
X160452380Y-87442857D02*
X160452380Y-87252380D01*
X160500000Y-87157142D01*
X160547619Y-87109523D01*
X160690476Y-87014285D01*
X160880952Y-86966666D01*
X161261904Y-86966666D01*
X161357142Y-87014285D01*
X161404761Y-87061904D01*
X161452380Y-87157142D01*
X161452380Y-87347619D01*
X161404761Y-87442857D01*
X161357142Y-87490476D01*
X161261904Y-87538095D01*
X161023809Y-87538095D01*
X160928571Y-87490476D01*
X160880952Y-87442857D01*
X160833333Y-87347619D01*
X160833333Y-87157142D01*
X160880952Y-87061904D01*
X160928571Y-87014285D01*
X161023809Y-86966666D01*
X173252380Y-83485714D02*
X174061904Y-83485714D01*
X174157142Y-83533333D01*
X174204761Y-83580952D01*
X174252380Y-83676190D01*
X174252380Y-83866666D01*
X174204761Y-83961904D01*
X174157142Y-84009523D01*
X174061904Y-84057142D01*
X173252380Y-84057142D01*
X173252380Y-85009523D02*
X173252380Y-84533333D01*
X173728571Y-84485714D01*
X173680952Y-84533333D01*
X173633333Y-84628571D01*
X173633333Y-84866666D01*
X173680952Y-84961904D01*
X173728571Y-85009523D01*
X173823809Y-85057142D01*
X174061904Y-85057142D01*
X174157142Y-85009523D01*
X174204761Y-84961904D01*
X174252380Y-84866666D01*
X174252380Y-84628571D01*
X174204761Y-84533333D01*
X174157142Y-84485714D01*
X173252380Y-85676190D02*
X173252380Y-85771428D01*
X173300000Y-85866666D01*
X173347619Y-85914285D01*
X173442857Y-85961904D01*
X173633333Y-86009523D01*
X173871428Y-86009523D01*
X174061904Y-85961904D01*
X174157142Y-85914285D01*
X174204761Y-85866666D01*
X174252380Y-85771428D01*
X174252380Y-85676190D01*
X174204761Y-85580952D01*
X174157142Y-85533333D01*
X174061904Y-85485714D01*
X173871428Y-85438095D01*
X173633333Y-85438095D01*
X173442857Y-85485714D01*
X173347619Y-85533333D01*
X173300000Y-85580952D01*
X173252380Y-85676190D01*
X173347619Y-86390476D02*
X173300000Y-86438095D01*
X173252380Y-86533333D01*
X173252380Y-86771428D01*
X173300000Y-86866666D01*
X173347619Y-86914285D01*
X173442857Y-86961904D01*
X173538095Y-86961904D01*
X173680952Y-86914285D01*
X174252380Y-86342857D01*
X174252380Y-86961904D01*
X162552380Y-87285714D02*
X163361904Y-87285714D01*
X163457142Y-87333333D01*
X163504761Y-87380952D01*
X163552380Y-87476190D01*
X163552380Y-87666666D01*
X163504761Y-87761904D01*
X163457142Y-87809523D01*
X163361904Y-87857142D01*
X162552380Y-87857142D01*
X162552380Y-88809523D02*
X162552380Y-88333333D01*
X163028571Y-88285714D01*
X162980952Y-88333333D01*
X162933333Y-88428571D01*
X162933333Y-88666666D01*
X162980952Y-88761904D01*
X163028571Y-88809523D01*
X163123809Y-88857142D01*
X163361904Y-88857142D01*
X163457142Y-88809523D01*
X163504761Y-88761904D01*
X163552380Y-88666666D01*
X163552380Y-88428571D01*
X163504761Y-88333333D01*
X163457142Y-88285714D01*
X162552380Y-89476190D02*
X162552380Y-89571428D01*
X162600000Y-89666666D01*
X162647619Y-89714285D01*
X162742857Y-89761904D01*
X162933333Y-89809523D01*
X163171428Y-89809523D01*
X163361904Y-89761904D01*
X163457142Y-89714285D01*
X163504761Y-89666666D01*
X163552380Y-89571428D01*
X163552380Y-89476190D01*
X163504761Y-89380952D01*
X163457142Y-89333333D01*
X163361904Y-89285714D01*
X163171428Y-89238095D01*
X162933333Y-89238095D01*
X162742857Y-89285714D01*
X162647619Y-89333333D01*
X162600000Y-89380952D01*
X162552380Y-89476190D01*
X162552380Y-90142857D02*
X162552380Y-90761904D01*
X162933333Y-90428571D01*
X162933333Y-90571428D01*
X162980952Y-90666666D01*
X163028571Y-90714285D01*
X163123809Y-90761904D01*
X163361904Y-90761904D01*
X163457142Y-90714285D01*
X163504761Y-90666666D01*
X163552380Y-90571428D01*
X163552380Y-90285714D01*
X163504761Y-90190476D01*
X163457142Y-90142857D01*
X155185714Y-92352380D02*
X155185714Y-93066666D01*
X155233333Y-93209523D01*
X155328571Y-93304761D01*
X155471428Y-93352380D01*
X155566666Y-93352380D01*
X154757142Y-92447619D02*
X154709523Y-92400000D01*
X154614285Y-92352380D01*
X154376190Y-92352380D01*
X154280952Y-92400000D01*
X154233333Y-92447619D01*
X154185714Y-92542857D01*
X154185714Y-92638095D01*
X154233333Y-92780952D01*
X154804761Y-93352380D01*
X154185714Y-93352380D01*
X153566666Y-92352380D02*
X153471428Y-92352380D01*
X153376190Y-92400000D01*
X153328571Y-92447619D01*
X153280952Y-92542857D01*
X153233333Y-92733333D01*
X153233333Y-92971428D01*
X153280952Y-93161904D01*
X153328571Y-93257142D01*
X153376190Y-93304761D01*
X153471428Y-93352380D01*
X153566666Y-93352380D01*
X153661904Y-93304761D01*
X153709523Y-93257142D01*
X153757142Y-93161904D01*
X153804761Y-92971428D01*
X153804761Y-92733333D01*
X153757142Y-92542857D01*
X153709523Y-92447619D01*
X153661904Y-92400000D01*
X153566666Y-92352380D01*
X152280952Y-93352380D02*
X152852380Y-93352380D01*
X152566666Y-93352380D02*
X152566666Y-92352380D01*
X152661904Y-92495238D01*
X152757142Y-92590476D01*
X152852380Y-92638095D01*
X95557142Y-88880952D02*
X95604761Y-88833333D01*
X95652380Y-88690476D01*
X95652380Y-88595238D01*
X95604761Y-88452380D01*
X95509523Y-88357142D01*
X95414285Y-88309523D01*
X95223809Y-88261904D01*
X95080952Y-88261904D01*
X94890476Y-88309523D01*
X94795238Y-88357142D01*
X94700000Y-88452380D01*
X94652380Y-88595238D01*
X94652380Y-88690476D01*
X94700000Y-88833333D01*
X94747619Y-88880952D01*
X94747619Y-89261904D02*
X94700000Y-89309523D01*
X94652380Y-89404761D01*
X94652380Y-89642857D01*
X94700000Y-89738095D01*
X94747619Y-89785714D01*
X94842857Y-89833333D01*
X94938095Y-89833333D01*
X95080952Y-89785714D01*
X95652380Y-89214285D01*
X95652380Y-89833333D01*
X94652380Y-90452380D02*
X94652380Y-90547619D01*
X94700000Y-90642857D01*
X94747619Y-90690476D01*
X94842857Y-90738095D01*
X95033333Y-90785714D01*
X95271428Y-90785714D01*
X95461904Y-90738095D01*
X95557142Y-90690476D01*
X95604761Y-90642857D01*
X95652380Y-90547619D01*
X95652380Y-90452380D01*
X95604761Y-90357142D01*
X95557142Y-90309523D01*
X95461904Y-90261904D01*
X95271428Y-90214285D01*
X95033333Y-90214285D01*
X94842857Y-90261904D01*
X94747619Y-90309523D01*
X94700000Y-90357142D01*
X94652380Y-90452380D01*
X94652380Y-91690476D02*
X94652380Y-91214285D01*
X95128571Y-91166666D01*
X95080952Y-91214285D01*
X95033333Y-91309523D01*
X95033333Y-91547619D01*
X95080952Y-91642857D01*
X95128571Y-91690476D01*
X95223809Y-91738095D01*
X95461904Y-91738095D01*
X95557142Y-91690476D01*
X95604761Y-91642857D01*
X95652380Y-91547619D01*
X95652380Y-91309523D01*
X95604761Y-91214285D01*
X95557142Y-91166666D01*
X130557142Y-76880952D02*
X130604761Y-76833333D01*
X130652380Y-76690476D01*
X130652380Y-76595238D01*
X130604761Y-76452380D01*
X130509523Y-76357142D01*
X130414285Y-76309523D01*
X130223809Y-76261904D01*
X130080952Y-76261904D01*
X129890476Y-76309523D01*
X129795238Y-76357142D01*
X129700000Y-76452380D01*
X129652380Y-76595238D01*
X129652380Y-76690476D01*
X129700000Y-76833333D01*
X129747619Y-76880952D01*
X129985714Y-77738095D02*
X130652380Y-77738095D01*
X129604761Y-77500000D02*
X130319047Y-77261904D01*
X130319047Y-77880952D01*
X129652380Y-78452380D02*
X129652380Y-78547619D01*
X129700000Y-78642857D01*
X129747619Y-78690476D01*
X129842857Y-78738095D01*
X130033333Y-78785714D01*
X130271428Y-78785714D01*
X130461904Y-78738095D01*
X130557142Y-78690476D01*
X130604761Y-78642857D01*
X130652380Y-78547619D01*
X130652380Y-78452380D01*
X130604761Y-78357142D01*
X130557142Y-78309523D01*
X130461904Y-78261904D01*
X130271428Y-78214285D01*
X130033333Y-78214285D01*
X129842857Y-78261904D01*
X129747619Y-78309523D01*
X129700000Y-78357142D01*
X129652380Y-78452380D01*
X129747619Y-79166666D02*
X129700000Y-79214285D01*
X129652380Y-79309523D01*
X129652380Y-79547619D01*
X129700000Y-79642857D01*
X129747619Y-79690476D01*
X129842857Y-79738095D01*
X129938095Y-79738095D01*
X130080952Y-79690476D01*
X130652380Y-79119047D01*
X130652380Y-79738095D01*
X142157142Y-71780952D02*
X142204761Y-71733333D01*
X142252380Y-71590476D01*
X142252380Y-71495238D01*
X142204761Y-71352380D01*
X142109523Y-71257142D01*
X142014285Y-71209523D01*
X141823809Y-71161904D01*
X141680952Y-71161904D01*
X141490476Y-71209523D01*
X141395238Y-71257142D01*
X141300000Y-71352380D01*
X141252380Y-71495238D01*
X141252380Y-71590476D01*
X141300000Y-71733333D01*
X141347619Y-71780952D01*
X141585714Y-72638095D02*
X142252380Y-72638095D01*
X141204761Y-72400000D02*
X141919047Y-72161904D01*
X141919047Y-72780952D01*
X141252380Y-73352380D02*
X141252380Y-73447619D01*
X141300000Y-73542857D01*
X141347619Y-73590476D01*
X141442857Y-73638095D01*
X141633333Y-73685714D01*
X141871428Y-73685714D01*
X142061904Y-73638095D01*
X142157142Y-73590476D01*
X142204761Y-73542857D01*
X142252380Y-73447619D01*
X142252380Y-73352380D01*
X142204761Y-73257142D01*
X142157142Y-73209523D01*
X142061904Y-73161904D01*
X141871428Y-73114285D01*
X141633333Y-73114285D01*
X141442857Y-73161904D01*
X141347619Y-73209523D01*
X141300000Y-73257142D01*
X141252380Y-73352380D01*
X141252380Y-74019047D02*
X141252380Y-74638095D01*
X141633333Y-74304761D01*
X141633333Y-74447619D01*
X141680952Y-74542857D01*
X141728571Y-74590476D01*
X141823809Y-74638095D01*
X142061904Y-74638095D01*
X142157142Y-74590476D01*
X142204761Y-74542857D01*
X142252380Y-74447619D01*
X142252380Y-74161904D01*
X142204761Y-74066666D01*
X142157142Y-74019047D01*
X177452380Y-63880952D02*
X176976190Y-63547619D01*
X177452380Y-63309523D02*
X176452380Y-63309523D01*
X176452380Y-63690476D01*
X176500000Y-63785714D01*
X176547619Y-63833333D01*
X176642857Y-63880952D01*
X176785714Y-63880952D01*
X176880952Y-63833333D01*
X176928571Y-63785714D01*
X176976190Y-63690476D01*
X176976190Y-63309523D01*
X176452380Y-64785714D02*
X176452380Y-64309523D01*
X176928571Y-64261904D01*
X176880952Y-64309523D01*
X176833333Y-64404761D01*
X176833333Y-64642857D01*
X176880952Y-64738095D01*
X176928571Y-64785714D01*
X177023809Y-64833333D01*
X177261904Y-64833333D01*
X177357142Y-64785714D01*
X177404761Y-64738095D01*
X177452380Y-64642857D01*
X177452380Y-64404761D01*
X177404761Y-64309523D01*
X177357142Y-64261904D01*
X177452380Y-65785714D02*
X177452380Y-65214285D01*
X177452380Y-65500000D02*
X176452380Y-65500000D01*
X176595238Y-65404761D01*
X176690476Y-65309523D01*
X176738095Y-65214285D01*
X176452380Y-66404761D02*
X176452380Y-66500000D01*
X176500000Y-66595238D01*
X176547619Y-66642857D01*
X176642857Y-66690476D01*
X176833333Y-66738095D01*
X177071428Y-66738095D01*
X177261904Y-66690476D01*
X177357142Y-66642857D01*
X177404761Y-66595238D01*
X177452380Y-66500000D01*
X177452380Y-66404761D01*
X177404761Y-66309523D01*
X177357142Y-66261904D01*
X177261904Y-66214285D01*
X177071428Y-66166666D01*
X176833333Y-66166666D01*
X176642857Y-66214285D01*
X176547619Y-66261904D01*
X176500000Y-66309523D01*
X176452380Y-66404761D01*
X167452380Y-67680952D02*
X166976190Y-67347619D01*
X167452380Y-67109523D02*
X166452380Y-67109523D01*
X166452380Y-67490476D01*
X166500000Y-67585714D01*
X166547619Y-67633333D01*
X166642857Y-67680952D01*
X166785714Y-67680952D01*
X166880952Y-67633333D01*
X166928571Y-67585714D01*
X166976190Y-67490476D01*
X166976190Y-67109523D01*
X166452380Y-68585714D02*
X166452380Y-68109523D01*
X166928571Y-68061904D01*
X166880952Y-68109523D01*
X166833333Y-68204761D01*
X166833333Y-68442857D01*
X166880952Y-68538095D01*
X166928571Y-68585714D01*
X167023809Y-68633333D01*
X167261904Y-68633333D01*
X167357142Y-68585714D01*
X167404761Y-68538095D01*
X167452380Y-68442857D01*
X167452380Y-68204761D01*
X167404761Y-68109523D01*
X167357142Y-68061904D01*
X166452380Y-69252380D02*
X166452380Y-69347619D01*
X166500000Y-69442857D01*
X166547619Y-69490476D01*
X166642857Y-69538095D01*
X166833333Y-69585714D01*
X167071428Y-69585714D01*
X167261904Y-69538095D01*
X167357142Y-69490476D01*
X167404761Y-69442857D01*
X167452380Y-69347619D01*
X167452380Y-69252380D01*
X167404761Y-69157142D01*
X167357142Y-69109523D01*
X167261904Y-69061904D01*
X167071428Y-69014285D01*
X166833333Y-69014285D01*
X166642857Y-69061904D01*
X166547619Y-69109523D01*
X166500000Y-69157142D01*
X166452380Y-69252380D01*
X166452380Y-69919047D02*
X166452380Y-70585714D01*
X167452380Y-70157142D01*
X119119047Y-64357142D02*
X119166666Y-64404761D01*
X119309523Y-64452380D01*
X119404761Y-64452380D01*
X119547619Y-64404761D01*
X119642857Y-64309523D01*
X119690476Y-64214285D01*
X119738095Y-64023809D01*
X119738095Y-63880952D01*
X119690476Y-63690476D01*
X119642857Y-63595238D01*
X119547619Y-63500000D01*
X119404761Y-63452380D01*
X119309523Y-63452380D01*
X119166666Y-63500000D01*
X119119047Y-63547619D01*
X118738095Y-63547619D02*
X118690476Y-63500000D01*
X118595238Y-63452380D01*
X118357142Y-63452380D01*
X118261904Y-63500000D01*
X118214285Y-63547619D01*
X118166666Y-63642857D01*
X118166666Y-63738095D01*
X118214285Y-63880952D01*
X118785714Y-64452380D01*
X118166666Y-64452380D01*
X117547619Y-63452380D02*
X117452380Y-63452380D01*
X117357142Y-63500000D01*
X117309523Y-63547619D01*
X117261904Y-63642857D01*
X117214285Y-63833333D01*
X117214285Y-64071428D01*
X117261904Y-64261904D01*
X117309523Y-64357142D01*
X117357142Y-64404761D01*
X117452380Y-64452380D01*
X117547619Y-64452380D01*
X117642857Y-64404761D01*
X117690476Y-64357142D01*
X117738095Y-64261904D01*
X117785714Y-64071428D01*
X117785714Y-63833333D01*
X117738095Y-63642857D01*
X117690476Y-63547619D01*
X117642857Y-63500000D01*
X117547619Y-63452380D01*
X116357142Y-63785714D02*
X116357142Y-64452380D01*
X116595238Y-63404761D02*
X116833333Y-64119047D01*
X116214285Y-64119047D01*
X104519047Y-85452380D02*
X104852380Y-84976190D01*
X105090476Y-85452380D02*
X105090476Y-84452380D01*
X104709523Y-84452380D01*
X104614285Y-84500000D01*
X104566666Y-84547619D01*
X104519047Y-84642857D01*
X104519047Y-84785714D01*
X104566666Y-84880952D01*
X104614285Y-84928571D01*
X104709523Y-84976190D01*
X105090476Y-84976190D01*
X103661904Y-84785714D02*
X103661904Y-85452380D01*
X103900000Y-84404761D02*
X104138095Y-85119047D01*
X103519047Y-85119047D01*
X102947619Y-84452380D02*
X102852380Y-84452380D01*
X102757142Y-84500000D01*
X102709523Y-84547619D01*
X102661904Y-84642857D01*
X102614285Y-84833333D01*
X102614285Y-85071428D01*
X102661904Y-85261904D01*
X102709523Y-85357142D01*
X102757142Y-85404761D01*
X102852380Y-85452380D01*
X102947619Y-85452380D01*
X103042857Y-85404761D01*
X103090476Y-85357142D01*
X103138095Y-85261904D01*
X103185714Y-85071428D01*
X103185714Y-84833333D01*
X103138095Y-84642857D01*
X103090476Y-84547619D01*
X103042857Y-84500000D01*
X102947619Y-84452380D01*
X101661904Y-85452380D02*
X102233333Y-85452380D01*
X101947619Y-85452380D02*
X101947619Y-84452380D01*
X102042857Y-84595238D01*
X102138095Y-84690476D01*
X102233333Y-84738095D01*
X110119047Y-80072380D02*
X110452380Y-79596190D01*
X110690476Y-80072380D02*
X110690476Y-79072380D01*
X110309523Y-79072380D01*
X110214285Y-79120000D01*
X110166666Y-79167619D01*
X110119047Y-79262857D01*
X110119047Y-79405714D01*
X110166666Y-79500952D01*
X110214285Y-79548571D01*
X110309523Y-79596190D01*
X110690476Y-79596190D01*
X109738095Y-79167619D02*
X109690476Y-79120000D01*
X109595238Y-79072380D01*
X109357142Y-79072380D01*
X109261904Y-79120000D01*
X109214285Y-79167619D01*
X109166666Y-79262857D01*
X109166666Y-79358095D01*
X109214285Y-79500952D01*
X109785714Y-80072380D01*
X109166666Y-80072380D01*
X108547619Y-79072380D02*
X108452380Y-79072380D01*
X108357142Y-79120000D01*
X108309523Y-79167619D01*
X108261904Y-79262857D01*
X108214285Y-79453333D01*
X108214285Y-79691428D01*
X108261904Y-79881904D01*
X108309523Y-79977142D01*
X108357142Y-80024761D01*
X108452380Y-80072380D01*
X108547619Y-80072380D01*
X108642857Y-80024761D01*
X108690476Y-79977142D01*
X108738095Y-79881904D01*
X108785714Y-79691428D01*
X108785714Y-79453333D01*
X108738095Y-79262857D01*
X108690476Y-79167619D01*
X108642857Y-79120000D01*
X108547619Y-79072380D01*
X107833333Y-79167619D02*
X107785714Y-79120000D01*
X107690476Y-79072380D01*
X107452380Y-79072380D01*
X107357142Y-79120000D01*
X107309523Y-79167619D01*
X107261904Y-79262857D01*
X107261904Y-79358095D01*
X107309523Y-79500952D01*
X107880952Y-80072380D01*
X107261904Y-80072380D01*
D11*
X197506285Y-105782714D02*
X197506285Y-106399571D01*
X197470000Y-106472142D01*
X197433714Y-106508428D01*
X197361142Y-106544714D01*
X197216000Y-106544714D01*
X197143428Y-106508428D01*
X197107142Y-106472142D01*
X197070857Y-106399571D01*
X197070857Y-105782714D01*
X196780571Y-105782714D02*
X196308857Y-105782714D01*
X196562857Y-106073000D01*
X196454000Y-106073000D01*
X196381428Y-106109285D01*
X196345142Y-106145571D01*
X196308857Y-106218142D01*
X196308857Y-106399571D01*
X196345142Y-106472142D01*
X196381428Y-106508428D01*
X196454000Y-106544714D01*
X196671714Y-106544714D01*
X196744285Y-106508428D01*
X196780571Y-106472142D01*
X195837142Y-105782714D02*
X195764571Y-105782714D01*
X195692000Y-105819000D01*
X195655714Y-105855285D01*
X195619428Y-105927857D01*
X195583142Y-106073000D01*
X195583142Y-106254428D01*
X195619428Y-106399571D01*
X195655714Y-106472142D01*
X195692000Y-106508428D01*
X195764571Y-106544714D01*
X195837142Y-106544714D01*
X195909714Y-106508428D01*
X195946000Y-106472142D01*
X195982285Y-106399571D01*
X196018571Y-106254428D01*
X196018571Y-106073000D01*
X195982285Y-105927857D01*
X195946000Y-105855285D01*
X195909714Y-105819000D01*
X195837142Y-105782714D01*
X195329142Y-105782714D02*
X194821142Y-105782714D01*
X195147714Y-106544714D01*
D10*
X205756547Y-76957142D02*
X205804166Y-77004761D01*
X205947023Y-77052380D01*
X206042261Y-77052380D01*
X206185119Y-77004761D01*
X206280357Y-76909523D01*
X206327976Y-76814285D01*
X206375595Y-76623809D01*
X206375595Y-76480952D01*
X206327976Y-76290476D01*
X206280357Y-76195238D01*
X206185119Y-76100000D01*
X206042261Y-76052380D01*
X205947023Y-76052380D01*
X205804166Y-76100000D01*
X205756547Y-76147619D01*
X205423214Y-76052380D02*
X204804166Y-76052380D01*
X205137500Y-76433333D01*
X204994642Y-76433333D01*
X204899404Y-76480952D01*
X204851785Y-76528571D01*
X204804166Y-76623809D01*
X204804166Y-76861904D01*
X204851785Y-76957142D01*
X204899404Y-77004761D01*
X204994642Y-77052380D01*
X205280357Y-77052380D01*
X205375595Y-77004761D01*
X205423214Y-76957142D01*
X204185119Y-76052380D02*
X204089880Y-76052380D01*
X203994642Y-76100000D01*
X203947023Y-76147619D01*
X203899404Y-76242857D01*
X203851785Y-76433333D01*
X203851785Y-76671428D01*
X203899404Y-76861904D01*
X203947023Y-76957142D01*
X203994642Y-77004761D01*
X204089880Y-77052380D01*
X204185119Y-77052380D01*
X204280357Y-77004761D01*
X204327976Y-76957142D01*
X204375595Y-76861904D01*
X204423214Y-76671428D01*
X204423214Y-76433333D01*
X204375595Y-76242857D01*
X204327976Y-76147619D01*
X204280357Y-76100000D01*
X204185119Y-76052380D01*
X202947023Y-76052380D02*
X203423214Y-76052380D01*
X203470833Y-76528571D01*
X203423214Y-76480952D01*
X203327976Y-76433333D01*
X203089880Y-76433333D01*
X202994642Y-76480952D01*
X202947023Y-76528571D01*
X202899404Y-76623809D01*
X202899404Y-76861904D01*
X202947023Y-76957142D01*
X202994642Y-77004761D01*
X203089880Y-77052380D01*
X203327976Y-77052380D01*
X203423214Y-77004761D01*
X203470833Y-76957142D01*
X191319047Y-66057142D02*
X191366666Y-66104761D01*
X191509523Y-66152380D01*
X191604761Y-66152380D01*
X191747619Y-66104761D01*
X191842857Y-66009523D01*
X191890476Y-65914285D01*
X191938095Y-65723809D01*
X191938095Y-65580952D01*
X191890476Y-65390476D01*
X191842857Y-65295238D01*
X191747619Y-65200000D01*
X191604761Y-65152380D01*
X191509523Y-65152380D01*
X191366666Y-65200000D01*
X191319047Y-65247619D01*
X190414285Y-65152380D02*
X190890476Y-65152380D01*
X190938095Y-65628571D01*
X190890476Y-65580952D01*
X190795238Y-65533333D01*
X190557142Y-65533333D01*
X190461904Y-65580952D01*
X190414285Y-65628571D01*
X190366666Y-65723809D01*
X190366666Y-65961904D01*
X190414285Y-66057142D01*
X190461904Y-66104761D01*
X190557142Y-66152380D01*
X190795238Y-66152380D01*
X190890476Y-66104761D01*
X190938095Y-66057142D01*
X189747619Y-65152380D02*
X189652380Y-65152380D01*
X189557142Y-65200000D01*
X189509523Y-65247619D01*
X189461904Y-65342857D01*
X189414285Y-65533333D01*
X189414285Y-65771428D01*
X189461904Y-65961904D01*
X189509523Y-66057142D01*
X189557142Y-66104761D01*
X189652380Y-66152380D01*
X189747619Y-66152380D01*
X189842857Y-66104761D01*
X189890476Y-66057142D01*
X189938095Y-65961904D01*
X189985714Y-65771428D01*
X189985714Y-65533333D01*
X189938095Y-65342857D01*
X189890476Y-65247619D01*
X189842857Y-65200000D01*
X189747619Y-65152380D01*
X188461904Y-66152380D02*
X189033333Y-66152380D01*
X188747619Y-66152380D02*
X188747619Y-65152380D01*
X188842857Y-65295238D01*
X188938095Y-65390476D01*
X189033333Y-65438095D01*
X199557142Y-78380952D02*
X199604761Y-78333333D01*
X199652380Y-78190476D01*
X199652380Y-78095238D01*
X199604761Y-77952380D01*
X199509523Y-77857142D01*
X199414285Y-77809523D01*
X199223809Y-77761904D01*
X199080952Y-77761904D01*
X198890476Y-77809523D01*
X198795238Y-77857142D01*
X198700000Y-77952380D01*
X198652380Y-78095238D01*
X198652380Y-78190476D01*
X198700000Y-78333333D01*
X198747619Y-78380952D01*
X198652380Y-78714285D02*
X198652380Y-79333333D01*
X199033333Y-79000000D01*
X199033333Y-79142857D01*
X199080952Y-79238095D01*
X199128571Y-79285714D01*
X199223809Y-79333333D01*
X199461904Y-79333333D01*
X199557142Y-79285714D01*
X199604761Y-79238095D01*
X199652380Y-79142857D01*
X199652380Y-78857142D01*
X199604761Y-78761904D01*
X199557142Y-78714285D01*
X198652380Y-79952380D02*
X198652380Y-80047619D01*
X198700000Y-80142857D01*
X198747619Y-80190476D01*
X198842857Y-80238095D01*
X199033333Y-80285714D01*
X199271428Y-80285714D01*
X199461904Y-80238095D01*
X199557142Y-80190476D01*
X199604761Y-80142857D01*
X199652380Y-80047619D01*
X199652380Y-79952380D01*
X199604761Y-79857142D01*
X199557142Y-79809523D01*
X199461904Y-79761904D01*
X199271428Y-79714285D01*
X199033333Y-79714285D01*
X198842857Y-79761904D01*
X198747619Y-79809523D01*
X198700000Y-79857142D01*
X198652380Y-79952380D01*
X198747619Y-80666666D02*
X198700000Y-80714285D01*
X198652380Y-80809523D01*
X198652380Y-81047619D01*
X198700000Y-81142857D01*
X198747619Y-81190476D01*
X198842857Y-81238095D01*
X198938095Y-81238095D01*
X199080952Y-81190476D01*
X199652380Y-80619047D01*
X199652380Y-81238095D01*
X104119047Y-87552380D02*
X104452380Y-87076190D01*
X104690476Y-87552380D02*
X104690476Y-86552380D01*
X104309523Y-86552380D01*
X104214285Y-86600000D01*
X104166666Y-86647619D01*
X104119047Y-86742857D01*
X104119047Y-86885714D01*
X104166666Y-86980952D01*
X104214285Y-87028571D01*
X104309523Y-87076190D01*
X104690476Y-87076190D01*
X103261904Y-86885714D02*
X103261904Y-87552380D01*
X103500000Y-86504761D02*
X103738095Y-87219047D01*
X103119047Y-87219047D01*
X102547619Y-86552380D02*
X102452380Y-86552380D01*
X102357142Y-86600000D01*
X102309523Y-86647619D01*
X102261904Y-86742857D01*
X102214285Y-86933333D01*
X102214285Y-87171428D01*
X102261904Y-87361904D01*
X102309523Y-87457142D01*
X102357142Y-87504761D01*
X102452380Y-87552380D01*
X102547619Y-87552380D01*
X102642857Y-87504761D01*
X102690476Y-87457142D01*
X102738095Y-87361904D01*
X102785714Y-87171428D01*
X102785714Y-86933333D01*
X102738095Y-86742857D01*
X102690476Y-86647619D01*
X102642857Y-86600000D01*
X102547619Y-86552380D01*
X101833333Y-86647619D02*
X101785714Y-86600000D01*
X101690476Y-86552380D01*
X101452380Y-86552380D01*
X101357142Y-86600000D01*
X101309523Y-86647619D01*
X101261904Y-86742857D01*
X101261904Y-86838095D01*
X101309523Y-86980952D01*
X101880952Y-87552380D01*
X101261904Y-87552380D01*
D11*
X123933714Y-73272142D02*
X123970000Y-73308428D01*
X124078857Y-73344714D01*
X124151428Y-73344714D01*
X124260285Y-73308428D01*
X124332857Y-73235857D01*
X124369142Y-73163285D01*
X124405428Y-73018142D01*
X124405428Y-72909285D01*
X124369142Y-72764142D01*
X124332857Y-72691571D01*
X124260285Y-72619000D01*
X124151428Y-72582714D01*
X124078857Y-72582714D01*
X123970000Y-72619000D01*
X123933714Y-72655285D01*
X123171714Y-73344714D02*
X123425714Y-72981857D01*
X123607142Y-73344714D02*
X123607142Y-72582714D01*
X123316857Y-72582714D01*
X123244285Y-72619000D01*
X123208000Y-72655285D01*
X123171714Y-72727857D01*
X123171714Y-72836714D01*
X123208000Y-72909285D01*
X123244285Y-72945571D01*
X123316857Y-72981857D01*
X123607142Y-72981857D01*
X122881428Y-72655285D02*
X122845142Y-72619000D01*
X122772571Y-72582714D01*
X122591142Y-72582714D01*
X122518571Y-72619000D01*
X122482285Y-72655285D01*
X122446000Y-72727857D01*
X122446000Y-72800428D01*
X122482285Y-72909285D01*
X122917714Y-73344714D01*
X122446000Y-73344714D01*
X121974285Y-72582714D02*
X121901714Y-72582714D01*
X121829142Y-72619000D01*
X121792857Y-72655285D01*
X121756571Y-72727857D01*
X121720285Y-72873000D01*
X121720285Y-73054428D01*
X121756571Y-73199571D01*
X121792857Y-73272142D01*
X121829142Y-73308428D01*
X121901714Y-73344714D01*
X121974285Y-73344714D01*
X122046857Y-73308428D01*
X122083142Y-73272142D01*
X122119428Y-73199571D01*
X122155714Y-73054428D01*
X122155714Y-72873000D01*
X122119428Y-72727857D01*
X122083142Y-72655285D01*
X122046857Y-72619000D01*
X121974285Y-72582714D01*
X120994571Y-73344714D02*
X121430000Y-73344714D01*
X121212285Y-73344714D02*
X121212285Y-72582714D01*
X121284857Y-72691571D01*
X121357428Y-72764142D01*
X121430000Y-72800428D01*
D10*
X205656547Y-108757142D02*
X205704166Y-108804761D01*
X205847023Y-108852380D01*
X205942261Y-108852380D01*
X206085119Y-108804761D01*
X206180357Y-108709523D01*
X206227976Y-108614285D01*
X206275595Y-108423809D01*
X206275595Y-108280952D01*
X206227976Y-108090476D01*
X206180357Y-107995238D01*
X206085119Y-107900000D01*
X205942261Y-107852380D01*
X205847023Y-107852380D01*
X205704166Y-107900000D01*
X205656547Y-107947619D01*
X205323214Y-107852380D02*
X204704166Y-107852380D01*
X205037500Y-108233333D01*
X204894642Y-108233333D01*
X204799404Y-108280952D01*
X204751785Y-108328571D01*
X204704166Y-108423809D01*
X204704166Y-108661904D01*
X204751785Y-108757142D01*
X204799404Y-108804761D01*
X204894642Y-108852380D01*
X205180357Y-108852380D01*
X205275595Y-108804761D01*
X205323214Y-108757142D01*
X203751785Y-108852380D02*
X204323214Y-108852380D01*
X204037500Y-108852380D02*
X204037500Y-107852380D01*
X204132738Y-107995238D01*
X204227976Y-108090476D01*
X204323214Y-108138095D01*
X202894642Y-107852380D02*
X203085119Y-107852380D01*
X203180357Y-107900000D01*
X203227976Y-107947619D01*
X203323214Y-108090476D01*
X203370833Y-108280952D01*
X203370833Y-108661904D01*
X203323214Y-108757142D01*
X203275595Y-108804761D01*
X203180357Y-108852380D01*
X202989880Y-108852380D01*
X202894642Y-108804761D01*
X202847023Y-108757142D01*
X202799404Y-108661904D01*
X202799404Y-108423809D01*
X202847023Y-108328571D01*
X202894642Y-108280952D01*
X202989880Y-108233333D01*
X203180357Y-108233333D01*
X203275595Y-108280952D01*
X203323214Y-108328571D01*
X203370833Y-108423809D01*
X188819047Y-59652380D02*
X189152380Y-59176190D01*
X189390476Y-59652380D02*
X189390476Y-58652380D01*
X189009523Y-58652380D01*
X188914285Y-58700000D01*
X188866666Y-58747619D01*
X188819047Y-58842857D01*
X188819047Y-58985714D01*
X188866666Y-59080952D01*
X188914285Y-59128571D01*
X189009523Y-59176190D01*
X189390476Y-59176190D01*
X187914285Y-58652380D02*
X188390476Y-58652380D01*
X188438095Y-59128571D01*
X188390476Y-59080952D01*
X188295238Y-59033333D01*
X188057142Y-59033333D01*
X187961904Y-59080952D01*
X187914285Y-59128571D01*
X187866666Y-59223809D01*
X187866666Y-59461904D01*
X187914285Y-59557142D01*
X187961904Y-59604761D01*
X188057142Y-59652380D01*
X188295238Y-59652380D01*
X188390476Y-59604761D01*
X188438095Y-59557142D01*
X187485714Y-58747619D02*
X187438095Y-58700000D01*
X187342857Y-58652380D01*
X187104761Y-58652380D01*
X187009523Y-58700000D01*
X186961904Y-58747619D01*
X186914285Y-58842857D01*
X186914285Y-58938095D01*
X186961904Y-59080952D01*
X187533333Y-59652380D01*
X186914285Y-59652380D01*
X186533333Y-58747619D02*
X186485714Y-58700000D01*
X186390476Y-58652380D01*
X186152380Y-58652380D01*
X186057142Y-58700000D01*
X186009523Y-58747619D01*
X185961904Y-58842857D01*
X185961904Y-58938095D01*
X186009523Y-59080952D01*
X186580952Y-59652380D01*
X185961904Y-59652380D01*
X185452380Y-63780952D02*
X184976190Y-63447619D01*
X185452380Y-63209523D02*
X184452380Y-63209523D01*
X184452380Y-63590476D01*
X184500000Y-63685714D01*
X184547619Y-63733333D01*
X184642857Y-63780952D01*
X184785714Y-63780952D01*
X184880952Y-63733333D01*
X184928571Y-63685714D01*
X184976190Y-63590476D01*
X184976190Y-63209523D01*
X184452380Y-64685714D02*
X184452380Y-64209523D01*
X184928571Y-64161904D01*
X184880952Y-64209523D01*
X184833333Y-64304761D01*
X184833333Y-64542857D01*
X184880952Y-64638095D01*
X184928571Y-64685714D01*
X185023809Y-64733333D01*
X185261904Y-64733333D01*
X185357142Y-64685714D01*
X185404761Y-64638095D01*
X185452380Y-64542857D01*
X185452380Y-64304761D01*
X185404761Y-64209523D01*
X185357142Y-64161904D01*
X184547619Y-65114285D02*
X184500000Y-65161904D01*
X184452380Y-65257142D01*
X184452380Y-65495238D01*
X184500000Y-65590476D01*
X184547619Y-65638095D01*
X184642857Y-65685714D01*
X184738095Y-65685714D01*
X184880952Y-65638095D01*
X185452380Y-65066666D01*
X185452380Y-65685714D01*
X184452380Y-66019047D02*
X184452380Y-66638095D01*
X184833333Y-66304761D01*
X184833333Y-66447619D01*
X184880952Y-66542857D01*
X184928571Y-66590476D01*
X185023809Y-66638095D01*
X185261904Y-66638095D01*
X185357142Y-66590476D01*
X185404761Y-66542857D01*
X185452380Y-66447619D01*
X185452380Y-66161904D01*
X185404761Y-66066666D01*
X185357142Y-66019047D01*
X104019047Y-89757142D02*
X104066666Y-89804761D01*
X104209523Y-89852380D01*
X104304761Y-89852380D01*
X104447619Y-89804761D01*
X104542857Y-89709523D01*
X104590476Y-89614285D01*
X104638095Y-89423809D01*
X104638095Y-89280952D01*
X104590476Y-89090476D01*
X104542857Y-88995238D01*
X104447619Y-88900000D01*
X104304761Y-88852380D01*
X104209523Y-88852380D01*
X104066666Y-88900000D01*
X104019047Y-88947619D01*
X103161904Y-89185714D02*
X103161904Y-89852380D01*
X103400000Y-88804761D02*
X103638095Y-89519047D01*
X103019047Y-89519047D01*
X102447619Y-88852380D02*
X102352380Y-88852380D01*
X102257142Y-88900000D01*
X102209523Y-88947619D01*
X102161904Y-89042857D01*
X102114285Y-89233333D01*
X102114285Y-89471428D01*
X102161904Y-89661904D01*
X102209523Y-89757142D01*
X102257142Y-89804761D01*
X102352380Y-89852380D01*
X102447619Y-89852380D01*
X102542857Y-89804761D01*
X102590476Y-89757142D01*
X102638095Y-89661904D01*
X102685714Y-89471428D01*
X102685714Y-89233333D01*
X102638095Y-89042857D01*
X102590476Y-88947619D01*
X102542857Y-88900000D01*
X102447619Y-88852380D01*
X101209523Y-88852380D02*
X101685714Y-88852380D01*
X101733333Y-89328571D01*
X101685714Y-89280952D01*
X101590476Y-89233333D01*
X101352380Y-89233333D01*
X101257142Y-89280952D01*
X101209523Y-89328571D01*
X101161904Y-89423809D01*
X101161904Y-89661904D01*
X101209523Y-89757142D01*
X101257142Y-89804761D01*
X101352380Y-89852380D01*
X101590476Y-89852380D01*
X101685714Y-89804761D01*
X101733333Y-89757142D01*
D11*
X199306285Y-73682714D02*
X199306285Y-74299571D01*
X199270000Y-74372142D01*
X199233714Y-74408428D01*
X199161142Y-74444714D01*
X199016000Y-74444714D01*
X198943428Y-74408428D01*
X198907142Y-74372142D01*
X198870857Y-74299571D01*
X198870857Y-73682714D01*
X198580571Y-73682714D02*
X198108857Y-73682714D01*
X198362857Y-73973000D01*
X198254000Y-73973000D01*
X198181428Y-74009285D01*
X198145142Y-74045571D01*
X198108857Y-74118142D01*
X198108857Y-74299571D01*
X198145142Y-74372142D01*
X198181428Y-74408428D01*
X198254000Y-74444714D01*
X198471714Y-74444714D01*
X198544285Y-74408428D01*
X198580571Y-74372142D01*
X197637142Y-73682714D02*
X197564571Y-73682714D01*
X197492000Y-73719000D01*
X197455714Y-73755285D01*
X197419428Y-73827857D01*
X197383142Y-73973000D01*
X197383142Y-74154428D01*
X197419428Y-74299571D01*
X197455714Y-74372142D01*
X197492000Y-74408428D01*
X197564571Y-74444714D01*
X197637142Y-74444714D01*
X197709714Y-74408428D01*
X197746000Y-74372142D01*
X197782285Y-74299571D01*
X197818571Y-74154428D01*
X197818571Y-73973000D01*
X197782285Y-73827857D01*
X197746000Y-73755285D01*
X197709714Y-73719000D01*
X197637142Y-73682714D01*
X197129142Y-73682714D02*
X196657428Y-73682714D01*
X196911428Y-73973000D01*
X196802571Y-73973000D01*
X196730000Y-74009285D01*
X196693714Y-74045571D01*
X196657428Y-74118142D01*
X196657428Y-74299571D01*
X196693714Y-74372142D01*
X196730000Y-74408428D01*
X196802571Y-74444714D01*
X197020285Y-74444714D01*
X197092857Y-74408428D01*
X197129142Y-74372142D01*
D10*
X199257142Y-110580952D02*
X199304761Y-110533333D01*
X199352380Y-110390476D01*
X199352380Y-110295238D01*
X199304761Y-110152380D01*
X199209523Y-110057142D01*
X199114285Y-110009523D01*
X198923809Y-109961904D01*
X198780952Y-109961904D01*
X198590476Y-110009523D01*
X198495238Y-110057142D01*
X198400000Y-110152380D01*
X198352380Y-110295238D01*
X198352380Y-110390476D01*
X198400000Y-110533333D01*
X198447619Y-110580952D01*
X198352380Y-110914285D02*
X198352380Y-111533333D01*
X198733333Y-111200000D01*
X198733333Y-111342857D01*
X198780952Y-111438095D01*
X198828571Y-111485714D01*
X198923809Y-111533333D01*
X199161904Y-111533333D01*
X199257142Y-111485714D01*
X199304761Y-111438095D01*
X199352380Y-111342857D01*
X199352380Y-111057142D01*
X199304761Y-110961904D01*
X199257142Y-110914285D01*
X199352380Y-112485714D02*
X199352380Y-111914285D01*
X199352380Y-112200000D02*
X198352380Y-112200000D01*
X198495238Y-112104761D01*
X198590476Y-112009523D01*
X198638095Y-111914285D01*
X198780952Y-113057142D02*
X198733333Y-112961904D01*
X198685714Y-112914285D01*
X198590476Y-112866666D01*
X198542857Y-112866666D01*
X198447619Y-112914285D01*
X198400000Y-112961904D01*
X198352380Y-113057142D01*
X198352380Y-113247619D01*
X198400000Y-113342857D01*
X198447619Y-113390476D01*
X198542857Y-113438095D01*
X198590476Y-113438095D01*
X198685714Y-113390476D01*
X198733333Y-113342857D01*
X198780952Y-113247619D01*
X198780952Y-113057142D01*
X198828571Y-112961904D01*
X198876190Y-112914285D01*
X198971428Y-112866666D01*
X199161904Y-112866666D01*
X199257142Y-112914285D01*
X199304761Y-112961904D01*
X199352380Y-113057142D01*
X199352380Y-113247619D01*
X199304761Y-113342857D01*
X199257142Y-113390476D01*
X199161904Y-113438095D01*
X198971428Y-113438095D01*
X198876190Y-113390476D01*
X198828571Y-113342857D01*
X198780952Y-113247619D01*
D12*
X125261252Y-64710000D02*
X124738748Y-64710000D01*
X125261252Y-63290000D02*
X124738748Y-63290000D01*
X170738748Y-93710000D02*
X171261252Y-93710000D01*
X170738748Y-92290000D02*
X171261252Y-92290000D01*
X165738748Y-93710000D02*
X166261252Y-93710000D01*
X165738748Y-92290000D02*
X166261252Y-92290000D01*
X173710000Y-75061252D02*
X173710000Y-74538748D01*
X172290000Y-75061252D02*
X172290000Y-74538748D01*
X125290000Y-67258578D02*
X125290000Y-66741422D01*
X126710000Y-67258578D02*
X126710000Y-66741422D01*
X114290000Y-67258578D02*
X114290000Y-66741422D01*
X115710000Y-67258578D02*
X115710000Y-66741422D01*
X93710000Y-93741422D02*
X93710000Y-94258578D01*
X92290000Y-93741422D02*
X92290000Y-94258578D01*
X94290000Y-93741422D02*
X94290000Y-94258578D01*
X95710000Y-93741422D02*
X95710000Y-94258578D01*
X178600000Y-115560000D02*
X179250000Y-115560000D01*
X178600000Y-112440000D02*
X177950000Y-112440000D01*
X178600000Y-115560000D02*
X176925000Y-115560000D01*
X178600000Y-112440000D02*
X179250000Y-112440000D01*
X110560000Y-70000000D02*
X110560000Y-70650000D01*
X110560000Y-70000000D02*
X110560000Y-69350000D01*
X107440000Y-70000000D02*
X107440000Y-70650000D01*
X107440000Y-70000000D02*
X107440000Y-68325000D01*
X184810000Y-117177064D02*
X184810000Y-112822936D01*
X181390000Y-117177064D02*
X181390000Y-112822936D01*
X113510000Y-69261252D02*
X113510000Y-68738748D01*
X112090000Y-69261252D02*
X112090000Y-68738748D01*
X175910000Y-113938748D02*
X175910000Y-114461252D01*
X174490000Y-113938748D02*
X174490000Y-114461252D01*
X163290000Y-65261252D02*
X163290000Y-64738748D01*
X164710000Y-65261252D02*
X164710000Y-64738748D01*
X161290000Y-65261252D02*
X161290000Y-64738748D01*
X162710000Y-65261252D02*
X162710000Y-64738748D01*
X159290000Y-65261252D02*
X159290000Y-64738748D01*
X160710000Y-65261252D02*
X160710000Y-64738748D01*
X158710000Y-65261252D02*
X158710000Y-64738748D01*
X157290000Y-65261252D02*
X157290000Y-64738748D01*
X169710000Y-64738748D02*
X169710000Y-65261252D01*
X168290000Y-64738748D02*
X168290000Y-65261252D01*
X171710000Y-64738748D02*
X171710000Y-65261252D01*
X170290000Y-64738748D02*
X170290000Y-65261252D01*
X118710000Y-96738748D02*
X118710000Y-97261252D01*
X117290000Y-96738748D02*
X117290000Y-97261252D01*
X112290000Y-96738748D02*
X112290000Y-97261252D01*
X113710000Y-96738748D02*
X113710000Y-97261252D01*
X125290000Y-71261252D02*
X125290000Y-70738748D01*
X126710000Y-71261252D02*
X126710000Y-70738748D01*
X118710000Y-69461252D02*
X118710000Y-68938748D01*
X117290000Y-69461252D02*
X117290000Y-68938748D01*
X125290000Y-113713748D02*
X125290000Y-114236252D01*
X126710000Y-113713748D02*
X126710000Y-114236252D01*
X147710000Y-64738748D02*
X147710000Y-65261252D01*
X146290000Y-64738748D02*
X146290000Y-65261252D01*
X143290000Y-64738748D02*
X143290000Y-65261252D01*
X144710000Y-64738748D02*
X144710000Y-65261252D01*
X169710000Y-84261252D02*
X169710000Y-83738748D01*
X168290000Y-84261252D02*
X168290000Y-83738748D01*
X166710000Y-84261252D02*
X166710000Y-83738748D01*
X165290000Y-84261252D02*
X165290000Y-83738748D01*
X163710000Y-84261252D02*
X163710000Y-83738748D01*
X162290000Y-84261252D02*
X162290000Y-83738748D01*
X169390000Y-89900000D02*
X169390000Y-87450000D01*
X172610000Y-88100000D02*
X172610000Y-89900000D01*
X164390000Y-89900000D02*
X164390000Y-87450000D01*
X167610000Y-88100000D02*
X167610000Y-89900000D01*
D10*
X184000000Y-126500000D02*
X132500000Y-126500000D01*
X132500000Y-126500000D02*
X132500000Y-123500000D01*
X184000000Y-123500000D02*
X184000000Y-126500000D01*
X132500000Y-123500000D02*
X184000000Y-123500000D01*
X108500500Y-125000000D02*
G75*
G03*
X108500500Y-125000000I-2500500J0D01*
G01*
X196516446Y-60000000D02*
G75*
G03*
X196516446Y-60000000I-2516446J0D01*
G01*
X108514458Y-60000000D02*
G75*
G03*
X108514458Y-60000000I-2514458J0D01*
G01*
X196617586Y-125000000D02*
G75*
G03*
X196617586Y-125000000I-2567586J0D01*
G01*
D12*
X93710000Y-88738748D02*
X93710000Y-89261252D01*
X92290000Y-88738748D02*
X92290000Y-89261252D01*
X128735000Y-78261252D02*
X128735000Y-77738748D01*
X127265000Y-78261252D02*
X127265000Y-77738748D01*
X141265000Y-77261252D02*
X141265000Y-76738748D01*
X142735000Y-77261252D02*
X142735000Y-76738748D01*
X174290000Y-64738748D02*
X174290000Y-65261252D01*
X175710000Y-64738748D02*
X175710000Y-65261252D01*
X167710000Y-64738748D02*
X167710000Y-65261252D01*
X166290000Y-64738748D02*
X166290000Y-65261252D01*
X114261252Y-63290000D02*
X113738748Y-63290000D01*
X114261252Y-64710000D02*
X113738748Y-64710000D01*
X99127064Y-84265000D02*
X98672936Y-84265000D01*
X99127064Y-85735000D02*
X98672936Y-85735000D01*
X106822936Y-75290000D02*
X111177064Y-75290000D01*
X106822936Y-78710000D02*
X111177064Y-78710000D01*
D11*
X197730000Y-109270000D02*
X198746000Y-109270000D01*
X200270000Y-109270000D02*
X200270000Y-106730000D01*
X200270000Y-106730000D02*
X197730000Y-106730000D01*
X197730000Y-106730000D02*
X197730000Y-109270000D01*
X200270000Y-109270000D02*
X199254000Y-109270000D01*
X199254000Y-109270000D02*
G75*
G03*
X198746000Y-109270000I-254000J-254001D01*
G01*
X196866400Y-109473200D02*
G75*
G03*
X196866400Y-109473200I-50800J0D01*
G01*
D12*
X204091233Y-74390000D02*
X204383767Y-74390000D01*
X204091233Y-75410000D02*
X204383767Y-75410000D01*
X189938748Y-64535000D02*
X190461252Y-64535000D01*
X189938748Y-63065000D02*
X190461252Y-63065000D01*
X197310000Y-79253733D02*
X197310000Y-79546267D01*
X196290000Y-79253733D02*
X196290000Y-79546267D01*
X98672936Y-87835000D02*
X99127064Y-87835000D01*
X98672936Y-86365000D02*
X99127064Y-86365000D01*
D11*
X123357000Y-74515020D02*
X123357000Y-74990000D01*
X126600000Y-73800000D02*
X119100000Y-73800000D01*
X123400000Y-74990000D02*
X123650000Y-74990000D01*
D10*
X126595000Y-73800000D02*
X126595000Y-76200000D01*
D11*
X123357000Y-74990000D02*
X123357000Y-75464980D01*
X122722000Y-74990000D02*
X122722000Y-75307500D01*
X122722000Y-74672500D02*
X122879480Y-74515020D01*
X122722000Y-74990000D02*
X122722000Y-74672500D01*
X123357000Y-75464980D02*
X122722000Y-74990000D01*
D10*
X119400000Y-73800000D02*
X119400000Y-76200000D01*
D11*
X126600000Y-76200000D02*
X119100000Y-76200000D01*
X122722000Y-74990000D02*
X123357000Y-74515020D01*
X122722000Y-75307500D02*
X122564520Y-75464980D01*
D10*
X119100000Y-73800000D02*
X119100000Y-76200000D01*
D11*
X122722000Y-74990000D02*
X122350000Y-74990000D01*
D12*
X204091233Y-106290000D02*
X204383767Y-106290000D01*
X204091233Y-107310000D02*
X204383767Y-107310000D01*
X187927064Y-60265000D02*
X187472936Y-60265000D01*
X187927064Y-61735000D02*
X187472936Y-61735000D01*
X187535000Y-64472936D02*
X187535000Y-64927064D01*
X186065000Y-64472936D02*
X186065000Y-64927064D01*
X98638748Y-90035000D02*
X99161252Y-90035000D01*
X98638748Y-88565000D02*
X99161252Y-88565000D01*
D11*
X197730000Y-77270000D02*
X198746000Y-77270000D01*
X200270000Y-77270000D02*
X199254000Y-77270000D01*
X200270000Y-74730000D02*
X197730000Y-74730000D01*
X200270000Y-77270000D02*
X200270000Y-74730000D01*
X197730000Y-74730000D02*
X197730000Y-77270000D01*
X199254000Y-77270000D02*
G75*
G03*
X198746000Y-77270000I-254000J-254001D01*
G01*
X196866400Y-77473200D02*
G75*
G03*
X196866400Y-77473200I-50800J0D01*
G01*
D12*
X197310000Y-111453733D02*
X197310000Y-111746267D01*
X196290000Y-111453733D02*
X196290000Y-111746267D01*
%LPC*%
D13*
X104000000Y-69750000D03*
D14*
X104000000Y-72250000D03*
D15*
X123750000Y-61000000D03*
D16*
X126250000Y-61000000D03*
D15*
X112750000Y-61000000D03*
D16*
X115250000Y-61000000D03*
D13*
X93000000Y-85750000D03*
D14*
X93000000Y-83250000D03*
X93000000Y-80750000D03*
X93000000Y-78250000D03*
X93000000Y-75750000D03*
X93000000Y-73250000D03*
X93000000Y-70750000D03*
X93000000Y-68250000D03*
D15*
X157250000Y-61000000D03*
D16*
X159750000Y-61000000D03*
X162250000Y-61000000D03*
X164750000Y-61000000D03*
X167250000Y-61000000D03*
X169750000Y-61000000D03*
X172250000Y-61000000D03*
X174750000Y-61000000D03*
D15*
X136750000Y-61000000D03*
D16*
X139250000Y-61000000D03*
X141750000Y-61000000D03*
X144250000Y-61000000D03*
X146750000Y-61000000D03*
X149250000Y-61000000D03*
D15*
X160500000Y-78000000D03*
D16*
X163000000Y-78000000D03*
X165500000Y-78000000D03*
X168000000Y-78000000D03*
X170500000Y-78000000D03*
X173000000Y-78000000D03*
D17*
X95000000Y-60000000D03*
D18*
X96697056Y-58302944D03*
X92600000Y-60000000D03*
X97400000Y-60000000D03*
X93302944Y-61697056D03*
X93302944Y-58302944D03*
X96697056Y-61697056D03*
X95000000Y-62400000D03*
X95000000Y-57600000D03*
X206697056Y-61697056D03*
X203302944Y-61697056D03*
X203302944Y-58302944D03*
X205000000Y-57600000D03*
X207400000Y-60000000D03*
X202600000Y-60000000D03*
D17*
X205000000Y-60000000D03*
D18*
X206697056Y-58302944D03*
X205000000Y-62400000D03*
X207400000Y-125000000D03*
X203302944Y-123302944D03*
X203302944Y-126697056D03*
D17*
X205000000Y-125000000D03*
D18*
X205000000Y-122600000D03*
X205000000Y-127400000D03*
X206697056Y-126697056D03*
X206697056Y-123302944D03*
X202600000Y-125000000D03*
D17*
X95000000Y-125000000D03*
D18*
X95000000Y-127400000D03*
X96697056Y-126697056D03*
X92600000Y-125000000D03*
X93302944Y-123302944D03*
X93302944Y-126697056D03*
X97400000Y-125000000D03*
X96697056Y-123302944D03*
X95000000Y-122600000D03*
D19*
X148800000Y-92380000D03*
D20*
X146260000Y-92380000D03*
X143720000Y-92380000D03*
X141180000Y-92380000D03*
X138640000Y-92380000D03*
X136100000Y-92380000D03*
X133560000Y-92380000D03*
X131020000Y-92380000D03*
X128480000Y-92380000D03*
X125940000Y-92380000D03*
X123400000Y-92380000D03*
X120860000Y-92380000D03*
X118320000Y-92380000D03*
X115780000Y-92380000D03*
X113240000Y-92380000D03*
X110700000Y-92380000D03*
X108160000Y-92380000D03*
X105620000Y-92380000D03*
X103080000Y-92380000D03*
X100540000Y-92380000D03*
X100540000Y-107620000D03*
X103080000Y-107620000D03*
X105620000Y-107620000D03*
X108160000Y-107620000D03*
X110700000Y-107620000D03*
X113240000Y-107620000D03*
X115780000Y-107620000D03*
X118320000Y-107620000D03*
X120860000Y-107620000D03*
X123400000Y-107620000D03*
X125940000Y-107620000D03*
X128480000Y-107620000D03*
X131020000Y-107620000D03*
X133560000Y-107620000D03*
X136100000Y-107620000D03*
X138640000Y-107620000D03*
X141180000Y-107620000D03*
X143720000Y-107620000D03*
X146260000Y-107620000D03*
X148800000Y-107620000D03*
D21*
X144792500Y-78553000D03*
D22*
X144792500Y-81093000D03*
X144792500Y-83633000D03*
D23*
X206337500Y-71550000D03*
X206337500Y-66450000D03*
X206337500Y-118550000D03*
X206337500Y-113450000D03*
D15*
X181850000Y-61075000D03*
D16*
X184350000Y-61075000D03*
D23*
X206337500Y-86550000D03*
X206337500Y-81450000D03*
X206337500Y-102550000D03*
X206337500Y-97450000D03*
D24*
X126025000Y-64000000D03*
X123975000Y-64000000D03*
D25*
X169975000Y-93000000D03*
X172025000Y-93000000D03*
X164975000Y-93000000D03*
X167025000Y-93000000D03*
D26*
X173000000Y-75825000D03*
X173000000Y-73775000D03*
D27*
X126000000Y-67937500D03*
X126000000Y-66062500D03*
X115000000Y-67937500D03*
X115000000Y-66062500D03*
D28*
X93000000Y-93062500D03*
X93000000Y-94937500D03*
X95000000Y-93062500D03*
X95000000Y-94937500D03*
D29*
X177662500Y-114950000D03*
X177662500Y-113050000D03*
X179537500Y-114000000D03*
D30*
X108050000Y-69062500D03*
X109950000Y-69062500D03*
X109000000Y-70937500D03*
D31*
X183100000Y-118050000D03*
X183100000Y-111950000D03*
D26*
X112800000Y-70025000D03*
X112800000Y-67975000D03*
D32*
X175200000Y-113175000D03*
X175200000Y-115225000D03*
D26*
X164000000Y-66025000D03*
X164000000Y-63975000D03*
X162000000Y-66025000D03*
X162000000Y-63975000D03*
X160000000Y-66025000D03*
X160000000Y-63975000D03*
X158000000Y-66025000D03*
X158000000Y-63975000D03*
D32*
X169000000Y-63975000D03*
X169000000Y-66025000D03*
X171000000Y-63975000D03*
X171000000Y-66025000D03*
X118000000Y-95975000D03*
X118000000Y-98025000D03*
X113000000Y-95975000D03*
X113000000Y-98025000D03*
D26*
X126000000Y-72025000D03*
X126000000Y-69975000D03*
X118000000Y-70225000D03*
X118000000Y-68175000D03*
D32*
X126000000Y-112950000D03*
X126000000Y-115000000D03*
X147000000Y-63975000D03*
X147000000Y-66025000D03*
X144000000Y-63975000D03*
X144000000Y-66025000D03*
D26*
X169000000Y-85025000D03*
X169000000Y-82975000D03*
X166000000Y-85025000D03*
X166000000Y-82975000D03*
X163000000Y-85025000D03*
X163000000Y-82975000D03*
D33*
X170050000Y-87900000D03*
X171000000Y-87900000D03*
X171950000Y-87900000D03*
X171950000Y-90100000D03*
X170050000Y-90100000D03*
X165050000Y-87900000D03*
X166000000Y-87900000D03*
X166950000Y-87900000D03*
X166950000Y-90100000D03*
X165050000Y-90100000D03*
D19*
X134240000Y-125000000D03*
D20*
X136780000Y-125000000D03*
X139320000Y-125000000D03*
X141860000Y-125000000D03*
X144400000Y-125000000D03*
X146940000Y-125000000D03*
X149480000Y-125000000D03*
X152020000Y-125000000D03*
X154560000Y-125000000D03*
X157100000Y-125000000D03*
X159640000Y-125000000D03*
X162180000Y-125000000D03*
X164720000Y-125000000D03*
X167260000Y-125000000D03*
X169800000Y-125000000D03*
X172340000Y-125000000D03*
X174880000Y-125000000D03*
X177420000Y-125000000D03*
X179960000Y-125000000D03*
X182500000Y-125000000D03*
D34*
X106000000Y-125000000D03*
X194000000Y-60000000D03*
X106000000Y-60000000D03*
X194000000Y-125000000D03*
D32*
X93000000Y-87975000D03*
X93000000Y-90025000D03*
D35*
X128000000Y-79037500D03*
X128000000Y-76962500D03*
X142000000Y-78037500D03*
X142000000Y-75962500D03*
D32*
X175000000Y-63975000D03*
X175000000Y-66025000D03*
X167000000Y-63975000D03*
X167000000Y-66025000D03*
D24*
X115025000Y-64000000D03*
X112975000Y-64000000D03*
D36*
X99900000Y-85000000D03*
X97900000Y-85000000D03*
D37*
X105950000Y-77000000D03*
X112050000Y-77000000D03*
D38*
X196800000Y-109000000D03*
X196800000Y-108500000D03*
X196800000Y-108000000D03*
X196800000Y-107500000D03*
X196800000Y-107000000D03*
X201200000Y-107000000D03*
X201200000Y-107500000D03*
X201200000Y-108000000D03*
X201200000Y-108500000D03*
X201200000Y-109000000D03*
D39*
X203375000Y-74900000D03*
X205100000Y-74900000D03*
D40*
X189162500Y-63800000D03*
X191237500Y-63800000D03*
D41*
X196800000Y-78537500D03*
X196800000Y-80262500D03*
D42*
X97900000Y-87100000D03*
X99900000Y-87100000D03*
D43*
X125005000Y-75010000D03*
X121005000Y-75010000D03*
D39*
X203375000Y-106800000D03*
X205100000Y-106800000D03*
D36*
X188700000Y-61000000D03*
X186700000Y-61000000D03*
D44*
X186800000Y-63700000D03*
X186800000Y-65700000D03*
D40*
X97862500Y-89300000D03*
X99937500Y-89300000D03*
D38*
X196800000Y-77000000D03*
X196800000Y-76500000D03*
X196800000Y-76000000D03*
X196800000Y-75500000D03*
X196800000Y-75000000D03*
X201200000Y-75000000D03*
X201200000Y-75500000D03*
X201200000Y-76000000D03*
X201200000Y-76500000D03*
X201200000Y-77000000D03*
D41*
X196800000Y-110737500D03*
X196800000Y-112462500D03*
M02*
