M48
; DRILL file {KiCad 6.0.2-378541a8eb~116~ubuntu20.04.1} date Tue 19 Apr 2022 01:42:12 PM PDT
; FORMAT={-:-/ absolute / metric / decimal}
; #@! TF.CreationDate,2022-04-19T13:42:12-07:00
; #@! TF.GenerationSoftware,Kicad,Pcbnew,6.0.2-378541a8eb~116~ubuntu20.04.1
; #@! TF.FileFunction,Plated,1,2,PTH
FMAT,2
METRIC
; #@! TA.AperFunction,Plated,PTH,ViaDrill
T1C0.300
; #@! TA.AperFunction,Plated,PTH,ComponentDrill
T2C0.500
; #@! TA.AperFunction,Plated,PTH,ViaDrill
T3C0.600
; #@! TA.AperFunction,Plated,PTH,ComponentDrill
T4C0.900
; #@! TA.AperFunction,Plated,PTH,ComponentDrill
T5C1.000
; #@! TA.AperFunction,Plated,PTH,ComponentDrill
T6C2.700
; #@! TA.AperFunction,Plated,PTH,ComponentDrill
T7C3.200
%
G90
G05
T1
X93.0Y-116.2
X94.0Y-96.6
X94.0Y-114.6
X95.0Y-116.2
X97.2Y-110.7
X105.2Y-117.0
X105.2Y-119.0
X107.8Y-118.4
X108.2Y-88.6
X108.6Y-82.0
X108.6Y-85.2
X109.45Y-119.0
X109.45Y-125.4
X110.0Y-118.4
X110.0Y-126.0
X110.8Y-89.2
X110.8Y-129.2
X112.0Y-74.6
X112.6Y-109.2
X113.0Y-102.2
X114.6Y-87.4
X115.0Y-119.6
X115.23Y-112.2
X115.23Y-114.4
X115.8Y-109.2
X116.6Y-72.2
X116.6Y-119.6
X116.6Y-122.4
X116.8Y-75.0
X118.0Y-102.2
X118.0Y-125.4
X118.2Y-88.0
X119.8Y-112.2
X119.8Y-117.0
X119.8Y-126.8
X120.0Y-125.2
X120.86Y-85.26
X122.6Y-113.2
X123.0Y-70.4
X123.4Y-87.4
X123.4Y-110.8
X126.0Y-118.0
X126.4Y-122.6
X126.8Y-127.8
X127.4Y-68.0
X127.6Y-87.2
X129.6Y-113.4
X130.4Y-70.2
X130.6Y-72.8
X130.6Y-88.6
X131.15Y-73.35
X131.2Y-121.4
X131.3Y-88.6
X131.6Y-57.4
X131.701Y-85.2
X132.25Y-67.2
X132.4Y-117.2
X132.8Y-67.8
X132.8Y-88.0
X133.4Y-68.95
X133.6Y-105.0
X134.4Y-122.4
X134.6Y-113.4
X134.6Y-120.4
X134.8Y-117.0
X135.8Y-87.2
X136.0Y-79.0
X136.2Y-104.4
X137.8Y-96.6
X137.8Y-102.0
X138.4Y-70.2
X139.4Y-68.4
X139.4Y-122.4
X139.6Y-113.4
X139.6Y-117.0
X139.6Y-120.6
X140.6Y-96.6
X140.8Y-102.0
X141.0Y-127.8
X141.2Y-70.2
X141.2Y-89.0
X143.4Y-120.6
X143.4Y-122.4
X143.8Y-113.4
X143.8Y-117.0
X144.0Y-67.2
X144.4Y-121.2
X145.8Y-113.2
X145.8Y-127.2
X146.4Y-85.6
X146.6Y-74.4
X146.8Y-71.4
X146.8Y-117.0
X146.8Y-118.2
X147.0Y-68.35
X147.0Y-88.0
X147.61Y-70.684
X148.2Y-114.2
X148.2Y-127.2
X148.25Y-70.4
X148.8Y-69.8
X149.0Y-121.6
X149.4Y-74.4
X149.4Y-117.0
X149.8Y-85.6
X152.8Y-65.4
X153.6Y-112.4
X154.8Y-65.4
X155.6Y-58.0
X155.6Y-68.0
X156.2Y-76.2
X156.2Y-81.2
X156.4Y-65.4
X157.6Y-96.4
X160.6Y-93.2
X160.6Y-109.0
X160.8Y-106.2
X161.4Y-110.2
X161.977Y-73.35
X162.0Y-69.2
X162.4Y-98.2
X164.0Y-69.2
X164.0Y-72.8
X165.2Y-103.2
X167.0Y-69.2
X168.2Y-69.8
X168.2Y-98.4
X169.0Y-104.4
X169.2Y-70.4
X169.6Y-106.2
X169.6Y-109.2
X169.6Y-111.4
X171.6Y-71.0
X171.6Y-111.4
X172.1Y-100.1
X173.6Y-95.2
X174.25Y-104.8
X174.4Y-89.7
X175.0Y-82.2
X175.0Y-109.2
X175.2Y-116.6
X175.8Y-95.7
X175.8Y-97.3
X175.8Y-98.4
X175.9Y-100.1
X176.2Y-102.8
X176.2Y-105.1
X176.6Y-108.5
X176.8Y-83.2
X176.972Y-109.651
X177.0Y-110.4
X177.2Y-70.4
X177.2Y-73.4
X177.2Y-74.8
X178.25Y-69.0
X178.6Y-105.8
X178.8Y-68.2
X179.0Y-85.4
X179.0Y-88.2
X179.1Y-95.3
X179.2Y-80.0
X179.4Y-73.4
X179.6Y-70.4
X180.8Y-122.2
X181.8Y-96.6
X181.8Y-98.0
X182.2Y-85.2
X182.4Y-86.0
X183.2Y-89.939
X183.2Y-94.7
X183.4Y-86.0
X185.0Y-88.4
X185.2Y-106.0
X185.2Y-122.2
X186.2Y-79.8
X186.6Y-82.4
X186.6Y-96.6
X186.6Y-98.0
X186.6Y-114.8
X186.9Y-85.5
X187.0Y-87.0
X187.0Y-89.939
X187.6Y-67.0
X187.6Y-69.6
X187.8Y-88.4
X188.4Y-77.8
X189.0Y-96.6
X189.0Y-98.0
X189.7Y-94.5
X189.7Y-100.7
X190.0Y-122.2
X190.2Y-90.0
X191.2Y-75.4
X193.4Y-90.0
X193.4Y-114.0
X193.4Y-116.6
X194.0Y-87.4
X195.0Y-88.1
X195.2Y-90.2
X195.2Y-92.6
X195.3Y-78.3
X195.4Y-109.0
X195.4Y-112.0
X195.6Y-76.5
X196.4Y-114.0
X196.4Y-114.7
X197.8Y-110.7
X198.6Y-68.2
X198.6Y-88.6
X199.4Y-68.8
X199.4Y-110.6
X200.2Y-71.0
X200.2Y-71.8
X200.2Y-72.6
X200.2Y-73.4
X200.2Y-78.0
X200.2Y-78.8
X200.2Y-79.6
X200.2Y-80.4
X200.2Y-81.2
X200.2Y-82.0
X200.2Y-82.8
X200.2Y-102.2
X200.2Y-103.0
X200.2Y-103.8
X200.2Y-104.6
X200.2Y-105.4
X200.2Y-106.2
X200.2Y-109.8
X200.2Y-110.6
X200.2Y-111.4
X200.2Y-112.2
X200.2Y-113.0
X200.2Y-113.8
X200.4Y-70.2
X200.4Y-101.2
X200.6Y-114.6
X200.8Y-83.4
X201.0Y-69.6
X201.0Y-100.6
X201.2Y-74.0
X201.2Y-77.9
X201.2Y-106.3
X201.2Y-109.6
X201.2Y-115.2
X201.4Y-84.0
X201.6Y-69.0
X201.6Y-100.0
X201.8Y-115.8
X202.0Y-84.6
X202.2Y-68.4
X202.2Y-71.8
X202.2Y-72.6
X202.2Y-73.4
X202.2Y-78.0
X202.2Y-78.8
X202.2Y-79.6
X202.2Y-80.4
X202.2Y-81.2
X202.2Y-82.0
X202.2Y-99.4
X202.2Y-102.2
X202.2Y-103.0
X202.2Y-103.8
X202.2Y-104.6
X202.2Y-105.4
X202.2Y-106.2
X202.2Y-109.8
X202.2Y-110.6
X202.2Y-111.4
X202.2Y-112.2
X202.2Y-113.0
X202.4Y-71.0
X202.4Y-116.4
X202.404Y-108.01
X202.433Y-76.033
X202.6Y-113.8
X202.8Y-68.0
X202.8Y-85.0
X202.8Y-101.6
X203.0Y-70.4
X203.0Y-82.8
X203.0Y-99.0
X203.0Y-117.0
X203.2Y-114.4
X203.4Y-101.0
X203.6Y-68.0
X203.6Y-70.0
X203.8Y-79.6
X203.8Y-83.0
X203.8Y-85.0
X203.8Y-99.0
X203.8Y-115.0
X203.8Y-117.0
X204.0Y-88.4
X204.0Y-95.5
X204.0Y-104.5
X204.0Y-111.5
X204.0Y-120.5
X208.5Y-64.5
X208.5Y-73.5
X208.5Y-74.5
X208.5Y-75.5
X208.5Y-76.5
X208.5Y-77.5
X208.5Y-78.5
X208.5Y-79.5
X208.5Y-89.0
X208.5Y-90.0
X208.5Y-91.0
X208.5Y-92.0
X208.5Y-93.0
X208.5Y-94.0
X208.5Y-95.0
X208.5Y-104.5
X208.5Y-105.5
X208.5Y-106.5
X208.5Y-107.5
X208.5Y-108.5
X208.5Y-109.5
X208.5Y-110.5
X208.5Y-111.5
X208.5Y-120.5
T2
X92.6Y-60.0
X92.6Y-125.0
X93.303Y-58.303
X93.303Y-61.697
X93.303Y-123.303
X93.303Y-126.697
X95.0Y-57.6
X95.0Y-62.4
X95.0Y-122.6
X95.0Y-127.4
X96.697Y-58.303
X96.697Y-61.697
X96.697Y-123.303
X96.697Y-126.697
X97.4Y-60.0
X97.4Y-125.0
X202.6Y-60.0
X202.6Y-125.0
X203.303Y-58.303
X203.303Y-61.697
X203.303Y-123.303
X203.303Y-126.697
X205.0Y-57.6
X205.0Y-62.4
X205.0Y-122.6
X205.0Y-127.4
X206.697Y-58.303
X206.697Y-61.697
X206.697Y-123.303
X206.697Y-126.697
X207.4Y-60.0
X207.4Y-125.0
T3
X93.0Y-91.2
X96.8Y-81.2
X101.1Y-85.0
X104.0Y-77.0
X105.62Y-87.62
X109.0Y-80.8
X109.2Y-113.2
X111.2Y-69.2
X111.4Y-122.2
X111.6Y-64.0
X112.8Y-71.4
X113.0Y-99.6
X113.6Y-116.0
X118.0Y-72.0
X118.0Y-99.6
X119.0Y-81.0
X121.0Y-57.2
X121.0Y-72.0
X121.8Y-79.0
X122.6Y-64.0
X123.4Y-115.0
X123.4Y-120.299
X124.4Y-72.0
X127.2Y-81.2
X136.8Y-112.2
X142.4Y-87.0
X143.6Y-76.0
X153.6Y-56.6
X155.0Y-81.8
X156.2Y-85.0
X159.8Y-99.6
X159.8Y-111.2
X161.4Y-83.0
X161.4Y-91.6
X165.05Y-91.55
X168.2Y-93.0
X168.4Y-87.8
X170.05Y-91.55
X170.4Y-85.0
X170.6Y-106.1
X170.78Y-107.62
X170.8Y-113.6
X171.6Y-73.8
X173.4Y-87.8
X173.4Y-93.0
X175.0Y-104.0
X175.0Y-107.6
X175.2Y-111.7
X176.0Y-78.0
X176.0Y-85.0
X176.0Y-89.0
X177.6Y-111.8
X178.6Y-100.0
X179.7Y-87.0
X180.4Y-109.3
X181.4Y-90.8
X183.1Y-109.3
X185.2Y-73.7
X185.4Y-84.4
X186.4Y-72.6
X187.4Y-73.4
X188.4Y-81.1
X188.6Y-113.6
X188.6Y-120.2
X188.6Y-127.6
X190.2Y-112.8
X191.8Y-82.8
X192.2Y-94.437
X192.4Y-84.8
X193.0Y-91.5
X194.3Y-100.8
X195.6Y-113.0
X197.5Y-72.2
X197.8Y-86.1
X198.0Y-80.3
X198.6Y-126.1
X198.7Y-104.4
X199.0Y-115.1
X200.0Y-118.4
X200.1Y-93.3
X201.5Y-97.2
X206.438Y-106.7
X206.537Y-74.9
T4
X93.0Y-68.25
X93.0Y-70.75
X93.0Y-73.25
X93.0Y-75.75
X93.0Y-78.25
X93.0Y-80.75
X93.0Y-83.25
X93.0Y-85.75
X104.0Y-69.75
X104.0Y-72.25
X112.75Y-61.0
X115.25Y-61.0
X123.75Y-61.0
X126.25Y-61.0
X136.75Y-61.0
X139.25Y-61.0
X141.75Y-61.0
X144.25Y-61.0
X146.75Y-61.0
X149.25Y-61.0
X157.25Y-61.0
X159.75Y-61.0
X160.5Y-78.0
X162.25Y-61.0
X163.0Y-78.0
X164.75Y-61.0
X165.5Y-78.0
X167.25Y-61.0
X168.0Y-78.0
X169.75Y-61.0
X170.5Y-78.0
X172.25Y-61.0
X173.0Y-78.0
X174.75Y-61.0
X181.85Y-61.075
X184.35Y-61.075
T5
X100.54Y-92.38
X100.54Y-107.62
X103.08Y-92.38
X103.08Y-107.62
X105.62Y-92.38
X105.62Y-107.62
X108.16Y-92.38
X108.16Y-107.62
X110.7Y-92.38
X110.7Y-107.62
X113.24Y-92.38
X113.24Y-107.62
X115.78Y-92.38
X115.78Y-107.62
X118.32Y-92.38
X118.32Y-107.62
X120.86Y-92.38
X120.86Y-107.62
X123.4Y-92.38
X123.4Y-107.62
X125.94Y-92.38
X125.94Y-107.62
X128.48Y-92.38
X128.48Y-107.62
X131.02Y-92.38
X131.02Y-107.62
X133.56Y-92.38
X133.56Y-107.62
X134.24Y-125.0
X136.1Y-92.38
X136.1Y-107.62
X136.78Y-125.0
X138.64Y-92.38
X138.64Y-107.62
X139.32Y-125.0
X141.18Y-92.38
X141.18Y-107.62
X141.86Y-125.0
X143.72Y-92.38
X143.72Y-107.62
X144.4Y-125.0
X144.792Y-78.553
X144.792Y-81.093
X144.792Y-83.633
X146.26Y-92.38
X146.26Y-107.62
X146.94Y-125.0
X148.8Y-92.38
X148.8Y-107.62
X149.48Y-125.0
X152.02Y-125.0
X154.56Y-125.0
X157.1Y-125.0
X159.64Y-125.0
X162.18Y-125.0
X164.72Y-125.0
X167.26Y-125.0
X169.8Y-125.0
X172.34Y-125.0
X174.88Y-125.0
X177.42Y-125.0
X179.96Y-125.0
X182.5Y-125.0
T6
X106.0Y-60.0
X106.0Y-125.0
X194.0Y-60.0
X194.0Y-125.0
T7
X95.0Y-60.0
X95.0Y-125.0
X205.0Y-60.0
X205.0Y-125.0
T0
M30
