%FSLAX45Y45*%
G04 Gerber Fmt 4.5, Leading zero omitted, Abs format (unit mm)*
G04 Created by KiCad (PCBNEW 6.0.2-378541a8eb~116~ubuntu20.04.1) date 2022-04-19 13:42:11*
%MOMM*%
%LPD*%
G01*
G04 APERTURE LIST*
%TA.AperFunction,Profile*%
%ADD10C,0.050000*%
%TD*%
%ADD11C,0.200000*%
G04 APERTURE END LIST*
D10*
X9000000Y-13000000D02*
X9000000Y-5500000D01*
X21000000Y-13000000D02*
X9000000Y-13000000D01*
X9000000Y-5500000D02*
X21000000Y-5500000D01*
X21000000Y-5500000D02*
X21000000Y-13000000D01*
D11*
X9255119Y-13312976D02*
X9255119Y-13112976D01*
X9302738Y-13112976D01*
X9331310Y-13122500D01*
X9350357Y-13141548D01*
X9359881Y-13160595D01*
X9369405Y-13198690D01*
X9369405Y-13227262D01*
X9359881Y-13265357D01*
X9350357Y-13284405D01*
X9331310Y-13303452D01*
X9302738Y-13312976D01*
X9255119Y-13312976D01*
X9455119Y-13312976D02*
X9455119Y-13179643D01*
X9455119Y-13217738D02*
X9464643Y-13198690D01*
X9474167Y-13189167D01*
X9493214Y-13179643D01*
X9512262Y-13179643D01*
X9578929Y-13312976D02*
X9578929Y-13179643D01*
X9578929Y-13112976D02*
X9569405Y-13122500D01*
X9578929Y-13132024D01*
X9588452Y-13122500D01*
X9578929Y-13112976D01*
X9578929Y-13132024D01*
X9702738Y-13312976D02*
X9683690Y-13303452D01*
X9674167Y-13284405D01*
X9674167Y-13112976D01*
X9807500Y-13312976D02*
X9788452Y-13303452D01*
X9778929Y-13284405D01*
X9778929Y-13112976D01*
X10036071Y-13312976D02*
X10036071Y-13112976D01*
X10102738Y-13255833D01*
X10169405Y-13112976D01*
X10169405Y-13312976D01*
X10350357Y-13312976D02*
X10350357Y-13208214D01*
X10340833Y-13189167D01*
X10321786Y-13179643D01*
X10283690Y-13179643D01*
X10264643Y-13189167D01*
X10350357Y-13303452D02*
X10331310Y-13312976D01*
X10283690Y-13312976D01*
X10264643Y-13303452D01*
X10255119Y-13284405D01*
X10255119Y-13265357D01*
X10264643Y-13246309D01*
X10283690Y-13236786D01*
X10331310Y-13236786D01*
X10350357Y-13227262D01*
X10445595Y-13179643D02*
X10445595Y-13379643D01*
X10445595Y-13189167D02*
X10464643Y-13179643D01*
X10502738Y-13179643D01*
X10521786Y-13189167D01*
X10531310Y-13198690D01*
X10540833Y-13217738D01*
X10540833Y-13274881D01*
X10531310Y-13293928D01*
X10521786Y-13303452D01*
X10502738Y-13312976D01*
X10464643Y-13312976D01*
X10445595Y-13303452D01*
X10626548Y-13293928D02*
X10636071Y-13303452D01*
X10626548Y-13312976D01*
X10617024Y-13303452D01*
X10626548Y-13293928D01*
X10626548Y-13312976D01*
X10626548Y-13189167D02*
X10636071Y-13198690D01*
X10626548Y-13208214D01*
X10617024Y-13198690D01*
X10626548Y-13189167D01*
X10626548Y-13208214D01*
M02*
