G04 #@! TF.GenerationSoftware,KiCad,Pcbnew,6.0.2-378541a8eb~116~ubuntu20.04.1*
G04 #@! TF.CreationDate,2022-04-19T13:42:03-07:00*
G04 #@! TF.ProjectId,vfo-control-mcu,76666f2d-636f-46e7-9472-6f6c2d6d6375,rev?*
G04 #@! TF.SameCoordinates,Original*
G04 #@! TF.FileFunction,Paste,Top*
G04 #@! TF.FilePolarity,Positive*
%FSLAX46Y46*%
G04 Gerber Fmt 4.6, Leading zero omitted, Abs format (unit mm)*
G04 Created by KiCad (PCBNEW 6.0.2-378541a8eb~116~ubuntu20.04.1) date 2022-04-19 13:42:03*
%MOMM*%
%LPD*%
G01*
G04 APERTURE LIST*
G04 Aperture macros list*
%AMRoundRect*
0 Rectangle with rounded corners*
0 $1 Rounding radius*
0 $2 $3 $4 $5 $6 $7 $8 $9 X,Y pos of 4 corners*
0 Add a 4 corners polygon primitive as box body*
4,1,4,$2,$3,$4,$5,$6,$7,$8,$9,$2,$3,0*
0 Add four circle primitives for the rounded corners*
1,1,$1+$1,$2,$3*
1,1,$1+$1,$4,$5*
1,1,$1+$1,$6,$7*
1,1,$1+$1,$8,$9*
0 Add four rect primitives between the rounded corners*
20,1,$1+$1,$2,$3,$4,$5,0*
20,1,$1+$1,$4,$5,$6,$7,0*
20,1,$1+$1,$6,$7,$8,$9,0*
20,1,$1+$1,$8,$9,$2,$3,0*%
G04 Aperture macros list end*
%ADD10RoundRect,0.249999X0.325001X0.450001X-0.325001X0.450001X-0.325001X-0.450001X0.325001X-0.450001X0*%
%ADD11RoundRect,0.243750X-0.243750X-0.456250X0.243750X-0.456250X0.243750X0.456250X-0.243750X0.456250X0*%
%ADD12R,2.500000X7.500000*%
%ADD13RoundRect,0.249999X0.450001X-0.325001X0.450001X0.325001X-0.450001X0.325001X-0.450001X-0.325001X0*%
%ADD14RoundRect,0.150000X0.587500X0.150000X-0.587500X0.150000X-0.587500X-0.150000X0.587500X-0.150000X0*%
%ADD15RoundRect,0.250000X-0.475000X0.337500X-0.475000X-0.337500X0.475000X-0.337500X0.475000X0.337500X0*%
%ADD16RoundRect,0.218750X0.218750X0.381250X-0.218750X0.381250X-0.218750X-0.381250X0.218750X-0.381250X0*%
%ADD17RoundRect,0.237500X-0.300000X-0.237500X0.300000X-0.237500X0.300000X0.237500X-0.300000X0.237500X0*%
%ADD18RoundRect,0.250000X0.450000X-0.350000X0.450000X0.350000X-0.450000X0.350000X-0.450000X-0.350000X0*%
%ADD19RoundRect,0.218750X-0.381250X0.218750X-0.381250X-0.218750X0.381250X-0.218750X0.381250X0.218750X0*%
%ADD20RoundRect,0.218750X-0.218750X-0.381250X0.218750X-0.381250X0.218750X0.381250X-0.218750X0.381250X0*%
%ADD21RoundRect,0.237500X-0.237500X0.300000X-0.237500X-0.300000X0.237500X-0.300000X0.237500X0.300000X0*%
%ADD22RoundRect,0.150000X-0.150000X0.587500X-0.150000X-0.587500X0.150000X-0.587500X0.150000X0.587500X0*%
%ADD23RoundRect,0.100000X0.100000X-0.637500X0.100000X0.637500X-0.100000X0.637500X-0.100000X-0.637500X0*%
%ADD24RoundRect,0.250000X0.337500X0.475000X-0.337500X0.475000X-0.337500X-0.475000X0.337500X-0.475000X0*%
%ADD25R,4.200000X1.350000*%
%ADD26R,3.600000X1.270000*%
%ADD27RoundRect,0.250000X0.350000X0.450000X-0.350000X0.450000X-0.350000X-0.450000X0.350000X-0.450000X0*%
%ADD28RoundRect,0.250000X-0.350000X-0.450000X0.350000X-0.450000X0.350000X0.450000X-0.350000X0.450000X0*%
%ADD29RoundRect,0.150000X-0.150000X0.512500X-0.150000X-0.512500X0.150000X-0.512500X0.150000X0.512500X0*%
%ADD30RoundRect,0.250000X-0.450000X0.350000X-0.450000X-0.350000X0.450000X-0.350000X0.450000X0.350000X0*%
%ADD31RoundRect,0.237500X0.300000X0.237500X-0.300000X0.237500X-0.300000X-0.237500X0.300000X-0.237500X0*%
%ADD32RoundRect,0.250000X-0.337500X-0.475000X0.337500X-0.475000X0.337500X0.475000X-0.337500X0.475000X0*%
%ADD33R,1.000000X0.700000*%
%ADD34RoundRect,0.237500X0.237500X-0.300000X0.237500X0.300000X-0.237500X0.300000X-0.237500X-0.300000X0*%
%ADD35RoundRect,0.250000X0.475000X-0.337500X0.475000X0.337500X-0.475000X0.337500X-0.475000X-0.337500X0*%
%ADD36RoundRect,0.250000X-1.750000X-1.000000X1.750000X-1.000000X1.750000X1.000000X-1.750000X1.000000X0*%
%ADD37RoundRect,0.150000X0.150000X-0.512500X0.150000X0.512500X-0.150000X0.512500X-0.150000X-0.512500X0*%
%ADD38R,1.950000X1.650000*%
%ADD39RoundRect,0.150000X-0.512500X-0.150000X0.512500X-0.150000X0.512500X0.150000X-0.512500X0.150000X0*%
%ADD40RoundRect,0.218750X0.381250X-0.218750X0.381250X0.218750X-0.381250X0.218750X-0.381250X-0.218750X0*%
%ADD41RoundRect,0.250000X1.750000X1.000000X-1.750000X1.000000X-1.750000X-1.000000X1.750000X-1.000000X0*%
G04 APERTURE END LIST*
D10*
X100225000Y-81200000D03*
X98175000Y-81200000D03*
D11*
X98062500Y-85000000D03*
X99937500Y-85000000D03*
D12*
X138750000Y-79000000D03*
X133250000Y-79000000D03*
D13*
X158000000Y-68025000D03*
X158000000Y-65975000D03*
X160000000Y-68025000D03*
X160000000Y-65975000D03*
X162000000Y-68025000D03*
X162000000Y-65975000D03*
X164000000Y-68025000D03*
X164000000Y-65975000D03*
D14*
X154937500Y-84950000D03*
X154937500Y-83050000D03*
X153062500Y-84000000D03*
D15*
X141000000Y-84962500D03*
X141000000Y-87037500D03*
X158800000Y-83162500D03*
X158800000Y-85237500D03*
D16*
X180462500Y-98400000D03*
X178337500Y-98400000D03*
D17*
X183675000Y-83200000D03*
X185400000Y-83200000D03*
D18*
X187000000Y-92800000D03*
X187000000Y-90800000D03*
D17*
X183337500Y-72600000D03*
X185062500Y-72600000D03*
D19*
X181800000Y-74737500D03*
X181800000Y-76862500D03*
D20*
X191937500Y-112000000D03*
X194062500Y-112000000D03*
D21*
X194000000Y-74537500D03*
X194000000Y-76262500D03*
D22*
X197750000Y-87262500D03*
X195850000Y-87262500D03*
X196800000Y-89137500D03*
D18*
X183200000Y-92800000D03*
X183200000Y-90800000D03*
D23*
X114725000Y-126862500D03*
X115375000Y-126862500D03*
X116025000Y-126862500D03*
X116675000Y-126862500D03*
X117325000Y-126862500D03*
X117975000Y-126862500D03*
X118625000Y-126862500D03*
X119275000Y-126862500D03*
X119275000Y-121137500D03*
X118625000Y-121137500D03*
X117975000Y-121137500D03*
X117325000Y-121137500D03*
X116675000Y-121137500D03*
X116025000Y-121137500D03*
X115375000Y-121137500D03*
X114725000Y-121137500D03*
D24*
X195837500Y-84800000D03*
X193762500Y-84800000D03*
D18*
X129000000Y-123200000D03*
X129000000Y-121200000D03*
D25*
X206337500Y-71550000D03*
D26*
X206537500Y-69000000D03*
D25*
X206337500Y-66450000D03*
D27*
X189400000Y-74800000D03*
X187400000Y-74800000D03*
D15*
X200100000Y-89962500D03*
X200100000Y-92037500D03*
D28*
X190800000Y-104400000D03*
X192800000Y-104400000D03*
D29*
X196150000Y-91462500D03*
X195200000Y-91462500D03*
X194250000Y-91462500D03*
X194250000Y-93737500D03*
X196150000Y-93737500D03*
D15*
X172000000Y-103962500D03*
X172000000Y-106037500D03*
D28*
X191000000Y-100800000D03*
X193000000Y-100800000D03*
D30*
X117000000Y-115000000D03*
X117000000Y-117000000D03*
D31*
X191862500Y-114000000D03*
X190137500Y-114000000D03*
D30*
X109000000Y-115000000D03*
X109000000Y-117000000D03*
D27*
X123400000Y-124200000D03*
X121400000Y-124200000D03*
D32*
X170962500Y-98000000D03*
X173037500Y-98000000D03*
D33*
X115000000Y-116950000D03*
X115000000Y-116000000D03*
X115000000Y-115050000D03*
X112600000Y-115050000D03*
X112600000Y-116950000D03*
D28*
X189800000Y-72200000D03*
X191800000Y-72200000D03*
D34*
X192200000Y-97262500D03*
X192200000Y-95537500D03*
D30*
X107000000Y-115000000D03*
X107000000Y-117000000D03*
D15*
X198600000Y-122600000D03*
X198600000Y-124675000D03*
D31*
X194862500Y-82800000D03*
X193137500Y-82800000D03*
D32*
X196962500Y-116400000D03*
X199037500Y-116400000D03*
D17*
X192537500Y-109000000D03*
X194262500Y-109000000D03*
X198537500Y-97200000D03*
X200262500Y-97200000D03*
D22*
X198950000Y-118462500D03*
X197050000Y-118462500D03*
X198000000Y-120337500D03*
D30*
X121000000Y-115000000D03*
X121000000Y-117000000D03*
D27*
X123400000Y-121600000D03*
X121400000Y-121600000D03*
D31*
X180262500Y-101400000D03*
X178537500Y-101400000D03*
X112262500Y-113200000D03*
X110537500Y-113200000D03*
D27*
X123400000Y-126600000D03*
X121400000Y-126600000D03*
D22*
X172950000Y-100062500D03*
X171050000Y-100062500D03*
X172000000Y-101937500D03*
D15*
X183200000Y-96162500D03*
X183200000Y-98237500D03*
D35*
X179800000Y-92837500D03*
X179800000Y-90762500D03*
D20*
X179337500Y-83200000D03*
X181462500Y-83200000D03*
D28*
X195400000Y-104400000D03*
X197400000Y-104400000D03*
D36*
X105000000Y-81000000D03*
X113000000Y-81000000D03*
D25*
X206337500Y-118550000D03*
D26*
X206537500Y-116000000D03*
D25*
X206337500Y-113450000D03*
D28*
X194200000Y-72200000D03*
X196200000Y-72200000D03*
D31*
X112862500Y-121000000D03*
X111137500Y-121000000D03*
D37*
X185250000Y-81137500D03*
X186200000Y-81137500D03*
X187150000Y-81137500D03*
X187150000Y-78862500D03*
X185250000Y-78862500D03*
D38*
X180400000Y-107700000D03*
X183150000Y-107700000D03*
X183150000Y-105500000D03*
X180400000Y-105500000D03*
D27*
X190700000Y-87000000D03*
X188700000Y-87000000D03*
D25*
X206337500Y-86550000D03*
D26*
X206537500Y-84000000D03*
D25*
X206337500Y-81450000D03*
D39*
X181062500Y-85050000D03*
X181062500Y-86000000D03*
X181062500Y-86950000D03*
X183337500Y-86950000D03*
X183337500Y-85050000D03*
D40*
X194000000Y-80462500D03*
X194000000Y-78337500D03*
D20*
X194137500Y-97200000D03*
X196262500Y-97200000D03*
D41*
X127000000Y-79000000D03*
X119000000Y-79000000D03*
D25*
X206337500Y-102550000D03*
D26*
X206537500Y-100000000D03*
D25*
X206337500Y-97450000D03*
D34*
X185200000Y-76462500D03*
X185200000Y-74737500D03*
M02*
