G04 #@! TF.GenerationSoftware,KiCad,Pcbnew,6.0.2-378541a8eb~116~ubuntu20.04.1*
G04 #@! TF.CreationDate,2022-04-19T13:42:03-07:00*
G04 #@! TF.ProjectId,vfo-control-mcu,76666f2d-636f-46e7-9472-6f6c2d6d6375,rev?*
G04 #@! TF.SameCoordinates,Original*
G04 #@! TF.FileFunction,Legend,Top*
G04 #@! TF.FilePolarity,Positive*
%FSLAX46Y46*%
G04 Gerber Fmt 4.6, Leading zero omitted, Abs format (unit mm)*
G04 Created by KiCad (PCBNEW 6.0.2-378541a8eb~116~ubuntu20.04.1) date 2022-04-19 13:42:03*
%MOMM*%
%LPD*%
G01*
G04 APERTURE LIST*
G04 Aperture macros list*
%AMRoundRect*
0 Rectangle with rounded corners*
0 $1 Rounding radius*
0 $2 $3 $4 $5 $6 $7 $8 $9 X,Y pos of 4 corners*
0 Add a 4 corners polygon primitive as box body*
4,1,4,$2,$3,$4,$5,$6,$7,$8,$9,$2,$3,0*
0 Add four circle primitives for the rounded corners*
1,1,$1+$1,$2,$3*
1,1,$1+$1,$4,$5*
1,1,$1+$1,$6,$7*
1,1,$1+$1,$8,$9*
0 Add four rect primitives between the rounded corners*
20,1,$1+$1,$2,$3,$4,$5,0*
20,1,$1+$1,$4,$5,$6,$7,0*
20,1,$1+$1,$6,$7,$8,$9,0*
20,1,$1+$1,$8,$9,$2,$3,0*%
G04 Aperture macros list end*
%ADD10C,0.120000*%
%ADD11C,0.150000*%
%ADD12C,0.152400*%
%ADD13C,0.175000*%
%ADD14C,0.127000*%
%ADD15R,2.100000X1.400000*%
%ADD16O,2.100000X1.400000*%
%ADD17R,1.400000X2.100000*%
%ADD18O,1.400000X2.100000*%
%ADD19RoundRect,0.249999X0.325001X0.450001X-0.325001X0.450001X-0.325001X-0.450001X0.325001X-0.450001X0*%
%ADD20RoundRect,0.243750X-0.243750X-0.456250X0.243750X-0.456250X0.243750X0.456250X-0.243750X0.456250X0*%
%ADD21R,2.500000X7.500000*%
%ADD22C,6.400000*%
%ADD23C,0.800000*%
%ADD24RoundRect,0.249999X0.450001X-0.325001X0.450001X0.325001X-0.450001X0.325001X-0.450001X-0.325001X0*%
%ADD25R,1.600000X1.600000*%
%ADD26C,1.600000*%
%ADD27R,2.300000X1.500000*%
%ADD28O,2.300000X1.500000*%
%ADD29RoundRect,0.150000X0.587500X0.150000X-0.587500X0.150000X-0.587500X-0.150000X0.587500X-0.150000X0*%
%ADD30RoundRect,0.250000X-0.475000X0.337500X-0.475000X-0.337500X0.475000X-0.337500X0.475000X0.337500X0*%
%ADD31RoundRect,0.218750X0.218750X0.381250X-0.218750X0.381250X-0.218750X-0.381250X0.218750X-0.381250X0*%
%ADD32RoundRect,0.237500X-0.300000X-0.237500X0.300000X-0.237500X0.300000X0.237500X-0.300000X0.237500X0*%
%ADD33RoundRect,0.250000X0.450000X-0.350000X0.450000X0.350000X-0.450000X0.350000X-0.450000X-0.350000X0*%
%ADD34RoundRect,0.218750X-0.381250X0.218750X-0.381250X-0.218750X0.381250X-0.218750X0.381250X0.218750X0*%
%ADD35RoundRect,0.218750X-0.218750X-0.381250X0.218750X-0.381250X0.218750X0.381250X-0.218750X0.381250X0*%
%ADD36RoundRect,0.237500X-0.237500X0.300000X-0.237500X-0.300000X0.237500X-0.300000X0.237500X0.300000X0*%
%ADD37RoundRect,0.150000X-0.150000X0.587500X-0.150000X-0.587500X0.150000X-0.587500X0.150000X0.587500X0*%
%ADD38RoundRect,0.100000X0.100000X-0.637500X0.100000X0.637500X-0.100000X0.637500X-0.100000X-0.637500X0*%
%ADD39RoundRect,0.250000X0.337500X0.475000X-0.337500X0.475000X-0.337500X-0.475000X0.337500X-0.475000X0*%
%ADD40R,4.200000X1.350000*%
%ADD41R,3.600000X1.270000*%
%ADD42RoundRect,0.250000X0.350000X0.450000X-0.350000X0.450000X-0.350000X-0.450000X0.350000X-0.450000X0*%
%ADD43RoundRect,0.250000X-0.350000X-0.450000X0.350000X-0.450000X0.350000X0.450000X-0.350000X0.450000X0*%
%ADD44RoundRect,0.150000X-0.150000X0.512500X-0.150000X-0.512500X0.150000X-0.512500X0.150000X0.512500X0*%
%ADD45RoundRect,0.250000X-0.450000X0.350000X-0.450000X-0.350000X0.450000X-0.350000X0.450000X0.350000X0*%
%ADD46RoundRect,0.237500X0.300000X0.237500X-0.300000X0.237500X-0.300000X-0.237500X0.300000X-0.237500X0*%
%ADD47RoundRect,0.250000X-0.337500X-0.475000X0.337500X-0.475000X0.337500X0.475000X-0.337500X0.475000X0*%
%ADD48R,1.000000X0.700000*%
%ADD49RoundRect,0.237500X0.237500X-0.300000X0.237500X0.300000X-0.237500X0.300000X-0.237500X-0.300000X0*%
%ADD50RoundRect,0.250000X0.475000X-0.337500X0.475000X0.337500X-0.475000X0.337500X-0.475000X-0.337500X0*%
%ADD51RoundRect,0.250000X-1.750000X-1.000000X1.750000X-1.000000X1.750000X1.000000X-1.750000X1.000000X0*%
%ADD52RoundRect,0.150000X0.150000X-0.512500X0.150000X0.512500X-0.150000X0.512500X-0.150000X-0.512500X0*%
%ADD53R,1.950000X1.650000*%
%ADD54RoundRect,0.150000X-0.512500X-0.150000X0.512500X-0.150000X0.512500X0.150000X-0.512500X0.150000X0*%
%ADD55RoundRect,0.218750X0.381250X-0.218750X0.381250X0.218750X-0.381250X0.218750X-0.381250X-0.218750X0*%
%ADD56RoundRect,0.250000X1.750000X1.000000X-1.750000X1.000000X-1.750000X-1.000000X1.750000X-1.000000X0*%
%ADD57C,2.700000*%
G04 APERTURE END LIST*
D10*
X178900000Y-123500000D02*
X184000000Y-123500000D01*
X184000000Y-123500000D02*
X184000000Y-126500000D01*
X184000000Y-126500000D02*
X178900000Y-126500000D01*
X178900000Y-126500000D02*
X178900000Y-123500000D01*
X132500000Y-123500000D02*
X148100000Y-123500000D01*
X148100000Y-123500000D02*
X148100000Y-126500000D01*
X148100000Y-126500000D02*
X132500000Y-126500000D01*
X132500000Y-126500000D02*
X132500000Y-123500000D01*
D11*
X113633333Y-100404761D02*
X113776190Y-100452380D01*
X114014285Y-100452380D01*
X114109523Y-100404761D01*
X114157142Y-100357142D01*
X114204761Y-100261904D01*
X114204761Y-100166666D01*
X114157142Y-100071428D01*
X114109523Y-100023809D01*
X114014285Y-99976190D01*
X113823809Y-99928571D01*
X113728571Y-99880952D01*
X113680952Y-99833333D01*
X113633333Y-99738095D01*
X113633333Y-99642857D01*
X113680952Y-99547619D01*
X113728571Y-99500000D01*
X113823809Y-99452380D01*
X114061904Y-99452380D01*
X114204761Y-99500000D01*
X114490476Y-99452380D02*
X115061904Y-99452380D01*
X114776190Y-100452380D02*
X114776190Y-99452380D01*
X115395238Y-100452380D02*
X115395238Y-99452380D01*
X115728571Y-100166666D01*
X116061904Y-99452380D01*
X116061904Y-100452380D01*
X116442857Y-99452380D02*
X117061904Y-99452380D01*
X116728571Y-99833333D01*
X116871428Y-99833333D01*
X116966666Y-99880952D01*
X117014285Y-99928571D01*
X117061904Y-100023809D01*
X117061904Y-100261904D01*
X117014285Y-100357142D01*
X116966666Y-100404761D01*
X116871428Y-100452380D01*
X116585714Y-100452380D01*
X116490476Y-100404761D01*
X116442857Y-100357142D01*
X117442857Y-99547619D02*
X117490476Y-99500000D01*
X117585714Y-99452380D01*
X117823809Y-99452380D01*
X117919047Y-99500000D01*
X117966666Y-99547619D01*
X118014285Y-99642857D01*
X118014285Y-99738095D01*
X117966666Y-99880952D01*
X117395238Y-100452380D01*
X118014285Y-100452380D01*
X118776190Y-99928571D02*
X118442857Y-99928571D01*
X118442857Y-100452380D02*
X118442857Y-99452380D01*
X118919047Y-99452380D01*
X119728571Y-99785714D02*
X119728571Y-100452380D01*
X119490476Y-99404761D02*
X119252380Y-100119047D01*
X119871428Y-100119047D01*
X120776190Y-100452380D02*
X120204761Y-100452380D01*
X120490476Y-100452380D02*
X120490476Y-99452380D01*
X120395238Y-99595238D01*
X120299999Y-99690476D01*
X120204761Y-99738095D01*
X121728571Y-100452380D02*
X121157142Y-100452380D01*
X121442857Y-100452380D02*
X121442857Y-99452380D01*
X121347619Y-99595238D01*
X121252380Y-99690476D01*
X121157142Y-99738095D01*
X122728571Y-100357142D02*
X122680952Y-100404761D01*
X122538095Y-100452380D01*
X122442857Y-100452380D01*
X122299999Y-100404761D01*
X122204761Y-100309523D01*
X122157142Y-100214285D01*
X122109523Y-100023809D01*
X122109523Y-99880952D01*
X122157142Y-99690476D01*
X122204761Y-99595238D01*
X122299999Y-99500000D01*
X122442857Y-99452380D01*
X122538095Y-99452380D01*
X122680952Y-99500000D01*
X122728571Y-99547619D01*
X123157142Y-99928571D02*
X123490476Y-99928571D01*
X123633333Y-100452380D02*
X123157142Y-100452380D01*
X123157142Y-99452380D01*
X123633333Y-99452380D01*
X124061904Y-99452380D02*
X124061904Y-100261904D01*
X124109523Y-100357142D01*
X124157142Y-100404761D01*
X124252380Y-100452380D01*
X124442857Y-100452380D01*
X124538095Y-100404761D01*
X124585714Y-100357142D01*
X124633333Y-100261904D01*
X124633333Y-99452380D01*
X126204761Y-99928571D02*
X126347619Y-99976190D01*
X126395238Y-100023809D01*
X126442857Y-100119047D01*
X126442857Y-100261904D01*
X126395238Y-100357142D01*
X126347619Y-100404761D01*
X126252380Y-100452380D01*
X125871428Y-100452380D01*
X125871428Y-99452380D01*
X126204761Y-99452380D01*
X126299999Y-99500000D01*
X126347619Y-99547619D01*
X126395238Y-99642857D01*
X126395238Y-99738095D01*
X126347619Y-99833333D01*
X126299999Y-99880952D01*
X126204761Y-99928571D01*
X125871428Y-99928571D01*
X127347619Y-100452380D02*
X126871428Y-100452380D01*
X126871428Y-99452380D01*
X127633333Y-100166666D02*
X128109523Y-100166666D01*
X127538095Y-100452380D02*
X127871428Y-99452380D01*
X128204761Y-100452380D01*
X129109523Y-100357142D02*
X129061904Y-100404761D01*
X128919047Y-100452380D01*
X128823809Y-100452380D01*
X128680952Y-100404761D01*
X128585714Y-100309523D01*
X128538095Y-100214285D01*
X128490476Y-100023809D01*
X128490476Y-99880952D01*
X128538095Y-99690476D01*
X128585714Y-99595238D01*
X128680952Y-99500000D01*
X128823809Y-99452380D01*
X128919047Y-99452380D01*
X129061904Y-99500000D01*
X129109523Y-99547619D01*
X129538095Y-100452380D02*
X129538095Y-99452380D01*
X130109523Y-100452380D02*
X129680952Y-99880952D01*
X130109523Y-99452380D02*
X129538095Y-100023809D01*
X131299999Y-100452380D02*
X131299999Y-99452380D01*
X131680952Y-99452380D01*
X131776190Y-99500000D01*
X131823809Y-99547619D01*
X131871428Y-99642857D01*
X131871428Y-99785714D01*
X131823809Y-99880952D01*
X131776190Y-99928571D01*
X131680952Y-99976190D01*
X131299999Y-99976190D01*
X132299999Y-100452380D02*
X132299999Y-99452380D01*
X133252380Y-100452380D02*
X132776190Y-100452380D01*
X132776190Y-99452380D01*
X134061904Y-100452380D02*
X133585714Y-100452380D01*
X133585714Y-99452380D01*
X111414285Y-56052380D02*
X111985714Y-56052380D01*
X111700000Y-57052380D02*
X111700000Y-56052380D01*
X112319047Y-56052380D02*
X112319047Y-56861904D01*
X112366666Y-56957142D01*
X112414285Y-57004761D01*
X112509523Y-57052380D01*
X112700000Y-57052380D01*
X112795238Y-57004761D01*
X112842857Y-56957142D01*
X112890476Y-56861904D01*
X112890476Y-56052380D01*
X113366666Y-57052380D02*
X113366666Y-56052380D01*
X113938095Y-57052380D01*
X113938095Y-56052380D01*
X114414285Y-56528571D02*
X114747619Y-56528571D01*
X114890476Y-57052380D02*
X114414285Y-57052380D01*
X114414285Y-56052380D01*
X114890476Y-56052380D01*
X162828571Y-57252380D02*
X162828571Y-56252380D01*
X163400000Y-57252380D02*
X162971428Y-56680952D01*
X163400000Y-56252380D02*
X162828571Y-56823809D01*
X163828571Y-56728571D02*
X164161904Y-56728571D01*
X164304761Y-57252380D02*
X163828571Y-57252380D01*
X163828571Y-56252380D01*
X164304761Y-56252380D01*
X164923809Y-56776190D02*
X164923809Y-57252380D01*
X164590476Y-56252380D02*
X164923809Y-56776190D01*
X165257142Y-56252380D01*
X165590476Y-57252380D02*
X165590476Y-56252380D01*
X165971428Y-56252380D01*
X166066666Y-56300000D01*
X166114285Y-56347619D01*
X166161904Y-56442857D01*
X166161904Y-56585714D01*
X166114285Y-56680952D01*
X166066666Y-56728571D01*
X165971428Y-56776190D01*
X165590476Y-56776190D01*
X166542857Y-56966666D02*
X167019047Y-56966666D01*
X166447619Y-57252380D02*
X166780952Y-56252380D01*
X167114285Y-57252380D01*
X167447619Y-57252380D02*
X167447619Y-56252380D01*
X167685714Y-56252380D01*
X167828571Y-56300000D01*
X167923809Y-56395238D01*
X167971428Y-56490476D01*
X168019047Y-56680952D01*
X168019047Y-56823809D01*
X167971428Y-57014285D01*
X167923809Y-57109523D01*
X167828571Y-57204761D01*
X167685714Y-57252380D01*
X167447619Y-57252380D01*
X102790476Y-64928571D02*
X102457142Y-64928571D01*
X102457142Y-65452380D02*
X102457142Y-64452380D01*
X102933333Y-64452380D01*
X103266666Y-65166666D02*
X103742857Y-65166666D01*
X103171428Y-65452380D02*
X103504761Y-64452380D01*
X103838095Y-65452380D01*
X104171428Y-65452380D02*
X104171428Y-64452380D01*
X104742857Y-65452380D01*
X104742857Y-64452380D01*
X139690476Y-57004761D02*
X139833333Y-57052380D01*
X140071428Y-57052380D01*
X140166666Y-57004761D01*
X140214285Y-56957142D01*
X140261904Y-56861904D01*
X140261904Y-56766666D01*
X140214285Y-56671428D01*
X140166666Y-56623809D01*
X140071428Y-56576190D01*
X139880952Y-56528571D01*
X139785714Y-56480952D01*
X139738095Y-56433333D01*
X139690476Y-56338095D01*
X139690476Y-56242857D01*
X139738095Y-56147619D01*
X139785714Y-56100000D01*
X139880952Y-56052380D01*
X140119047Y-56052380D01*
X140261904Y-56100000D01*
X140690476Y-56528571D02*
X141023809Y-56528571D01*
X141166666Y-57052380D02*
X140690476Y-57052380D01*
X140690476Y-56052380D01*
X141166666Y-56052380D01*
X142166666Y-57052380D02*
X141833333Y-56576190D01*
X141595238Y-57052380D02*
X141595238Y-56052380D01*
X141976190Y-56052380D01*
X142071428Y-56100000D01*
X142119047Y-56147619D01*
X142166666Y-56242857D01*
X142166666Y-56385714D01*
X142119047Y-56480952D01*
X142071428Y-56528571D01*
X141976190Y-56576190D01*
X141595238Y-56576190D01*
X142595238Y-57052380D02*
X142595238Y-56052380D01*
X143023809Y-56766666D02*
X143500000Y-56766666D01*
X142928571Y-57052380D02*
X143261904Y-56052380D01*
X143595238Y-57052380D01*
X144404761Y-57052380D02*
X143928571Y-57052380D01*
X143928571Y-56052380D01*
X180038095Y-57004761D02*
X180180952Y-57052380D01*
X180419047Y-57052380D01*
X180514285Y-57004761D01*
X180561904Y-56957142D01*
X180609523Y-56861904D01*
X180609523Y-56766666D01*
X180561904Y-56671428D01*
X180514285Y-56623809D01*
X180419047Y-56576190D01*
X180228571Y-56528571D01*
X180133333Y-56480952D01*
X180085714Y-56433333D01*
X180038095Y-56338095D01*
X180038095Y-56242857D01*
X180085714Y-56147619D01*
X180133333Y-56100000D01*
X180228571Y-56052380D01*
X180466666Y-56052380D01*
X180609523Y-56100000D01*
X181038095Y-56671428D02*
X181800000Y-56671428D01*
X182276190Y-57052380D02*
X182276190Y-56052380D01*
X182609523Y-56766666D01*
X182942857Y-56052380D01*
X182942857Y-57052380D01*
X183419047Y-56528571D02*
X183752380Y-56528571D01*
X183895238Y-57052380D02*
X183419047Y-57052380D01*
X183419047Y-56052380D01*
X183895238Y-56052380D01*
X184180952Y-56052380D02*
X184752380Y-56052380D01*
X184466666Y-57052380D02*
X184466666Y-56052380D01*
X185085714Y-56528571D02*
X185419047Y-56528571D01*
X185561904Y-57052380D02*
X185085714Y-57052380D01*
X185085714Y-56052380D01*
X185561904Y-56052380D01*
X186561904Y-57052380D02*
X186228571Y-56576190D01*
X185990476Y-57052380D02*
X185990476Y-56052380D01*
X186371428Y-56052380D01*
X186466666Y-56100000D01*
X186514285Y-56147619D01*
X186561904Y-56242857D01*
X186561904Y-56385714D01*
X186514285Y-56480952D01*
X186466666Y-56528571D01*
X186371428Y-56576190D01*
X185990476Y-56576190D01*
X158385714Y-74528571D02*
X158719047Y-74528571D01*
X158861904Y-75052380D02*
X158385714Y-75052380D01*
X158385714Y-74052380D01*
X158861904Y-74052380D01*
X159290476Y-75052380D02*
X159290476Y-74052380D01*
X159861904Y-75052380D01*
X159861904Y-74052380D01*
X160909523Y-74957142D02*
X160861904Y-75004761D01*
X160719047Y-75052380D01*
X160623809Y-75052380D01*
X160480952Y-75004761D01*
X160385714Y-74909523D01*
X160338095Y-74814285D01*
X160290476Y-74623809D01*
X160290476Y-74480952D01*
X160338095Y-74290476D01*
X160385714Y-74195238D01*
X160480952Y-74100000D01*
X160623809Y-74052380D01*
X160719047Y-74052380D01*
X160861904Y-74100000D01*
X160909523Y-74147619D01*
X161528571Y-74052380D02*
X161719047Y-74052380D01*
X161814285Y-74100000D01*
X161909523Y-74195238D01*
X161957142Y-74385714D01*
X161957142Y-74719047D01*
X161909523Y-74909523D01*
X161814285Y-75004761D01*
X161719047Y-75052380D01*
X161528571Y-75052380D01*
X161433333Y-75004761D01*
X161338095Y-74909523D01*
X161290476Y-74719047D01*
X161290476Y-74385714D01*
X161338095Y-74195238D01*
X161433333Y-74100000D01*
X161528571Y-74052380D01*
X162385714Y-75052380D02*
X162385714Y-74052380D01*
X162623809Y-74052380D01*
X162766666Y-74100000D01*
X162861904Y-74195238D01*
X162909523Y-74290476D01*
X162957142Y-74480952D01*
X162957142Y-74623809D01*
X162909523Y-74814285D01*
X162861904Y-74909523D01*
X162766666Y-75004761D01*
X162623809Y-75052380D01*
X162385714Y-75052380D01*
X163385714Y-74528571D02*
X163719047Y-74528571D01*
X163861904Y-75052380D02*
X163385714Y-75052380D01*
X163385714Y-74052380D01*
X163861904Y-74052380D01*
X164861904Y-75052380D02*
X164528571Y-74576190D01*
X164290476Y-75052380D02*
X164290476Y-74052380D01*
X164671428Y-74052380D01*
X164766666Y-74100000D01*
X164814285Y-74147619D01*
X164861904Y-74242857D01*
X164861904Y-74385714D01*
X164814285Y-74480952D01*
X164766666Y-74528571D01*
X164671428Y-74576190D01*
X164290476Y-74576190D01*
X122976190Y-57052380D02*
X122976190Y-56052380D01*
X123357142Y-56052380D01*
X123452380Y-56100000D01*
X123500000Y-56147619D01*
X123547619Y-56242857D01*
X123547619Y-56385714D01*
X123500000Y-56480952D01*
X123452380Y-56528571D01*
X123357142Y-56576190D01*
X122976190Y-56576190D01*
X123833333Y-56052380D02*
X124404761Y-56052380D01*
X124119047Y-57052380D02*
X124119047Y-56052380D01*
X124595238Y-56052380D02*
X125166666Y-56052380D01*
X124880952Y-57052380D02*
X124880952Y-56052380D01*
X148690476Y-115037380D02*
X149023809Y-116037380D01*
X149357142Y-115037380D01*
X150023809Y-115513571D02*
X149690476Y-115513571D01*
X149690476Y-116037380D02*
X149690476Y-115037380D01*
X150166666Y-115037380D01*
X150738095Y-115037380D02*
X150928571Y-115037380D01*
X151023809Y-115085000D01*
X151119047Y-115180238D01*
X151166666Y-115370714D01*
X151166666Y-115704047D01*
X151119047Y-115894523D01*
X151023809Y-115989761D01*
X150928571Y-116037380D01*
X150738095Y-116037380D01*
X150642857Y-115989761D01*
X150547619Y-115894523D01*
X150500000Y-115704047D01*
X150500000Y-115370714D01*
X150547619Y-115180238D01*
X150642857Y-115085000D01*
X150738095Y-115037380D01*
X152357142Y-116037380D02*
X152357142Y-115037380D01*
X152690476Y-115751666D01*
X153023809Y-115037380D01*
X153023809Y-116037380D01*
X153690476Y-115037380D02*
X153880952Y-115037380D01*
X153976190Y-115085000D01*
X154071428Y-115180238D01*
X154119047Y-115370714D01*
X154119047Y-115704047D01*
X154071428Y-115894523D01*
X153976190Y-115989761D01*
X153880952Y-116037380D01*
X153690476Y-116037380D01*
X153595238Y-115989761D01*
X153500000Y-115894523D01*
X153452380Y-115704047D01*
X153452380Y-115370714D01*
X153500000Y-115180238D01*
X153595238Y-115085000D01*
X153690476Y-115037380D01*
X154404761Y-115037380D02*
X154976190Y-115037380D01*
X154690476Y-116037380D02*
X154690476Y-115037380D01*
X155309523Y-116037380D02*
X155309523Y-115037380D01*
X155309523Y-115513571D02*
X155880952Y-115513571D01*
X155880952Y-116037380D02*
X155880952Y-115037380D01*
X156357142Y-115513571D02*
X156690476Y-115513571D01*
X156833333Y-116037380D02*
X156357142Y-116037380D01*
X156357142Y-115037380D01*
X156833333Y-115037380D01*
X157833333Y-116037380D02*
X157500000Y-115561190D01*
X157261904Y-116037380D02*
X157261904Y-115037380D01*
X157642857Y-115037380D01*
X157738095Y-115085000D01*
X157785714Y-115132619D01*
X157833333Y-115227857D01*
X157833333Y-115370714D01*
X157785714Y-115465952D01*
X157738095Y-115513571D01*
X157642857Y-115561190D01*
X157261904Y-115561190D01*
X158595238Y-115513571D02*
X158738095Y-115561190D01*
X158785714Y-115608809D01*
X158833333Y-115704047D01*
X158833333Y-115846904D01*
X158785714Y-115942142D01*
X158738095Y-115989761D01*
X158642857Y-116037380D01*
X158261904Y-116037380D01*
X158261904Y-115037380D01*
X158595238Y-115037380D01*
X158690476Y-115085000D01*
X158738095Y-115132619D01*
X158785714Y-115227857D01*
X158785714Y-115323095D01*
X158738095Y-115418333D01*
X158690476Y-115465952D01*
X158595238Y-115513571D01*
X158261904Y-115513571D01*
X159452380Y-115037380D02*
X159642857Y-115037380D01*
X159738095Y-115085000D01*
X159833333Y-115180238D01*
X159880952Y-115370714D01*
X159880952Y-115704047D01*
X159833333Y-115894523D01*
X159738095Y-115989761D01*
X159642857Y-116037380D01*
X159452380Y-116037380D01*
X159357142Y-115989761D01*
X159261904Y-115894523D01*
X159214285Y-115704047D01*
X159214285Y-115370714D01*
X159261904Y-115180238D01*
X159357142Y-115085000D01*
X159452380Y-115037380D01*
X160261904Y-115751666D02*
X160738095Y-115751666D01*
X160166666Y-116037380D02*
X160500000Y-115037380D01*
X160833333Y-116037380D01*
X161738095Y-116037380D02*
X161404761Y-115561190D01*
X161166666Y-116037380D02*
X161166666Y-115037380D01*
X161547619Y-115037380D01*
X161642857Y-115085000D01*
X161690476Y-115132619D01*
X161738095Y-115227857D01*
X161738095Y-115370714D01*
X161690476Y-115465952D01*
X161642857Y-115513571D01*
X161547619Y-115561190D01*
X161166666Y-115561190D01*
X162166666Y-116037380D02*
X162166666Y-115037380D01*
X162404761Y-115037380D01*
X162547619Y-115085000D01*
X162642857Y-115180238D01*
X162690476Y-115275476D01*
X162738095Y-115465952D01*
X162738095Y-115608809D01*
X162690476Y-115799285D01*
X162642857Y-115894523D01*
X162547619Y-115989761D01*
X162404761Y-116037380D01*
X162166666Y-116037380D01*
X163928571Y-116037380D02*
X163928571Y-115037380D01*
X164166666Y-115037380D01*
X164309523Y-115085000D01*
X164404761Y-115180238D01*
X164452380Y-115275476D01*
X164500000Y-115465952D01*
X164500000Y-115608809D01*
X164452380Y-115799285D01*
X164404761Y-115894523D01*
X164309523Y-115989761D01*
X164166666Y-116037380D01*
X163928571Y-116037380D01*
X164928571Y-115037380D02*
X164928571Y-115846904D01*
X164976190Y-115942142D01*
X165023809Y-115989761D01*
X165119047Y-116037380D01*
X165309523Y-116037380D01*
X165404761Y-115989761D01*
X165452380Y-115942142D01*
X165500000Y-115846904D01*
X165500000Y-115037380D01*
X165928571Y-115751666D02*
X166404761Y-115751666D01*
X165833333Y-116037380D02*
X166166666Y-115037380D01*
X166500000Y-116037380D01*
X167309523Y-116037380D02*
X166833333Y-116037380D01*
X166833333Y-115037380D01*
X168357142Y-115989761D02*
X168500000Y-116037380D01*
X168738095Y-116037380D01*
X168833333Y-115989761D01*
X168880952Y-115942142D01*
X168928571Y-115846904D01*
X168928571Y-115751666D01*
X168880952Y-115656428D01*
X168833333Y-115608809D01*
X168738095Y-115561190D01*
X168547619Y-115513571D01*
X168452380Y-115465952D01*
X168404761Y-115418333D01*
X168357142Y-115323095D01*
X168357142Y-115227857D01*
X168404761Y-115132619D01*
X168452380Y-115085000D01*
X168547619Y-115037380D01*
X168785714Y-115037380D01*
X168928571Y-115085000D01*
X169357142Y-116037380D02*
X169357142Y-115037380D01*
X170309523Y-115037380D02*
X169833333Y-115037380D01*
X169785714Y-115513571D01*
X169833333Y-115465952D01*
X169928571Y-115418333D01*
X170166666Y-115418333D01*
X170261904Y-115465952D01*
X170309523Y-115513571D01*
X170357142Y-115608809D01*
X170357142Y-115846904D01*
X170309523Y-115942142D01*
X170261904Y-115989761D01*
X170166666Y-116037380D01*
X169928571Y-116037380D01*
X169833333Y-115989761D01*
X169785714Y-115942142D01*
X170690476Y-115037380D02*
X171309523Y-115037380D01*
X170976190Y-115418333D01*
X171119047Y-115418333D01*
X171214285Y-115465952D01*
X171261904Y-115513571D01*
X171309523Y-115608809D01*
X171309523Y-115846904D01*
X171261904Y-115942142D01*
X171214285Y-115989761D01*
X171119047Y-116037380D01*
X170833333Y-116037380D01*
X170738095Y-115989761D01*
X170690476Y-115942142D01*
X172214285Y-115037380D02*
X171738095Y-115037380D01*
X171690476Y-115513571D01*
X171738095Y-115465952D01*
X171833333Y-115418333D01*
X172071428Y-115418333D01*
X172166666Y-115465952D01*
X172214285Y-115513571D01*
X172261904Y-115608809D01*
X172261904Y-115846904D01*
X172214285Y-115942142D01*
X172166666Y-115989761D01*
X172071428Y-116037380D01*
X171833333Y-116037380D01*
X171738095Y-115989761D01*
X171690476Y-115942142D01*
X173214285Y-116037380D02*
X172642857Y-116037380D01*
X172928571Y-116037380D02*
X172928571Y-115037380D01*
X172833333Y-115180238D01*
X172738095Y-115275476D01*
X172642857Y-115323095D01*
X159095238Y-117647380D02*
X158761904Y-117171190D01*
X158523809Y-117647380D02*
X158523809Y-116647380D01*
X158904761Y-116647380D01*
X159000000Y-116695000D01*
X159047619Y-116742619D01*
X159095238Y-116837857D01*
X159095238Y-116980714D01*
X159047619Y-117075952D01*
X159000000Y-117123571D01*
X158904761Y-117171190D01*
X158523809Y-117171190D01*
X159523809Y-117123571D02*
X159857142Y-117123571D01*
X160000000Y-117647380D02*
X159523809Y-117647380D01*
X159523809Y-116647380D01*
X160000000Y-116647380D01*
X160285714Y-116647380D02*
X160619047Y-117647380D01*
X160952380Y-116647380D01*
X161952380Y-116647380D02*
X162619047Y-117647380D01*
X162619047Y-116647380D02*
X161952380Y-117647380D01*
X162952380Y-116742619D02*
X163000000Y-116695000D01*
X163095238Y-116647380D01*
X163333333Y-116647380D01*
X163428571Y-116695000D01*
X163476190Y-116742619D01*
X163523809Y-116837857D01*
X163523809Y-116933095D01*
X163476190Y-117075952D01*
X162904761Y-117647380D01*
X163523809Y-117647380D01*
X158380952Y-118257380D02*
X158619047Y-119257380D01*
X158809523Y-118543095D01*
X159000000Y-119257380D01*
X159238095Y-118257380D01*
X159571428Y-118971666D02*
X160047619Y-118971666D01*
X159476190Y-119257380D02*
X159809523Y-118257380D01*
X160142857Y-119257380D01*
X160904761Y-118257380D02*
X160714285Y-118257380D01*
X160619047Y-118305000D01*
X160571428Y-118352619D01*
X160476190Y-118495476D01*
X160428571Y-118685952D01*
X160428571Y-119066904D01*
X160476190Y-119162142D01*
X160523809Y-119209761D01*
X160619047Y-119257380D01*
X160809523Y-119257380D01*
X160904761Y-119209761D01*
X160952380Y-119162142D01*
X161000000Y-119066904D01*
X161000000Y-118828809D01*
X160952380Y-118733571D01*
X160904761Y-118685952D01*
X160809523Y-118638333D01*
X160619047Y-118638333D01*
X160523809Y-118685952D01*
X160476190Y-118733571D01*
X160428571Y-118828809D01*
X161333333Y-118257380D02*
X162000000Y-118257380D01*
X161333333Y-119257380D01*
X162000000Y-119257380D01*
X162714285Y-118733571D02*
X162380952Y-118733571D01*
X162380952Y-119257380D02*
X162380952Y-118257380D01*
X162857142Y-118257380D01*
X163095238Y-118257380D02*
X163666666Y-118257380D01*
X163380952Y-119257380D02*
X163380952Y-118257380D01*
X147904761Y-120772142D02*
X147857142Y-120819761D01*
X147714285Y-120867380D01*
X147619047Y-120867380D01*
X147476190Y-120819761D01*
X147380952Y-120724523D01*
X147333333Y-120629285D01*
X147285714Y-120438809D01*
X147285714Y-120295952D01*
X147333333Y-120105476D01*
X147380952Y-120010238D01*
X147476190Y-119915000D01*
X147619047Y-119867380D01*
X147714285Y-119867380D01*
X147857142Y-119915000D01*
X147904761Y-119962619D01*
X148523809Y-119867380D02*
X148714285Y-119867380D01*
X148809523Y-119915000D01*
X148904761Y-120010238D01*
X148952380Y-120200714D01*
X148952380Y-120534047D01*
X148904761Y-120724523D01*
X148809523Y-120819761D01*
X148714285Y-120867380D01*
X148523809Y-120867380D01*
X148428571Y-120819761D01*
X148333333Y-120724523D01*
X148285714Y-120534047D01*
X148285714Y-120200714D01*
X148333333Y-120010238D01*
X148428571Y-119915000D01*
X148523809Y-119867380D01*
X149380952Y-120867380D02*
X149380952Y-119867380D01*
X149761904Y-119867380D01*
X149857142Y-119915000D01*
X149904761Y-119962619D01*
X149952380Y-120057857D01*
X149952380Y-120200714D01*
X149904761Y-120295952D01*
X149857142Y-120343571D01*
X149761904Y-120391190D01*
X149380952Y-120391190D01*
X150571428Y-120391190D02*
X150571428Y-120867380D01*
X150238095Y-119867380D02*
X150571428Y-120391190D01*
X150904761Y-119867380D01*
X151809523Y-120867380D02*
X151476190Y-120391190D01*
X151238095Y-120867380D02*
X151238095Y-119867380D01*
X151619047Y-119867380D01*
X151714285Y-119915000D01*
X151761904Y-119962619D01*
X151809523Y-120057857D01*
X151809523Y-120200714D01*
X151761904Y-120295952D01*
X151714285Y-120343571D01*
X151619047Y-120391190D01*
X151238095Y-120391190D01*
X152238095Y-120867380D02*
X152238095Y-119867380D01*
X153238095Y-119915000D02*
X153142857Y-119867380D01*
X153000000Y-119867380D01*
X152857142Y-119915000D01*
X152761904Y-120010238D01*
X152714285Y-120105476D01*
X152666666Y-120295952D01*
X152666666Y-120438809D01*
X152714285Y-120629285D01*
X152761904Y-120724523D01*
X152857142Y-120819761D01*
X153000000Y-120867380D01*
X153095238Y-120867380D01*
X153238095Y-120819761D01*
X153285714Y-120772142D01*
X153285714Y-120438809D01*
X153095238Y-120438809D01*
X153714285Y-120867380D02*
X153714285Y-119867380D01*
X153714285Y-120343571D02*
X154285714Y-120343571D01*
X154285714Y-120867380D02*
X154285714Y-119867380D01*
X154619047Y-119867380D02*
X155190476Y-119867380D01*
X154904761Y-120867380D02*
X154904761Y-119867380D01*
X156238095Y-119962619D02*
X156285714Y-119915000D01*
X156380952Y-119867380D01*
X156619047Y-119867380D01*
X156714285Y-119915000D01*
X156761904Y-119962619D01*
X156809523Y-120057857D01*
X156809523Y-120153095D01*
X156761904Y-120295952D01*
X156190476Y-120867380D01*
X156809523Y-120867380D01*
X157428571Y-119867380D02*
X157523809Y-119867380D01*
X157619047Y-119915000D01*
X157666666Y-119962619D01*
X157714285Y-120057857D01*
X157761904Y-120248333D01*
X157761904Y-120486428D01*
X157714285Y-120676904D01*
X157666666Y-120772142D01*
X157619047Y-120819761D01*
X157523809Y-120867380D01*
X157428571Y-120867380D01*
X157333333Y-120819761D01*
X157285714Y-120772142D01*
X157238095Y-120676904D01*
X157190476Y-120486428D01*
X157190476Y-120248333D01*
X157238095Y-120057857D01*
X157285714Y-119962619D01*
X157333333Y-119915000D01*
X157428571Y-119867380D01*
X158142857Y-119962619D02*
X158190476Y-119915000D01*
X158285714Y-119867380D01*
X158523809Y-119867380D01*
X158619047Y-119915000D01*
X158666666Y-119962619D01*
X158714285Y-120057857D01*
X158714285Y-120153095D01*
X158666666Y-120295952D01*
X158095238Y-120867380D01*
X158714285Y-120867380D01*
X159095238Y-119962619D02*
X159142857Y-119915000D01*
X159238095Y-119867380D01*
X159476190Y-119867380D01*
X159571428Y-119915000D01*
X159619047Y-119962619D01*
X159666666Y-120057857D01*
X159666666Y-120153095D01*
X159619047Y-120295952D01*
X159047619Y-120867380D01*
X159666666Y-120867380D01*
X160809523Y-120819761D02*
X160952380Y-120867380D01*
X161190476Y-120867380D01*
X161285714Y-120819761D01*
X161333333Y-120772142D01*
X161380952Y-120676904D01*
X161380952Y-120581666D01*
X161333333Y-120486428D01*
X161285714Y-120438809D01*
X161190476Y-120391190D01*
X161000000Y-120343571D01*
X160904761Y-120295952D01*
X160857142Y-120248333D01*
X160809523Y-120153095D01*
X160809523Y-120057857D01*
X160857142Y-119962619D01*
X160904761Y-119915000D01*
X161000000Y-119867380D01*
X161238095Y-119867380D01*
X161380952Y-119915000D01*
X161666666Y-119867380D02*
X162238095Y-119867380D01*
X161952380Y-120867380D02*
X161952380Y-119867380D01*
X162571428Y-120343571D02*
X162904761Y-120343571D01*
X163047619Y-120867380D02*
X162571428Y-120867380D01*
X162571428Y-119867380D01*
X163047619Y-119867380D01*
X163476190Y-120867380D02*
X163476190Y-119867380D01*
X163857142Y-119867380D01*
X163952380Y-119915000D01*
X164000000Y-119962619D01*
X164047619Y-120057857D01*
X164047619Y-120200714D01*
X164000000Y-120295952D01*
X163952380Y-120343571D01*
X163857142Y-120391190D01*
X163476190Y-120391190D01*
X164476190Y-120867380D02*
X164476190Y-119867380D01*
X164476190Y-120343571D02*
X165047619Y-120343571D01*
X165047619Y-120867380D02*
X165047619Y-119867380D01*
X165523809Y-120343571D02*
X165857142Y-120343571D01*
X166000000Y-120867380D02*
X165523809Y-120867380D01*
X165523809Y-119867380D01*
X166000000Y-119867380D01*
X166428571Y-120867380D02*
X166428571Y-119867380D01*
X167000000Y-120867380D01*
X167000000Y-119867380D01*
X168809523Y-120867380D02*
X168476190Y-120391190D01*
X168238095Y-120867380D02*
X168238095Y-119867380D01*
X168619047Y-119867380D01*
X168714285Y-119915000D01*
X168761904Y-119962619D01*
X168809523Y-120057857D01*
X168809523Y-120200714D01*
X168761904Y-120295952D01*
X168714285Y-120343571D01*
X168619047Y-120391190D01*
X168238095Y-120391190D01*
X169428571Y-119867380D02*
X169619047Y-119867380D01*
X169714285Y-119915000D01*
X169809523Y-120010238D01*
X169857142Y-120200714D01*
X169857142Y-120534047D01*
X169809523Y-120724523D01*
X169714285Y-120819761D01*
X169619047Y-120867380D01*
X169428571Y-120867380D01*
X169333333Y-120819761D01*
X169238095Y-120724523D01*
X169190476Y-120534047D01*
X169190476Y-120200714D01*
X169238095Y-120010238D01*
X169333333Y-119915000D01*
X169428571Y-119867380D01*
X170285714Y-120867380D02*
X170285714Y-119867380D01*
X170523809Y-119867380D01*
X170666666Y-119915000D01*
X170761904Y-120010238D01*
X170809523Y-120105476D01*
X170857142Y-120295952D01*
X170857142Y-120438809D01*
X170809523Y-120629285D01*
X170761904Y-120724523D01*
X170666666Y-120819761D01*
X170523809Y-120867380D01*
X170285714Y-120867380D01*
X171809523Y-119915000D02*
X171714285Y-119867380D01*
X171571428Y-119867380D01*
X171428571Y-119915000D01*
X171333333Y-120010238D01*
X171285714Y-120105476D01*
X171238095Y-120295952D01*
X171238095Y-120438809D01*
X171285714Y-120629285D01*
X171333333Y-120724523D01*
X171428571Y-120819761D01*
X171571428Y-120867380D01*
X171666666Y-120867380D01*
X171809523Y-120819761D01*
X171857142Y-120772142D01*
X171857142Y-120438809D01*
X171666666Y-120438809D01*
X172285714Y-120343571D02*
X172619047Y-120343571D01*
X172761904Y-120867380D02*
X172285714Y-120867380D01*
X172285714Y-119867380D01*
X172761904Y-119867380D01*
X173761904Y-120867380D02*
X173428571Y-120391190D01*
X173190476Y-120867380D02*
X173190476Y-119867380D01*
X173571428Y-119867380D01*
X173666666Y-119915000D01*
X173714285Y-119962619D01*
X173761904Y-120057857D01*
X173761904Y-120200714D01*
X173714285Y-120295952D01*
X173666666Y-120343571D01*
X173571428Y-120391190D01*
X173190476Y-120391190D01*
X174142857Y-120819761D02*
X174285714Y-120867380D01*
X174523809Y-120867380D01*
X174619047Y-120819761D01*
X174666666Y-120772142D01*
X174714285Y-120676904D01*
X174714285Y-120581666D01*
X174666666Y-120486428D01*
X174619047Y-120438809D01*
X174523809Y-120391190D01*
X174333333Y-120343571D01*
X174238095Y-120295952D01*
X174190476Y-120248333D01*
X174142857Y-120153095D01*
X174142857Y-120057857D01*
X174190476Y-119962619D01*
X174238095Y-119915000D01*
X174333333Y-119867380D01*
X174571428Y-119867380D01*
X174714285Y-119915000D01*
X98052380Y-73442857D02*
X97052380Y-73442857D01*
X97052380Y-73061904D01*
X97100000Y-72966666D01*
X97147619Y-72919047D01*
X97242857Y-72871428D01*
X97385714Y-72871428D01*
X97480952Y-72919047D01*
X97528571Y-72966666D01*
X97576190Y-73061904D01*
X97576190Y-73442857D01*
X97052380Y-72538095D02*
X98052380Y-72300000D01*
X97338095Y-72109523D01*
X98052380Y-71919047D01*
X97052380Y-71680952D01*
X98052380Y-70728571D02*
X97576190Y-71061904D01*
X98052380Y-71300000D02*
X97052380Y-71300000D01*
X97052380Y-70919047D01*
X97100000Y-70823809D01*
X97147619Y-70776190D01*
X97242857Y-70728571D01*
X97385714Y-70728571D01*
X97480952Y-70776190D01*
X97528571Y-70823809D01*
X97576190Y-70919047D01*
X97576190Y-71300000D01*
X97004761Y-69585714D02*
X98290476Y-70442857D01*
X97957142Y-68680952D02*
X98004761Y-68728571D01*
X98052380Y-68871428D01*
X98052380Y-68966666D01*
X98004761Y-69109523D01*
X97909523Y-69204761D01*
X97814285Y-69252380D01*
X97623809Y-69300000D01*
X97480952Y-69300000D01*
X97290476Y-69252380D01*
X97195238Y-69204761D01*
X97100000Y-69109523D01*
X97052380Y-68966666D01*
X97052380Y-68871428D01*
X97100000Y-68728571D01*
X97147619Y-68680952D01*
X97052380Y-68395238D02*
X97052380Y-67823809D01*
X98052380Y-68109523D02*
X97052380Y-68109523D01*
X98052380Y-66919047D02*
X97576190Y-67252380D01*
X98052380Y-67490476D02*
X97052380Y-67490476D01*
X97052380Y-67109523D01*
X97100000Y-67014285D01*
X97147619Y-66966666D01*
X97242857Y-66919047D01*
X97385714Y-66919047D01*
X97480952Y-66966666D01*
X97528571Y-67014285D01*
X97576190Y-67109523D01*
X97576190Y-67490476D01*
X98052380Y-66014285D02*
X98052380Y-66490476D01*
X97052380Y-66490476D01*
X102357142Y-82519047D02*
X102404761Y-82566666D01*
X102452380Y-82709523D01*
X102452380Y-82804761D01*
X102404761Y-82947619D01*
X102309523Y-83042857D01*
X102214285Y-83090476D01*
X102023809Y-83138095D01*
X101880952Y-83138095D01*
X101690476Y-83090476D01*
X101595238Y-83042857D01*
X101500000Y-82947619D01*
X101452380Y-82804761D01*
X101452380Y-82709523D01*
X101500000Y-82566666D01*
X101547619Y-82519047D01*
X101547619Y-82138095D02*
X101500000Y-82090476D01*
X101452380Y-81995238D01*
X101452380Y-81757142D01*
X101500000Y-81661904D01*
X101547619Y-81614285D01*
X101642857Y-81566666D01*
X101738095Y-81566666D01*
X101880952Y-81614285D01*
X102452380Y-82185714D01*
X102452380Y-81566666D01*
X101452380Y-80947619D02*
X101452380Y-80852380D01*
X101500000Y-80757142D01*
X101547619Y-80709523D01*
X101642857Y-80661904D01*
X101833333Y-80614285D01*
X102071428Y-80614285D01*
X102261904Y-80661904D01*
X102357142Y-80709523D01*
X102404761Y-80757142D01*
X102452380Y-80852380D01*
X102452380Y-80947619D01*
X102404761Y-81042857D01*
X102357142Y-81090476D01*
X102261904Y-81138095D01*
X102071428Y-81185714D01*
X101833333Y-81185714D01*
X101642857Y-81138095D01*
X101547619Y-81090476D01*
X101500000Y-81042857D01*
X101452380Y-80947619D01*
X101452380Y-79757142D02*
X101452380Y-79947619D01*
X101500000Y-80042857D01*
X101547619Y-80090476D01*
X101690476Y-80185714D01*
X101880952Y-80233333D01*
X102261904Y-80233333D01*
X102357142Y-80185714D01*
X102404761Y-80138095D01*
X102452380Y-80042857D01*
X102452380Y-79852380D01*
X102404761Y-79757142D01*
X102357142Y-79709523D01*
X102261904Y-79661904D01*
X102023809Y-79661904D01*
X101928571Y-79709523D01*
X101880952Y-79757142D01*
X101833333Y-79852380D01*
X101833333Y-80042857D01*
X101880952Y-80138095D01*
X101928571Y-80185714D01*
X102023809Y-80233333D01*
X97357142Y-82928571D02*
X97690476Y-82928571D01*
X97833333Y-83452380D02*
X97357142Y-83452380D01*
X97357142Y-82452380D01*
X97833333Y-82452380D01*
X98214285Y-82547619D02*
X98261904Y-82500000D01*
X98357142Y-82452380D01*
X98595238Y-82452380D01*
X98690476Y-82500000D01*
X98738095Y-82547619D01*
X98785714Y-82642857D01*
X98785714Y-82738095D01*
X98738095Y-82880952D01*
X98166666Y-83452380D01*
X98785714Y-83452380D01*
X99404761Y-82452380D02*
X99500000Y-82452380D01*
X99595238Y-82500000D01*
X99642857Y-82547619D01*
X99690476Y-82642857D01*
X99738095Y-82833333D01*
X99738095Y-83071428D01*
X99690476Y-83261904D01*
X99642857Y-83357142D01*
X99595238Y-83404761D01*
X99500000Y-83452380D01*
X99404761Y-83452380D01*
X99309523Y-83404761D01*
X99261904Y-83357142D01*
X99214285Y-83261904D01*
X99166666Y-83071428D01*
X99166666Y-82833333D01*
X99214285Y-82642857D01*
X99261904Y-82547619D01*
X99309523Y-82500000D01*
X99404761Y-82452380D01*
X100119047Y-82547619D02*
X100166666Y-82500000D01*
X100261904Y-82452380D01*
X100500000Y-82452380D01*
X100595238Y-82500000D01*
X100642857Y-82547619D01*
X100690476Y-82642857D01*
X100690476Y-82738095D01*
X100642857Y-82880952D01*
X100071428Y-83452380D01*
X100690476Y-83452380D01*
D12*
X102620285Y-65982714D02*
X102620285Y-66527000D01*
X102584000Y-66635857D01*
X102511428Y-66708428D01*
X102402571Y-66744714D01*
X102330000Y-66744714D01*
X102946857Y-66055285D02*
X102983142Y-66019000D01*
X103055714Y-65982714D01*
X103237142Y-65982714D01*
X103309714Y-66019000D01*
X103346000Y-66055285D01*
X103382285Y-66127857D01*
X103382285Y-66200428D01*
X103346000Y-66309285D01*
X102910571Y-66744714D01*
X103382285Y-66744714D01*
X103854000Y-65982714D02*
X103926571Y-65982714D01*
X103999142Y-66019000D01*
X104035428Y-66055285D01*
X104071714Y-66127857D01*
X104108000Y-66273000D01*
X104108000Y-66454428D01*
X104071714Y-66599571D01*
X104035428Y-66672142D01*
X103999142Y-66708428D01*
X103926571Y-66744714D01*
X103854000Y-66744714D01*
X103781428Y-66708428D01*
X103745142Y-66672142D01*
X103708857Y-66599571D01*
X103672571Y-66454428D01*
X103672571Y-66273000D01*
X103708857Y-66127857D01*
X103745142Y-66055285D01*
X103781428Y-66019000D01*
X103854000Y-65982714D01*
X104398285Y-66055285D02*
X104434571Y-66019000D01*
X104507142Y-65982714D01*
X104688571Y-65982714D01*
X104761142Y-66019000D01*
X104797428Y-66055285D01*
X104833714Y-66127857D01*
X104833714Y-66200428D01*
X104797428Y-66309285D01*
X104362000Y-66744714D01*
X104833714Y-66744714D01*
X123020285Y-57382714D02*
X123020285Y-57927000D01*
X122984000Y-58035857D01*
X122911428Y-58108428D01*
X122802571Y-58144714D01*
X122730000Y-58144714D01*
X123346857Y-57455285D02*
X123383142Y-57419000D01*
X123455714Y-57382714D01*
X123637142Y-57382714D01*
X123709714Y-57419000D01*
X123746000Y-57455285D01*
X123782285Y-57527857D01*
X123782285Y-57600428D01*
X123746000Y-57709285D01*
X123310571Y-58144714D01*
X123782285Y-58144714D01*
X124254000Y-57382714D02*
X124326571Y-57382714D01*
X124399142Y-57419000D01*
X124435428Y-57455285D01*
X124471714Y-57527857D01*
X124508000Y-57673000D01*
X124508000Y-57854428D01*
X124471714Y-57999571D01*
X124435428Y-58072142D01*
X124399142Y-58108428D01*
X124326571Y-58144714D01*
X124254000Y-58144714D01*
X124181428Y-58108428D01*
X124145142Y-58072142D01*
X124108857Y-57999571D01*
X124072571Y-57854428D01*
X124072571Y-57673000D01*
X124108857Y-57527857D01*
X124145142Y-57455285D01*
X124181428Y-57419000D01*
X124254000Y-57382714D01*
X124762000Y-57382714D02*
X125233714Y-57382714D01*
X124979714Y-57673000D01*
X125088571Y-57673000D01*
X125161142Y-57709285D01*
X125197428Y-57745571D01*
X125233714Y-57818142D01*
X125233714Y-57999571D01*
X125197428Y-58072142D01*
X125161142Y-58108428D01*
X125088571Y-58144714D01*
X124870857Y-58144714D01*
X124798285Y-58108428D01*
X124762000Y-58072142D01*
X112620285Y-57382714D02*
X112620285Y-57927000D01*
X112584000Y-58035857D01*
X112511428Y-58108428D01*
X112402571Y-58144714D01*
X112330000Y-58144714D01*
X112946857Y-57455285D02*
X112983142Y-57419000D01*
X113055714Y-57382714D01*
X113237142Y-57382714D01*
X113309714Y-57419000D01*
X113346000Y-57455285D01*
X113382285Y-57527857D01*
X113382285Y-57600428D01*
X113346000Y-57709285D01*
X112910571Y-58144714D01*
X113382285Y-58144714D01*
X113854000Y-57382714D02*
X113926571Y-57382714D01*
X113999142Y-57419000D01*
X114035428Y-57455285D01*
X114071714Y-57527857D01*
X114108000Y-57673000D01*
X114108000Y-57854428D01*
X114071714Y-57999571D01*
X114035428Y-58072142D01*
X113999142Y-58108428D01*
X113926571Y-58144714D01*
X113854000Y-58144714D01*
X113781428Y-58108428D01*
X113745142Y-58072142D01*
X113708857Y-57999571D01*
X113672571Y-57854428D01*
X113672571Y-57673000D01*
X113708857Y-57527857D01*
X113745142Y-57455285D01*
X113781428Y-57419000D01*
X113854000Y-57382714D01*
X114761142Y-57636714D02*
X114761142Y-58144714D01*
X114579714Y-57346428D02*
X114398285Y-57890714D01*
X114870000Y-57890714D01*
X92620285Y-64582714D02*
X92620285Y-65127000D01*
X92584000Y-65235857D01*
X92511428Y-65308428D01*
X92402571Y-65344714D01*
X92330000Y-65344714D01*
X92946857Y-64655285D02*
X92983142Y-64619000D01*
X93055714Y-64582714D01*
X93237142Y-64582714D01*
X93309714Y-64619000D01*
X93346000Y-64655285D01*
X93382285Y-64727857D01*
X93382285Y-64800428D01*
X93346000Y-64909285D01*
X92910571Y-65344714D01*
X93382285Y-65344714D01*
X93854000Y-64582714D02*
X93926571Y-64582714D01*
X93999142Y-64619000D01*
X94035428Y-64655285D01*
X94071714Y-64727857D01*
X94108000Y-64873000D01*
X94108000Y-65054428D01*
X94071714Y-65199571D01*
X94035428Y-65272142D01*
X93999142Y-65308428D01*
X93926571Y-65344714D01*
X93854000Y-65344714D01*
X93781428Y-65308428D01*
X93745142Y-65272142D01*
X93708857Y-65199571D01*
X93672571Y-65054428D01*
X93672571Y-64873000D01*
X93708857Y-64727857D01*
X93745142Y-64655285D01*
X93781428Y-64619000D01*
X93854000Y-64582714D01*
X94797428Y-64582714D02*
X94434571Y-64582714D01*
X94398285Y-64945571D01*
X94434571Y-64909285D01*
X94507142Y-64873000D01*
X94688571Y-64873000D01*
X94761142Y-64909285D01*
X94797428Y-64945571D01*
X94833714Y-65018142D01*
X94833714Y-65199571D01*
X94797428Y-65272142D01*
X94761142Y-65308428D01*
X94688571Y-65344714D01*
X94507142Y-65344714D01*
X94434571Y-65308428D01*
X94398285Y-65272142D01*
X174420285Y-56582714D02*
X174420285Y-57127000D01*
X174384000Y-57235857D01*
X174311428Y-57308428D01*
X174202571Y-57344714D01*
X174130000Y-57344714D01*
X175146000Y-56582714D02*
X174783142Y-56582714D01*
X174746857Y-56945571D01*
X174783142Y-56909285D01*
X174855714Y-56873000D01*
X175037142Y-56873000D01*
X175109714Y-56909285D01*
X175146000Y-56945571D01*
X175182285Y-57018142D01*
X175182285Y-57199571D01*
X175146000Y-57272142D01*
X175109714Y-57308428D01*
X175037142Y-57344714D01*
X174855714Y-57344714D01*
X174783142Y-57308428D01*
X174746857Y-57272142D01*
X175654000Y-56582714D02*
X175726571Y-56582714D01*
X175799142Y-56619000D01*
X175835428Y-56655285D01*
X175871714Y-56727857D01*
X175908000Y-56873000D01*
X175908000Y-57054428D01*
X175871714Y-57199571D01*
X175835428Y-57272142D01*
X175799142Y-57308428D01*
X175726571Y-57344714D01*
X175654000Y-57344714D01*
X175581428Y-57308428D01*
X175545142Y-57272142D01*
X175508857Y-57199571D01*
X175472571Y-57054428D01*
X175472571Y-56873000D01*
X175508857Y-56727857D01*
X175545142Y-56655285D01*
X175581428Y-56619000D01*
X175654000Y-56582714D01*
X176633714Y-57344714D02*
X176198285Y-57344714D01*
X176416000Y-57344714D02*
X176416000Y-56582714D01*
X176343428Y-56691571D01*
X176270857Y-56764142D01*
X176198285Y-56800428D01*
X148420285Y-56382714D02*
X148420285Y-56927000D01*
X148384000Y-57035857D01*
X148311428Y-57108428D01*
X148202571Y-57144714D01*
X148130000Y-57144714D01*
X149146000Y-56382714D02*
X148783142Y-56382714D01*
X148746857Y-56745571D01*
X148783142Y-56709285D01*
X148855714Y-56673000D01*
X149037142Y-56673000D01*
X149109714Y-56709285D01*
X149146000Y-56745571D01*
X149182285Y-56818142D01*
X149182285Y-56999571D01*
X149146000Y-57072142D01*
X149109714Y-57108428D01*
X149037142Y-57144714D01*
X148855714Y-57144714D01*
X148783142Y-57108428D01*
X148746857Y-57072142D01*
X149654000Y-56382714D02*
X149726571Y-56382714D01*
X149799142Y-56419000D01*
X149835428Y-56455285D01*
X149871714Y-56527857D01*
X149908000Y-56673000D01*
X149908000Y-56854428D01*
X149871714Y-56999571D01*
X149835428Y-57072142D01*
X149799142Y-57108428D01*
X149726571Y-57144714D01*
X149654000Y-57144714D01*
X149581428Y-57108428D01*
X149545142Y-57072142D01*
X149508857Y-56999571D01*
X149472571Y-56854428D01*
X149472571Y-56673000D01*
X149508857Y-56527857D01*
X149545142Y-56455285D01*
X149581428Y-56419000D01*
X149654000Y-56382714D01*
X150198285Y-56455285D02*
X150234571Y-56419000D01*
X150307142Y-56382714D01*
X150488571Y-56382714D01*
X150561142Y-56419000D01*
X150597428Y-56455285D01*
X150633714Y-56527857D01*
X150633714Y-56600428D01*
X150597428Y-56709285D01*
X150162000Y-57144714D01*
X150633714Y-57144714D01*
X167420285Y-74182714D02*
X167420285Y-74727000D01*
X167384000Y-74835857D01*
X167311428Y-74908428D01*
X167202571Y-74944714D01*
X167130000Y-74944714D01*
X168146000Y-74182714D02*
X167783142Y-74182714D01*
X167746857Y-74545571D01*
X167783142Y-74509285D01*
X167855714Y-74473000D01*
X168037142Y-74473000D01*
X168109714Y-74509285D01*
X168146000Y-74545571D01*
X168182285Y-74618142D01*
X168182285Y-74799571D01*
X168146000Y-74872142D01*
X168109714Y-74908428D01*
X168037142Y-74944714D01*
X167855714Y-74944714D01*
X167783142Y-74908428D01*
X167746857Y-74872142D01*
X168654000Y-74182714D02*
X168726571Y-74182714D01*
X168799142Y-74219000D01*
X168835428Y-74255285D01*
X168871714Y-74327857D01*
X168908000Y-74473000D01*
X168908000Y-74654428D01*
X168871714Y-74799571D01*
X168835428Y-74872142D01*
X168799142Y-74908428D01*
X168726571Y-74944714D01*
X168654000Y-74944714D01*
X168581428Y-74908428D01*
X168545142Y-74872142D01*
X168508857Y-74799571D01*
X168472571Y-74654428D01*
X168472571Y-74473000D01*
X168508857Y-74327857D01*
X168545142Y-74255285D01*
X168581428Y-74219000D01*
X168654000Y-74182714D01*
X169561142Y-74436714D02*
X169561142Y-74944714D01*
X169379714Y-74146428D02*
X169198285Y-74690714D01*
X169670000Y-74690714D01*
D11*
X134880952Y-72452380D02*
X134404761Y-72452380D01*
X134404761Y-71452380D01*
X135642857Y-71785714D02*
X135642857Y-72452380D01*
X135404761Y-71404761D02*
X135166666Y-72119047D01*
X135785714Y-72119047D01*
X136357142Y-71452380D02*
X136452380Y-71452380D01*
X136547619Y-71500000D01*
X136595238Y-71547619D01*
X136642857Y-71642857D01*
X136690476Y-71833333D01*
X136690476Y-72071428D01*
X136642857Y-72261904D01*
X136595238Y-72357142D01*
X136547619Y-72404761D01*
X136452380Y-72452380D01*
X136357142Y-72452380D01*
X136261904Y-72404761D01*
X136214285Y-72357142D01*
X136166666Y-72261904D01*
X136119047Y-72071428D01*
X136119047Y-71833333D01*
X136166666Y-71642857D01*
X136214285Y-71547619D01*
X136261904Y-71500000D01*
X136357142Y-71452380D01*
X137642857Y-72452380D02*
X137071428Y-72452380D01*
X137357142Y-72452380D02*
X137357142Y-71452380D01*
X137261904Y-71595238D01*
X137166666Y-71690476D01*
X137071428Y-71738095D01*
X98214285Y-57252380D02*
X98214285Y-56252380D01*
X98547619Y-56966666D01*
X98880952Y-56252380D01*
X98880952Y-57252380D01*
X99357142Y-57252380D02*
X99357142Y-56252380D01*
X99357142Y-56728571D02*
X99928571Y-56728571D01*
X99928571Y-57252380D02*
X99928571Y-56252380D01*
X100357142Y-56347619D02*
X100404761Y-56300000D01*
X100500000Y-56252380D01*
X100738095Y-56252380D01*
X100833333Y-56300000D01*
X100880952Y-56347619D01*
X100928571Y-56442857D01*
X100928571Y-56538095D01*
X100880952Y-56680952D01*
X100309523Y-57252380D01*
X100928571Y-57252380D01*
X101547619Y-56252380D02*
X101642857Y-56252380D01*
X101738095Y-56300000D01*
X101785714Y-56347619D01*
X101833333Y-56442857D01*
X101880952Y-56633333D01*
X101880952Y-56871428D01*
X101833333Y-57061904D01*
X101785714Y-57157142D01*
X101738095Y-57204761D01*
X101642857Y-57252380D01*
X101547619Y-57252380D01*
X101452380Y-57204761D01*
X101404761Y-57157142D01*
X101357142Y-57061904D01*
X101309523Y-56871428D01*
X101309523Y-56633333D01*
X101357142Y-56442857D01*
X101404761Y-56347619D01*
X101452380Y-56300000D01*
X101547619Y-56252380D01*
X102833333Y-57252380D02*
X102261904Y-57252380D01*
X102547619Y-57252380D02*
X102547619Y-56252380D01*
X102452380Y-56395238D01*
X102357142Y-56490476D01*
X102261904Y-56538095D01*
X197414285Y-57652380D02*
X197414285Y-56652380D01*
X197747619Y-57366666D01*
X198080952Y-56652380D01*
X198080952Y-57652380D01*
X198557142Y-57652380D02*
X198557142Y-56652380D01*
X198557142Y-57128571D02*
X199128571Y-57128571D01*
X199128571Y-57652380D02*
X199128571Y-56652380D01*
X199557142Y-56747619D02*
X199604761Y-56700000D01*
X199700000Y-56652380D01*
X199938095Y-56652380D01*
X200033333Y-56700000D01*
X200080952Y-56747619D01*
X200128571Y-56842857D01*
X200128571Y-56938095D01*
X200080952Y-57080952D01*
X199509523Y-57652380D01*
X200128571Y-57652380D01*
X200747619Y-56652380D02*
X200842857Y-56652380D01*
X200938095Y-56700000D01*
X200985714Y-56747619D01*
X201033333Y-56842857D01*
X201080952Y-57033333D01*
X201080952Y-57271428D01*
X201033333Y-57461904D01*
X200985714Y-57557142D01*
X200938095Y-57604761D01*
X200842857Y-57652380D01*
X200747619Y-57652380D01*
X200652380Y-57604761D01*
X200604761Y-57557142D01*
X200557142Y-57461904D01*
X200509523Y-57271428D01*
X200509523Y-57033333D01*
X200557142Y-56842857D01*
X200604761Y-56747619D01*
X200652380Y-56700000D01*
X200747619Y-56652380D01*
X201461904Y-56747619D02*
X201509523Y-56700000D01*
X201604761Y-56652380D01*
X201842857Y-56652380D01*
X201938095Y-56700000D01*
X201985714Y-56747619D01*
X202033333Y-56842857D01*
X202033333Y-56938095D01*
X201985714Y-57080952D01*
X201414285Y-57652380D01*
X202033333Y-57652380D01*
X197314285Y-128452380D02*
X197314285Y-127452380D01*
X197647619Y-128166666D01*
X197980952Y-127452380D01*
X197980952Y-128452380D01*
X198457142Y-128452380D02*
X198457142Y-127452380D01*
X198457142Y-127928571D02*
X199028571Y-127928571D01*
X199028571Y-128452380D02*
X199028571Y-127452380D01*
X199457142Y-127547619D02*
X199504761Y-127500000D01*
X199600000Y-127452380D01*
X199838095Y-127452380D01*
X199933333Y-127500000D01*
X199980952Y-127547619D01*
X200028571Y-127642857D01*
X200028571Y-127738095D01*
X199980952Y-127880952D01*
X199409523Y-128452380D01*
X200028571Y-128452380D01*
X200647619Y-127452380D02*
X200742857Y-127452380D01*
X200838095Y-127500000D01*
X200885714Y-127547619D01*
X200933333Y-127642857D01*
X200980952Y-127833333D01*
X200980952Y-128071428D01*
X200933333Y-128261904D01*
X200885714Y-128357142D01*
X200838095Y-128404761D01*
X200742857Y-128452380D01*
X200647619Y-128452380D01*
X200552380Y-128404761D01*
X200504761Y-128357142D01*
X200457142Y-128261904D01*
X200409523Y-128071428D01*
X200409523Y-127833333D01*
X200457142Y-127642857D01*
X200504761Y-127547619D01*
X200552380Y-127500000D01*
X200647619Y-127452380D01*
X201314285Y-127452380D02*
X201933333Y-127452380D01*
X201600000Y-127833333D01*
X201742857Y-127833333D01*
X201838095Y-127880952D01*
X201885714Y-127928571D01*
X201933333Y-128023809D01*
X201933333Y-128261904D01*
X201885714Y-128357142D01*
X201838095Y-128404761D01*
X201742857Y-128452380D01*
X201457142Y-128452380D01*
X201361904Y-128404761D01*
X201314285Y-128357142D01*
X92114285Y-120452380D02*
X92114285Y-119452380D01*
X92447619Y-120166666D01*
X92780952Y-119452380D01*
X92780952Y-120452380D01*
X93257142Y-120452380D02*
X93257142Y-119452380D01*
X93257142Y-119928571D02*
X93828571Y-119928571D01*
X93828571Y-120452380D02*
X93828571Y-119452380D01*
X94257142Y-119547619D02*
X94304761Y-119500000D01*
X94400000Y-119452380D01*
X94638095Y-119452380D01*
X94733333Y-119500000D01*
X94780952Y-119547619D01*
X94828571Y-119642857D01*
X94828571Y-119738095D01*
X94780952Y-119880952D01*
X94209523Y-120452380D01*
X94828571Y-120452380D01*
X95447619Y-119452380D02*
X95542857Y-119452380D01*
X95638095Y-119500000D01*
X95685714Y-119547619D01*
X95733333Y-119642857D01*
X95780952Y-119833333D01*
X95780952Y-120071428D01*
X95733333Y-120261904D01*
X95685714Y-120357142D01*
X95638095Y-120404761D01*
X95542857Y-120452380D01*
X95447619Y-120452380D01*
X95352380Y-120404761D01*
X95304761Y-120357142D01*
X95257142Y-120261904D01*
X95209523Y-120071428D01*
X95209523Y-119833333D01*
X95257142Y-119642857D01*
X95304761Y-119547619D01*
X95352380Y-119500000D01*
X95447619Y-119452380D01*
X96638095Y-119785714D02*
X96638095Y-120452380D01*
X96400000Y-119404761D02*
X96161904Y-120119047D01*
X96780952Y-120119047D01*
X158252380Y-72319047D02*
X157776190Y-72652380D01*
X158252380Y-72890476D02*
X157252380Y-72890476D01*
X157252380Y-72509523D01*
X157300000Y-72414285D01*
X157347619Y-72366666D01*
X157442857Y-72319047D01*
X157585714Y-72319047D01*
X157680952Y-72366666D01*
X157728571Y-72414285D01*
X157776190Y-72509523D01*
X157776190Y-72890476D01*
X157252380Y-71414285D02*
X157252380Y-71890476D01*
X157728571Y-71938095D01*
X157680952Y-71890476D01*
X157633333Y-71795238D01*
X157633333Y-71557142D01*
X157680952Y-71461904D01*
X157728571Y-71414285D01*
X157823809Y-71366666D01*
X158061904Y-71366666D01*
X158157142Y-71414285D01*
X158204761Y-71461904D01*
X158252380Y-71557142D01*
X158252380Y-71795238D01*
X158204761Y-71890476D01*
X158157142Y-71938095D01*
X158252380Y-70414285D02*
X158252380Y-70985714D01*
X158252380Y-70700000D02*
X157252380Y-70700000D01*
X157395238Y-70795238D01*
X157490476Y-70890476D01*
X157538095Y-70985714D01*
X157252380Y-70080952D02*
X157252380Y-69461904D01*
X157633333Y-69795238D01*
X157633333Y-69652380D01*
X157680952Y-69557142D01*
X157728571Y-69509523D01*
X157823809Y-69461904D01*
X158061904Y-69461904D01*
X158157142Y-69509523D01*
X158204761Y-69557142D01*
X158252380Y-69652380D01*
X158252380Y-69938095D01*
X158204761Y-70033333D01*
X158157142Y-70080952D01*
X160652380Y-72319047D02*
X160176190Y-72652380D01*
X160652380Y-72890476D02*
X159652380Y-72890476D01*
X159652380Y-72509523D01*
X159700000Y-72414285D01*
X159747619Y-72366666D01*
X159842857Y-72319047D01*
X159985714Y-72319047D01*
X160080952Y-72366666D01*
X160128571Y-72414285D01*
X160176190Y-72509523D01*
X160176190Y-72890476D01*
X159652380Y-71414285D02*
X159652380Y-71890476D01*
X160128571Y-71938095D01*
X160080952Y-71890476D01*
X160033333Y-71795238D01*
X160033333Y-71557142D01*
X160080952Y-71461904D01*
X160128571Y-71414285D01*
X160223809Y-71366666D01*
X160461904Y-71366666D01*
X160557142Y-71414285D01*
X160604761Y-71461904D01*
X160652380Y-71557142D01*
X160652380Y-71795238D01*
X160604761Y-71890476D01*
X160557142Y-71938095D01*
X160652380Y-70414285D02*
X160652380Y-70985714D01*
X160652380Y-70700000D02*
X159652380Y-70700000D01*
X159795238Y-70795238D01*
X159890476Y-70890476D01*
X159938095Y-70985714D01*
X159652380Y-69557142D02*
X159652380Y-69747619D01*
X159700000Y-69842857D01*
X159747619Y-69890476D01*
X159890476Y-69985714D01*
X160080952Y-70033333D01*
X160461904Y-70033333D01*
X160557142Y-69985714D01*
X160604761Y-69938095D01*
X160652380Y-69842857D01*
X160652380Y-69652380D01*
X160604761Y-69557142D01*
X160557142Y-69509523D01*
X160461904Y-69461904D01*
X160223809Y-69461904D01*
X160128571Y-69509523D01*
X160080952Y-69557142D01*
X160033333Y-69652380D01*
X160033333Y-69842857D01*
X160080952Y-69938095D01*
X160128571Y-69985714D01*
X160223809Y-70033333D01*
X162452380Y-72319047D02*
X161976190Y-72652380D01*
X162452380Y-72890476D02*
X161452380Y-72890476D01*
X161452380Y-72509523D01*
X161500000Y-72414285D01*
X161547619Y-72366666D01*
X161642857Y-72319047D01*
X161785714Y-72319047D01*
X161880952Y-72366666D01*
X161928571Y-72414285D01*
X161976190Y-72509523D01*
X161976190Y-72890476D01*
X161452380Y-71414285D02*
X161452380Y-71890476D01*
X161928571Y-71938095D01*
X161880952Y-71890476D01*
X161833333Y-71795238D01*
X161833333Y-71557142D01*
X161880952Y-71461904D01*
X161928571Y-71414285D01*
X162023809Y-71366666D01*
X162261904Y-71366666D01*
X162357142Y-71414285D01*
X162404761Y-71461904D01*
X162452380Y-71557142D01*
X162452380Y-71795238D01*
X162404761Y-71890476D01*
X162357142Y-71938095D01*
X162452380Y-70414285D02*
X162452380Y-70985714D01*
X162452380Y-70700000D02*
X161452380Y-70700000D01*
X161595238Y-70795238D01*
X161690476Y-70890476D01*
X161738095Y-70985714D01*
X161452380Y-70080952D02*
X161452380Y-69414285D01*
X162452380Y-69842857D01*
X165452380Y-72719047D02*
X164976190Y-73052380D01*
X165452380Y-73290476D02*
X164452380Y-73290476D01*
X164452380Y-72909523D01*
X164500000Y-72814285D01*
X164547619Y-72766666D01*
X164642857Y-72719047D01*
X164785714Y-72719047D01*
X164880952Y-72766666D01*
X164928571Y-72814285D01*
X164976190Y-72909523D01*
X164976190Y-73290476D01*
X164452380Y-71814285D02*
X164452380Y-72290476D01*
X164928571Y-72338095D01*
X164880952Y-72290476D01*
X164833333Y-72195238D01*
X164833333Y-71957142D01*
X164880952Y-71861904D01*
X164928571Y-71814285D01*
X165023809Y-71766666D01*
X165261904Y-71766666D01*
X165357142Y-71814285D01*
X165404761Y-71861904D01*
X165452380Y-71957142D01*
X165452380Y-72195238D01*
X165404761Y-72290476D01*
X165357142Y-72338095D01*
X165452380Y-70814285D02*
X165452380Y-71385714D01*
X165452380Y-71100000D02*
X164452380Y-71100000D01*
X164595238Y-71195238D01*
X164690476Y-71290476D01*
X164738095Y-71385714D01*
X164880952Y-70242857D02*
X164833333Y-70338095D01*
X164785714Y-70385714D01*
X164690476Y-70433333D01*
X164642857Y-70433333D01*
X164547619Y-70385714D01*
X164500000Y-70338095D01*
X164452380Y-70242857D01*
X164452380Y-70052380D01*
X164500000Y-69957142D01*
X164547619Y-69909523D01*
X164642857Y-69861904D01*
X164690476Y-69861904D01*
X164785714Y-69909523D01*
X164833333Y-69957142D01*
X164880952Y-70052380D01*
X164880952Y-70242857D01*
X164928571Y-70338095D01*
X164976190Y-70385714D01*
X165071428Y-70433333D01*
X165261904Y-70433333D01*
X165357142Y-70385714D01*
X165404761Y-70338095D01*
X165452380Y-70242857D01*
X165452380Y-70052380D01*
X165404761Y-69957142D01*
X165357142Y-69909523D01*
X165261904Y-69861904D01*
X165071428Y-69861904D01*
X164976190Y-69909523D01*
X164928571Y-69957142D01*
X164880952Y-70052380D01*
X96452380Y-110714285D02*
X97261904Y-110714285D01*
X97357142Y-110666666D01*
X97404761Y-110619047D01*
X97452380Y-110523809D01*
X97452380Y-110333333D01*
X97404761Y-110238095D01*
X97357142Y-110190476D01*
X97261904Y-110142857D01*
X96452380Y-110142857D01*
X96452380Y-109190476D02*
X96452380Y-109666666D01*
X96928571Y-109714285D01*
X96880952Y-109666666D01*
X96833333Y-109571428D01*
X96833333Y-109333333D01*
X96880952Y-109238095D01*
X96928571Y-109190476D01*
X97023809Y-109142857D01*
X97261904Y-109142857D01*
X97357142Y-109190476D01*
X97404761Y-109238095D01*
X97452380Y-109333333D01*
X97452380Y-109571428D01*
X97404761Y-109666666D01*
X97357142Y-109714285D01*
X96452380Y-108523809D02*
X96452380Y-108428571D01*
X96500000Y-108333333D01*
X96547619Y-108285714D01*
X96642857Y-108238095D01*
X96833333Y-108190476D01*
X97071428Y-108190476D01*
X97261904Y-108238095D01*
X97357142Y-108285714D01*
X97404761Y-108333333D01*
X97452380Y-108428571D01*
X97452380Y-108523809D01*
X97404761Y-108619047D01*
X97357142Y-108666666D01*
X97261904Y-108714285D01*
X97071428Y-108761904D01*
X96833333Y-108761904D01*
X96642857Y-108714285D01*
X96547619Y-108666666D01*
X96500000Y-108619047D01*
X96452380Y-108523809D01*
X97452380Y-107238095D02*
X97452380Y-107809523D01*
X97452380Y-107523809D02*
X96452380Y-107523809D01*
X96595238Y-107619047D01*
X96690476Y-107714285D01*
X96738095Y-107809523D01*
X99674761Y-101357142D02*
X99722380Y-101214285D01*
X99722380Y-100976190D01*
X99674761Y-100880952D01*
X99627142Y-100833333D01*
X99531904Y-100785714D01*
X99436666Y-100785714D01*
X99341428Y-100833333D01*
X99293809Y-100880952D01*
X99246190Y-100976190D01*
X99198571Y-101166666D01*
X99150952Y-101261904D01*
X99103333Y-101309523D01*
X99008095Y-101357142D01*
X98912857Y-101357142D01*
X98817619Y-101309523D01*
X98770000Y-101261904D01*
X98722380Y-101166666D01*
X98722380Y-100928571D01*
X98770000Y-100785714D01*
X98722380Y-100452380D02*
X99722380Y-100214285D01*
X99008095Y-100023809D01*
X99722380Y-99833333D01*
X98722380Y-99595238D01*
X99722380Y-99214285D02*
X98722380Y-99214285D01*
X98722380Y-98976190D01*
X98770000Y-98833333D01*
X98865238Y-98738095D01*
X98960476Y-98690476D01*
X99150952Y-98642857D01*
X99293809Y-98642857D01*
X99484285Y-98690476D01*
X99579523Y-98738095D01*
X99674761Y-98833333D01*
X99722380Y-98976190D01*
X99722380Y-99214285D01*
X152152380Y-78314285D02*
X152961904Y-78314285D01*
X153057142Y-78266666D01*
X153104761Y-78219047D01*
X153152380Y-78123809D01*
X153152380Y-77933333D01*
X153104761Y-77838095D01*
X153057142Y-77790476D01*
X152961904Y-77742857D01*
X152152380Y-77742857D01*
X152485714Y-76838095D02*
X153152380Y-76838095D01*
X152104761Y-77076190D02*
X152819047Y-77314285D01*
X152819047Y-76695238D01*
X152152380Y-76123809D02*
X152152380Y-76028571D01*
X152200000Y-75933333D01*
X152247619Y-75885714D01*
X152342857Y-75838095D01*
X152533333Y-75790476D01*
X152771428Y-75790476D01*
X152961904Y-75838095D01*
X153057142Y-75885714D01*
X153104761Y-75933333D01*
X153152380Y-76028571D01*
X153152380Y-76123809D01*
X153104761Y-76219047D01*
X153057142Y-76266666D01*
X152961904Y-76314285D01*
X152771428Y-76361904D01*
X152533333Y-76361904D01*
X152342857Y-76314285D01*
X152247619Y-76266666D01*
X152200000Y-76219047D01*
X152152380Y-76123809D01*
X153152380Y-74838095D02*
X153152380Y-75409523D01*
X153152380Y-75123809D02*
X152152380Y-75123809D01*
X152295238Y-75219047D01*
X152390476Y-75314285D01*
X152438095Y-75409523D01*
X152285714Y-85852380D02*
X152285714Y-86661904D01*
X152333333Y-86757142D01*
X152380952Y-86804761D01*
X152476190Y-86852380D01*
X152666666Y-86852380D01*
X152761904Y-86804761D01*
X152809523Y-86757142D01*
X152857142Y-86661904D01*
X152857142Y-85852380D01*
X153761904Y-86185714D02*
X153761904Y-86852380D01*
X153523809Y-85804761D02*
X153285714Y-86519047D01*
X153904761Y-86519047D01*
X154476190Y-85852380D02*
X154571428Y-85852380D01*
X154666666Y-85900000D01*
X154714285Y-85947619D01*
X154761904Y-86042857D01*
X154809523Y-86233333D01*
X154809523Y-86471428D01*
X154761904Y-86661904D01*
X154714285Y-86757142D01*
X154666666Y-86804761D01*
X154571428Y-86852380D01*
X154476190Y-86852380D01*
X154380952Y-86804761D01*
X154333333Y-86757142D01*
X154285714Y-86661904D01*
X154238095Y-86471428D01*
X154238095Y-86233333D01*
X154285714Y-86042857D01*
X154333333Y-85947619D01*
X154380952Y-85900000D01*
X154476190Y-85852380D01*
X155190476Y-85947619D02*
X155238095Y-85900000D01*
X155333333Y-85852380D01*
X155571428Y-85852380D01*
X155666666Y-85900000D01*
X155714285Y-85947619D01*
X155761904Y-86042857D01*
X155761904Y-86138095D01*
X155714285Y-86280952D01*
X155142857Y-86852380D01*
X155761904Y-86852380D01*
X139257142Y-87619047D02*
X139304761Y-87666666D01*
X139352380Y-87809523D01*
X139352380Y-87904761D01*
X139304761Y-88047619D01*
X139209523Y-88142857D01*
X139114285Y-88190476D01*
X138923809Y-88238095D01*
X138780952Y-88238095D01*
X138590476Y-88190476D01*
X138495238Y-88142857D01*
X138400000Y-88047619D01*
X138352380Y-87904761D01*
X138352380Y-87809523D01*
X138400000Y-87666666D01*
X138447619Y-87619047D01*
X138685714Y-86761904D02*
X139352380Y-86761904D01*
X138304761Y-87000000D02*
X139019047Y-87238095D01*
X139019047Y-86619047D01*
X138352380Y-86047619D02*
X138352380Y-85952380D01*
X138400000Y-85857142D01*
X138447619Y-85809523D01*
X138542857Y-85761904D01*
X138733333Y-85714285D01*
X138971428Y-85714285D01*
X139161904Y-85761904D01*
X139257142Y-85809523D01*
X139304761Y-85857142D01*
X139352380Y-85952380D01*
X139352380Y-86047619D01*
X139304761Y-86142857D01*
X139257142Y-86190476D01*
X139161904Y-86238095D01*
X138971428Y-86285714D01*
X138733333Y-86285714D01*
X138542857Y-86238095D01*
X138447619Y-86190476D01*
X138400000Y-86142857D01*
X138352380Y-86047619D01*
X139352380Y-84761904D02*
X139352380Y-85333333D01*
X139352380Y-85047619D02*
X138352380Y-85047619D01*
X138495238Y-85142857D01*
X138590476Y-85238095D01*
X138638095Y-85333333D01*
X159157142Y-89319047D02*
X159204761Y-89366666D01*
X159252380Y-89509523D01*
X159252380Y-89604761D01*
X159204761Y-89747619D01*
X159109523Y-89842857D01*
X159014285Y-89890476D01*
X158823809Y-89938095D01*
X158680952Y-89938095D01*
X158490476Y-89890476D01*
X158395238Y-89842857D01*
X158300000Y-89747619D01*
X158252380Y-89604761D01*
X158252380Y-89509523D01*
X158300000Y-89366666D01*
X158347619Y-89319047D01*
X158585714Y-88461904D02*
X159252380Y-88461904D01*
X158204761Y-88700000D02*
X158919047Y-88938095D01*
X158919047Y-88319047D01*
X158252380Y-87747619D02*
X158252380Y-87652380D01*
X158300000Y-87557142D01*
X158347619Y-87509523D01*
X158442857Y-87461904D01*
X158633333Y-87414285D01*
X158871428Y-87414285D01*
X159061904Y-87461904D01*
X159157142Y-87509523D01*
X159204761Y-87557142D01*
X159252380Y-87652380D01*
X159252380Y-87747619D01*
X159204761Y-87842857D01*
X159157142Y-87890476D01*
X159061904Y-87938095D01*
X158871428Y-87985714D01*
X158633333Y-87985714D01*
X158442857Y-87938095D01*
X158347619Y-87890476D01*
X158300000Y-87842857D01*
X158252380Y-87747619D01*
X158585714Y-86557142D02*
X159252380Y-86557142D01*
X158204761Y-86795238D02*
X158919047Y-87033333D01*
X158919047Y-86414285D01*
X177657142Y-96628571D02*
X177990476Y-96628571D01*
X178133333Y-97152380D02*
X177657142Y-97152380D01*
X177657142Y-96152380D01*
X178133333Y-96152380D01*
X178466666Y-96152380D02*
X179085714Y-96152380D01*
X178752380Y-96533333D01*
X178895238Y-96533333D01*
X178990476Y-96580952D01*
X179038095Y-96628571D01*
X179085714Y-96723809D01*
X179085714Y-96961904D01*
X179038095Y-97057142D01*
X178990476Y-97104761D01*
X178895238Y-97152380D01*
X178609523Y-97152380D01*
X178514285Y-97104761D01*
X178466666Y-97057142D01*
X179704761Y-96152380D02*
X179800000Y-96152380D01*
X179895238Y-96200000D01*
X179942857Y-96247619D01*
X179990476Y-96342857D01*
X180038095Y-96533333D01*
X180038095Y-96771428D01*
X179990476Y-96961904D01*
X179942857Y-97057142D01*
X179895238Y-97104761D01*
X179800000Y-97152380D01*
X179704761Y-97152380D01*
X179609523Y-97104761D01*
X179561904Y-97057142D01*
X179514285Y-96961904D01*
X179466666Y-96771428D01*
X179466666Y-96533333D01*
X179514285Y-96342857D01*
X179561904Y-96247619D01*
X179609523Y-96200000D01*
X179704761Y-96152380D01*
X180942857Y-96152380D02*
X180466666Y-96152380D01*
X180419047Y-96628571D01*
X180466666Y-96580952D01*
X180561904Y-96533333D01*
X180800000Y-96533333D01*
X180895238Y-96580952D01*
X180942857Y-96628571D01*
X180990476Y-96723809D01*
X180990476Y-96961904D01*
X180942857Y-97057142D01*
X180895238Y-97104761D01*
X180800000Y-97152380D01*
X180561904Y-97152380D01*
X180466666Y-97104761D01*
X180419047Y-97057142D01*
X187218452Y-84157142D02*
X187170833Y-84204761D01*
X187027976Y-84252380D01*
X186932738Y-84252380D01*
X186789880Y-84204761D01*
X186694642Y-84109523D01*
X186647023Y-84014285D01*
X186599404Y-83823809D01*
X186599404Y-83680952D01*
X186647023Y-83490476D01*
X186694642Y-83395238D01*
X186789880Y-83300000D01*
X186932738Y-83252380D01*
X187027976Y-83252380D01*
X187170833Y-83300000D01*
X187218452Y-83347619D01*
X187551785Y-83252380D02*
X188170833Y-83252380D01*
X187837500Y-83633333D01*
X187980357Y-83633333D01*
X188075595Y-83680952D01*
X188123214Y-83728571D01*
X188170833Y-83823809D01*
X188170833Y-84061904D01*
X188123214Y-84157142D01*
X188075595Y-84204761D01*
X187980357Y-84252380D01*
X187694642Y-84252380D01*
X187599404Y-84204761D01*
X187551785Y-84157142D01*
X188551785Y-83347619D02*
X188599404Y-83300000D01*
X188694642Y-83252380D01*
X188932738Y-83252380D01*
X189027976Y-83300000D01*
X189075595Y-83347619D01*
X189123214Y-83442857D01*
X189123214Y-83538095D01*
X189075595Y-83680952D01*
X188504166Y-84252380D01*
X189123214Y-84252380D01*
X189742261Y-83252380D02*
X189837500Y-83252380D01*
X189932738Y-83300000D01*
X189980357Y-83347619D01*
X190027976Y-83442857D01*
X190075595Y-83633333D01*
X190075595Y-83871428D01*
X190027976Y-84061904D01*
X189980357Y-84157142D01*
X189932738Y-84204761D01*
X189837500Y-84252380D01*
X189742261Y-84252380D01*
X189647023Y-84204761D01*
X189599404Y-84157142D01*
X189551785Y-84061904D01*
X189504166Y-83871428D01*
X189504166Y-83633333D01*
X189551785Y-83442857D01*
X189599404Y-83347619D01*
X189647023Y-83300000D01*
X189742261Y-83252380D01*
X189352380Y-92919047D02*
X188876190Y-93252380D01*
X189352380Y-93490476D02*
X188352380Y-93490476D01*
X188352380Y-93109523D01*
X188400000Y-93014285D01*
X188447619Y-92966666D01*
X188542857Y-92919047D01*
X188685714Y-92919047D01*
X188780952Y-92966666D01*
X188828571Y-93014285D01*
X188876190Y-93109523D01*
X188876190Y-93490476D01*
X188352380Y-92585714D02*
X188352380Y-91966666D01*
X188733333Y-92300000D01*
X188733333Y-92157142D01*
X188780952Y-92061904D01*
X188828571Y-92014285D01*
X188923809Y-91966666D01*
X189161904Y-91966666D01*
X189257142Y-92014285D01*
X189304761Y-92061904D01*
X189352380Y-92157142D01*
X189352380Y-92442857D01*
X189304761Y-92538095D01*
X189257142Y-92585714D01*
X188352380Y-91347619D02*
X188352380Y-91252380D01*
X188400000Y-91157142D01*
X188447619Y-91109523D01*
X188542857Y-91061904D01*
X188733333Y-91014285D01*
X188971428Y-91014285D01*
X189161904Y-91061904D01*
X189257142Y-91109523D01*
X189304761Y-91157142D01*
X189352380Y-91252380D01*
X189352380Y-91347619D01*
X189304761Y-91442857D01*
X189257142Y-91490476D01*
X189161904Y-91538095D01*
X188971428Y-91585714D01*
X188733333Y-91585714D01*
X188542857Y-91538095D01*
X188447619Y-91490476D01*
X188400000Y-91442857D01*
X188352380Y-91347619D01*
X189352380Y-90538095D02*
X189352380Y-90347619D01*
X189304761Y-90252380D01*
X189257142Y-90204761D01*
X189114285Y-90109523D01*
X188923809Y-90061904D01*
X188542857Y-90061904D01*
X188447619Y-90109523D01*
X188400000Y-90157142D01*
X188352380Y-90252380D01*
X188352380Y-90442857D01*
X188400000Y-90538095D01*
X188447619Y-90585714D01*
X188542857Y-90633333D01*
X188780952Y-90633333D01*
X188876190Y-90585714D01*
X188923809Y-90538095D01*
X188971428Y-90442857D01*
X188971428Y-90252380D01*
X188923809Y-90157142D01*
X188876190Y-90109523D01*
X188780952Y-90061904D01*
X183080952Y-71527142D02*
X183033333Y-71574761D01*
X182890476Y-71622380D01*
X182795238Y-71622380D01*
X182652380Y-71574761D01*
X182557142Y-71479523D01*
X182509523Y-71384285D01*
X182461904Y-71193809D01*
X182461904Y-71050952D01*
X182509523Y-70860476D01*
X182557142Y-70765238D01*
X182652380Y-70670000D01*
X182795238Y-70622380D01*
X182890476Y-70622380D01*
X183033333Y-70670000D01*
X183080952Y-70717619D01*
X183414285Y-70622380D02*
X184033333Y-70622380D01*
X183700000Y-71003333D01*
X183842857Y-71003333D01*
X183938095Y-71050952D01*
X183985714Y-71098571D01*
X184033333Y-71193809D01*
X184033333Y-71431904D01*
X183985714Y-71527142D01*
X183938095Y-71574761D01*
X183842857Y-71622380D01*
X183557142Y-71622380D01*
X183461904Y-71574761D01*
X183414285Y-71527142D01*
X184652380Y-70622380D02*
X184747619Y-70622380D01*
X184842857Y-70670000D01*
X184890476Y-70717619D01*
X184938095Y-70812857D01*
X184985714Y-71003333D01*
X184985714Y-71241428D01*
X184938095Y-71431904D01*
X184890476Y-71527142D01*
X184842857Y-71574761D01*
X184747619Y-71622380D01*
X184652380Y-71622380D01*
X184557142Y-71574761D01*
X184509523Y-71527142D01*
X184461904Y-71431904D01*
X184414285Y-71241428D01*
X184414285Y-71003333D01*
X184461904Y-70812857D01*
X184509523Y-70717619D01*
X184557142Y-70670000D01*
X184652380Y-70622380D01*
X185319047Y-70622380D02*
X185985714Y-70622380D01*
X185557142Y-71622380D01*
X180028571Y-78342857D02*
X180028571Y-78009523D01*
X180552380Y-77866666D02*
X180552380Y-78342857D01*
X179552380Y-78342857D01*
X179552380Y-77866666D01*
X179552380Y-77533333D02*
X179552380Y-76914285D01*
X179933333Y-77247619D01*
X179933333Y-77104761D01*
X179980952Y-77009523D01*
X180028571Y-76961904D01*
X180123809Y-76914285D01*
X180361904Y-76914285D01*
X180457142Y-76961904D01*
X180504761Y-77009523D01*
X180552380Y-77104761D01*
X180552380Y-77390476D01*
X180504761Y-77485714D01*
X180457142Y-77533333D01*
X179552380Y-76295238D02*
X179552380Y-76200000D01*
X179600000Y-76104761D01*
X179647619Y-76057142D01*
X179742857Y-76009523D01*
X179933333Y-75961904D01*
X180171428Y-75961904D01*
X180361904Y-76009523D01*
X180457142Y-76057142D01*
X180504761Y-76104761D01*
X180552380Y-76200000D01*
X180552380Y-76295238D01*
X180504761Y-76390476D01*
X180457142Y-76438095D01*
X180361904Y-76485714D01*
X180171428Y-76533333D01*
X179933333Y-76533333D01*
X179742857Y-76485714D01*
X179647619Y-76438095D01*
X179600000Y-76390476D01*
X179552380Y-76295238D01*
X180552380Y-75009523D02*
X180552380Y-75580952D01*
X180552380Y-75295238D02*
X179552380Y-75295238D01*
X179695238Y-75390476D01*
X179790476Y-75485714D01*
X179838095Y-75580952D01*
X187457142Y-111028571D02*
X187790476Y-111028571D01*
X187933333Y-111552380D02*
X187457142Y-111552380D01*
X187457142Y-110552380D01*
X187933333Y-110552380D01*
X188266666Y-110552380D02*
X188885714Y-110552380D01*
X188552380Y-110933333D01*
X188695238Y-110933333D01*
X188790476Y-110980952D01*
X188838095Y-111028571D01*
X188885714Y-111123809D01*
X188885714Y-111361904D01*
X188838095Y-111457142D01*
X188790476Y-111504761D01*
X188695238Y-111552380D01*
X188409523Y-111552380D01*
X188314285Y-111504761D01*
X188266666Y-111457142D01*
X189504761Y-110552380D02*
X189600000Y-110552380D01*
X189695238Y-110600000D01*
X189742857Y-110647619D01*
X189790476Y-110742857D01*
X189838095Y-110933333D01*
X189838095Y-111171428D01*
X189790476Y-111361904D01*
X189742857Y-111457142D01*
X189695238Y-111504761D01*
X189600000Y-111552380D01*
X189504761Y-111552380D01*
X189409523Y-111504761D01*
X189361904Y-111457142D01*
X189314285Y-111361904D01*
X189266666Y-111171428D01*
X189266666Y-110933333D01*
X189314285Y-110742857D01*
X189361904Y-110647619D01*
X189409523Y-110600000D01*
X189504761Y-110552380D01*
X190171428Y-110552380D02*
X190790476Y-110552380D01*
X190457142Y-110933333D01*
X190600000Y-110933333D01*
X190695238Y-110980952D01*
X190742857Y-111028571D01*
X190790476Y-111123809D01*
X190790476Y-111361904D01*
X190742857Y-111457142D01*
X190695238Y-111504761D01*
X190600000Y-111552380D01*
X190314285Y-111552380D01*
X190219047Y-111504761D01*
X190171428Y-111457142D01*
X192757142Y-76519047D02*
X192804761Y-76566666D01*
X192852380Y-76709523D01*
X192852380Y-76804761D01*
X192804761Y-76947619D01*
X192709523Y-77042857D01*
X192614285Y-77090476D01*
X192423809Y-77138095D01*
X192280952Y-77138095D01*
X192090476Y-77090476D01*
X191995238Y-77042857D01*
X191900000Y-76947619D01*
X191852380Y-76804761D01*
X191852380Y-76709523D01*
X191900000Y-76566666D01*
X191947619Y-76519047D01*
X191852380Y-76185714D02*
X191852380Y-75566666D01*
X192233333Y-75900000D01*
X192233333Y-75757142D01*
X192280952Y-75661904D01*
X192328571Y-75614285D01*
X192423809Y-75566666D01*
X192661904Y-75566666D01*
X192757142Y-75614285D01*
X192804761Y-75661904D01*
X192852380Y-75757142D01*
X192852380Y-76042857D01*
X192804761Y-76138095D01*
X192757142Y-76185714D01*
X191852380Y-74947619D02*
X191852380Y-74852380D01*
X191900000Y-74757142D01*
X191947619Y-74709523D01*
X192042857Y-74661904D01*
X192233333Y-74614285D01*
X192471428Y-74614285D01*
X192661904Y-74661904D01*
X192757142Y-74709523D01*
X192804761Y-74757142D01*
X192852380Y-74852380D01*
X192852380Y-74947619D01*
X192804761Y-75042857D01*
X192757142Y-75090476D01*
X192661904Y-75138095D01*
X192471428Y-75185714D01*
X192233333Y-75185714D01*
X192042857Y-75138095D01*
X191947619Y-75090476D01*
X191900000Y-75042857D01*
X191852380Y-74947619D01*
X192185714Y-73757142D02*
X192852380Y-73757142D01*
X191804761Y-73995238D02*
X192519047Y-74233333D01*
X192519047Y-73614285D01*
X199252380Y-88714285D02*
X200061904Y-88714285D01*
X200157142Y-88666666D01*
X200204761Y-88619047D01*
X200252380Y-88523809D01*
X200252380Y-88333333D01*
X200204761Y-88238095D01*
X200157142Y-88190476D01*
X200061904Y-88142857D01*
X199252380Y-88142857D01*
X199252380Y-87761904D02*
X199252380Y-87142857D01*
X199633333Y-87476190D01*
X199633333Y-87333333D01*
X199680952Y-87238095D01*
X199728571Y-87190476D01*
X199823809Y-87142857D01*
X200061904Y-87142857D01*
X200157142Y-87190476D01*
X200204761Y-87238095D01*
X200252380Y-87333333D01*
X200252380Y-87619047D01*
X200204761Y-87714285D01*
X200157142Y-87761904D01*
X199252380Y-86523809D02*
X199252380Y-86428571D01*
X199300000Y-86333333D01*
X199347619Y-86285714D01*
X199442857Y-86238095D01*
X199633333Y-86190476D01*
X199871428Y-86190476D01*
X200061904Y-86238095D01*
X200157142Y-86285714D01*
X200204761Y-86333333D01*
X200252380Y-86428571D01*
X200252380Y-86523809D01*
X200204761Y-86619047D01*
X200157142Y-86666666D01*
X200061904Y-86714285D01*
X199871428Y-86761904D01*
X199633333Y-86761904D01*
X199442857Y-86714285D01*
X199347619Y-86666666D01*
X199300000Y-86619047D01*
X199252380Y-86523809D01*
X199585714Y-85333333D02*
X200252380Y-85333333D01*
X199204761Y-85571428D02*
X199919047Y-85809523D01*
X199919047Y-85190476D01*
X185552380Y-93019047D02*
X185076190Y-93352380D01*
X185552380Y-93590476D02*
X184552380Y-93590476D01*
X184552380Y-93209523D01*
X184600000Y-93114285D01*
X184647619Y-93066666D01*
X184742857Y-93019047D01*
X184885714Y-93019047D01*
X184980952Y-93066666D01*
X185028571Y-93114285D01*
X185076190Y-93209523D01*
X185076190Y-93590476D01*
X184552380Y-92685714D02*
X184552380Y-92066666D01*
X184933333Y-92400000D01*
X184933333Y-92257142D01*
X184980952Y-92161904D01*
X185028571Y-92114285D01*
X185123809Y-92066666D01*
X185361904Y-92066666D01*
X185457142Y-92114285D01*
X185504761Y-92161904D01*
X185552380Y-92257142D01*
X185552380Y-92542857D01*
X185504761Y-92638095D01*
X185457142Y-92685714D01*
X184552380Y-91447619D02*
X184552380Y-91352380D01*
X184600000Y-91257142D01*
X184647619Y-91209523D01*
X184742857Y-91161904D01*
X184933333Y-91114285D01*
X185171428Y-91114285D01*
X185361904Y-91161904D01*
X185457142Y-91209523D01*
X185504761Y-91257142D01*
X185552380Y-91352380D01*
X185552380Y-91447619D01*
X185504761Y-91542857D01*
X185457142Y-91590476D01*
X185361904Y-91638095D01*
X185171428Y-91685714D01*
X184933333Y-91685714D01*
X184742857Y-91638095D01*
X184647619Y-91590476D01*
X184600000Y-91542857D01*
X184552380Y-91447619D01*
X184980952Y-90542857D02*
X184933333Y-90638095D01*
X184885714Y-90685714D01*
X184790476Y-90733333D01*
X184742857Y-90733333D01*
X184647619Y-90685714D01*
X184600000Y-90638095D01*
X184552380Y-90542857D01*
X184552380Y-90352380D01*
X184600000Y-90257142D01*
X184647619Y-90209523D01*
X184742857Y-90161904D01*
X184790476Y-90161904D01*
X184885714Y-90209523D01*
X184933333Y-90257142D01*
X184980952Y-90352380D01*
X184980952Y-90542857D01*
X185028571Y-90638095D01*
X185076190Y-90685714D01*
X185171428Y-90733333D01*
X185361904Y-90733333D01*
X185457142Y-90685714D01*
X185504761Y-90638095D01*
X185552380Y-90542857D01*
X185552380Y-90352380D01*
X185504761Y-90257142D01*
X185457142Y-90209523D01*
X185361904Y-90161904D01*
X185171428Y-90161904D01*
X185076190Y-90209523D01*
X185028571Y-90257142D01*
X184980952Y-90352380D01*
X112452380Y-126314285D02*
X113261904Y-126314285D01*
X113357142Y-126266666D01*
X113404761Y-126219047D01*
X113452380Y-126123809D01*
X113452380Y-125933333D01*
X113404761Y-125838095D01*
X113357142Y-125790476D01*
X113261904Y-125742857D01*
X112452380Y-125742857D01*
X112452380Y-124838095D02*
X112452380Y-125028571D01*
X112500000Y-125123809D01*
X112547619Y-125171428D01*
X112690476Y-125266666D01*
X112880952Y-125314285D01*
X113261904Y-125314285D01*
X113357142Y-125266666D01*
X113404761Y-125219047D01*
X113452380Y-125123809D01*
X113452380Y-124933333D01*
X113404761Y-124838095D01*
X113357142Y-124790476D01*
X113261904Y-124742857D01*
X113023809Y-124742857D01*
X112928571Y-124790476D01*
X112880952Y-124838095D01*
X112833333Y-124933333D01*
X112833333Y-125123809D01*
X112880952Y-125219047D01*
X112928571Y-125266666D01*
X113023809Y-125314285D01*
X112452380Y-124123809D02*
X112452380Y-124028571D01*
X112500000Y-123933333D01*
X112547619Y-123885714D01*
X112642857Y-123838095D01*
X112833333Y-123790476D01*
X113071428Y-123790476D01*
X113261904Y-123838095D01*
X113357142Y-123885714D01*
X113404761Y-123933333D01*
X113452380Y-124028571D01*
X113452380Y-124123809D01*
X113404761Y-124219047D01*
X113357142Y-124266666D01*
X113261904Y-124314285D01*
X113071428Y-124361904D01*
X112833333Y-124361904D01*
X112642857Y-124314285D01*
X112547619Y-124266666D01*
X112500000Y-124219047D01*
X112452380Y-124123809D01*
X113452380Y-122838095D02*
X113452380Y-123409523D01*
X113452380Y-123123809D02*
X112452380Y-123123809D01*
X112595238Y-123219047D01*
X112690476Y-123314285D01*
X112738095Y-123409523D01*
X197480952Y-84457142D02*
X197433333Y-84504761D01*
X197290476Y-84552380D01*
X197195238Y-84552380D01*
X197052380Y-84504761D01*
X196957142Y-84409523D01*
X196909523Y-84314285D01*
X196861904Y-84123809D01*
X196861904Y-83980952D01*
X196909523Y-83790476D01*
X196957142Y-83695238D01*
X197052380Y-83600000D01*
X197195238Y-83552380D01*
X197290476Y-83552380D01*
X197433333Y-83600000D01*
X197480952Y-83647619D01*
X197814285Y-83552380D02*
X198433333Y-83552380D01*
X198100000Y-83933333D01*
X198242857Y-83933333D01*
X198338095Y-83980952D01*
X198385714Y-84028571D01*
X198433333Y-84123809D01*
X198433333Y-84361904D01*
X198385714Y-84457142D01*
X198338095Y-84504761D01*
X198242857Y-84552380D01*
X197957142Y-84552380D01*
X197861904Y-84504761D01*
X197814285Y-84457142D01*
X199385714Y-84552380D02*
X198814285Y-84552380D01*
X199100000Y-84552380D02*
X199100000Y-83552380D01*
X199004761Y-83695238D01*
X198909523Y-83790476D01*
X198814285Y-83838095D01*
X200004761Y-83552380D02*
X200100000Y-83552380D01*
X200195238Y-83600000D01*
X200242857Y-83647619D01*
X200290476Y-83742857D01*
X200338095Y-83933333D01*
X200338095Y-84171428D01*
X200290476Y-84361904D01*
X200242857Y-84457142D01*
X200195238Y-84504761D01*
X200100000Y-84552380D01*
X200004761Y-84552380D01*
X199909523Y-84504761D01*
X199861904Y-84457142D01*
X199814285Y-84361904D01*
X199766666Y-84171428D01*
X199766666Y-83933333D01*
X199814285Y-83742857D01*
X199861904Y-83647619D01*
X199909523Y-83600000D01*
X200004761Y-83552380D01*
X129452380Y-119319047D02*
X128976190Y-119652380D01*
X129452380Y-119890476D02*
X128452380Y-119890476D01*
X128452380Y-119509523D01*
X128500000Y-119414285D01*
X128547619Y-119366666D01*
X128642857Y-119319047D01*
X128785714Y-119319047D01*
X128880952Y-119366666D01*
X128928571Y-119414285D01*
X128976190Y-119509523D01*
X128976190Y-119890476D01*
X128452380Y-118461904D02*
X128452380Y-118652380D01*
X128500000Y-118747619D01*
X128547619Y-118795238D01*
X128690476Y-118890476D01*
X128880952Y-118938095D01*
X129261904Y-118938095D01*
X129357142Y-118890476D01*
X129404761Y-118842857D01*
X129452380Y-118747619D01*
X129452380Y-118557142D01*
X129404761Y-118461904D01*
X129357142Y-118414285D01*
X129261904Y-118366666D01*
X129023809Y-118366666D01*
X128928571Y-118414285D01*
X128880952Y-118461904D01*
X128833333Y-118557142D01*
X128833333Y-118747619D01*
X128880952Y-118842857D01*
X128928571Y-118890476D01*
X129023809Y-118938095D01*
X128452380Y-117747619D02*
X128452380Y-117652380D01*
X128500000Y-117557142D01*
X128547619Y-117509523D01*
X128642857Y-117461904D01*
X128833333Y-117414285D01*
X129071428Y-117414285D01*
X129261904Y-117461904D01*
X129357142Y-117509523D01*
X129404761Y-117557142D01*
X129452380Y-117652380D01*
X129452380Y-117747619D01*
X129404761Y-117842857D01*
X129357142Y-117890476D01*
X129261904Y-117938095D01*
X129071428Y-117985714D01*
X128833333Y-117985714D01*
X128642857Y-117938095D01*
X128547619Y-117890476D01*
X128500000Y-117842857D01*
X128452380Y-117747619D01*
X128452380Y-116557142D02*
X128452380Y-116747619D01*
X128500000Y-116842857D01*
X128547619Y-116890476D01*
X128690476Y-116985714D01*
X128880952Y-117033333D01*
X129261904Y-117033333D01*
X129357142Y-116985714D01*
X129404761Y-116938095D01*
X129452380Y-116842857D01*
X129452380Y-116652380D01*
X129404761Y-116557142D01*
X129357142Y-116509523D01*
X129261904Y-116461904D01*
X129023809Y-116461904D01*
X128928571Y-116509523D01*
X128880952Y-116557142D01*
X128833333Y-116652380D01*
X128833333Y-116842857D01*
X128880952Y-116938095D01*
X128928571Y-116985714D01*
X129023809Y-117033333D01*
X200214285Y-64752380D02*
X200214285Y-65466666D01*
X200166666Y-65609523D01*
X200071428Y-65704761D01*
X199928571Y-65752380D01*
X199833333Y-65752380D01*
X200595238Y-64752380D02*
X201214285Y-64752380D01*
X200880952Y-65133333D01*
X201023809Y-65133333D01*
X201119047Y-65180952D01*
X201166666Y-65228571D01*
X201214285Y-65323809D01*
X201214285Y-65561904D01*
X201166666Y-65657142D01*
X201119047Y-65704761D01*
X201023809Y-65752380D01*
X200738095Y-65752380D01*
X200642857Y-65704761D01*
X200595238Y-65657142D01*
X201833333Y-64752380D02*
X201928571Y-64752380D01*
X202023809Y-64800000D01*
X202071428Y-64847619D01*
X202119047Y-64942857D01*
X202166666Y-65133333D01*
X202166666Y-65371428D01*
X202119047Y-65561904D01*
X202071428Y-65657142D01*
X202023809Y-65704761D01*
X201928571Y-65752380D01*
X201833333Y-65752380D01*
X201738095Y-65704761D01*
X201690476Y-65657142D01*
X201642857Y-65561904D01*
X201595238Y-65371428D01*
X201595238Y-65133333D01*
X201642857Y-64942857D01*
X201690476Y-64847619D01*
X201738095Y-64800000D01*
X201833333Y-64752380D01*
X203119047Y-65752380D02*
X202547619Y-65752380D01*
X202833333Y-65752380D02*
X202833333Y-64752380D01*
X202738095Y-64895238D01*
X202642857Y-64990476D01*
X202547619Y-65038095D01*
X187280952Y-77052380D02*
X186947619Y-76576190D01*
X186709523Y-77052380D02*
X186709523Y-76052380D01*
X187090476Y-76052380D01*
X187185714Y-76100000D01*
X187233333Y-76147619D01*
X187280952Y-76242857D01*
X187280952Y-76385714D01*
X187233333Y-76480952D01*
X187185714Y-76528571D01*
X187090476Y-76576190D01*
X186709523Y-76576190D01*
X187614285Y-76052380D02*
X188233333Y-76052380D01*
X187900000Y-76433333D01*
X188042857Y-76433333D01*
X188138095Y-76480952D01*
X188185714Y-76528571D01*
X188233333Y-76623809D01*
X188233333Y-76861904D01*
X188185714Y-76957142D01*
X188138095Y-77004761D01*
X188042857Y-77052380D01*
X187757142Y-77052380D01*
X187661904Y-77004761D01*
X187614285Y-76957142D01*
X188852380Y-76052380D02*
X188947619Y-76052380D01*
X189042857Y-76100000D01*
X189090476Y-76147619D01*
X189138095Y-76242857D01*
X189185714Y-76433333D01*
X189185714Y-76671428D01*
X189138095Y-76861904D01*
X189090476Y-76957142D01*
X189042857Y-77004761D01*
X188947619Y-77052380D01*
X188852380Y-77052380D01*
X188757142Y-77004761D01*
X188709523Y-76957142D01*
X188661904Y-76861904D01*
X188614285Y-76671428D01*
X188614285Y-76433333D01*
X188661904Y-76242857D01*
X188709523Y-76147619D01*
X188757142Y-76100000D01*
X188852380Y-76052380D01*
X189566666Y-76147619D02*
X189614285Y-76100000D01*
X189709523Y-76052380D01*
X189947619Y-76052380D01*
X190042857Y-76100000D01*
X190090476Y-76147619D01*
X190138095Y-76242857D01*
X190138095Y-76338095D01*
X190090476Y-76480952D01*
X189519047Y-77052380D01*
X190138095Y-77052380D01*
X202457142Y-92119047D02*
X202504761Y-92166666D01*
X202552380Y-92309523D01*
X202552380Y-92404761D01*
X202504761Y-92547619D01*
X202409523Y-92642857D01*
X202314285Y-92690476D01*
X202123809Y-92738095D01*
X201980952Y-92738095D01*
X201790476Y-92690476D01*
X201695238Y-92642857D01*
X201600000Y-92547619D01*
X201552380Y-92404761D01*
X201552380Y-92309523D01*
X201600000Y-92166666D01*
X201647619Y-92119047D01*
X201552380Y-91785714D02*
X201552380Y-91166666D01*
X201933333Y-91500000D01*
X201933333Y-91357142D01*
X201980952Y-91261904D01*
X202028571Y-91214285D01*
X202123809Y-91166666D01*
X202361904Y-91166666D01*
X202457142Y-91214285D01*
X202504761Y-91261904D01*
X202552380Y-91357142D01*
X202552380Y-91642857D01*
X202504761Y-91738095D01*
X202457142Y-91785714D01*
X201552380Y-90547619D02*
X201552380Y-90452380D01*
X201600000Y-90357142D01*
X201647619Y-90309523D01*
X201742857Y-90261904D01*
X201933333Y-90214285D01*
X202171428Y-90214285D01*
X202361904Y-90261904D01*
X202457142Y-90309523D01*
X202504761Y-90357142D01*
X202552380Y-90452380D01*
X202552380Y-90547619D01*
X202504761Y-90642857D01*
X202457142Y-90690476D01*
X202361904Y-90738095D01*
X202171428Y-90785714D01*
X201933333Y-90785714D01*
X201742857Y-90738095D01*
X201647619Y-90690476D01*
X201600000Y-90642857D01*
X201552380Y-90547619D01*
X201980952Y-89642857D02*
X201933333Y-89738095D01*
X201885714Y-89785714D01*
X201790476Y-89833333D01*
X201742857Y-89833333D01*
X201647619Y-89785714D01*
X201600000Y-89738095D01*
X201552380Y-89642857D01*
X201552380Y-89452380D01*
X201600000Y-89357142D01*
X201647619Y-89309523D01*
X201742857Y-89261904D01*
X201790476Y-89261904D01*
X201885714Y-89309523D01*
X201933333Y-89357142D01*
X201980952Y-89452380D01*
X201980952Y-89642857D01*
X202028571Y-89738095D01*
X202076190Y-89785714D01*
X202171428Y-89833333D01*
X202361904Y-89833333D01*
X202457142Y-89785714D01*
X202504761Y-89738095D01*
X202552380Y-89642857D01*
X202552380Y-89452380D01*
X202504761Y-89357142D01*
X202457142Y-89309523D01*
X202361904Y-89261904D01*
X202171428Y-89261904D01*
X202076190Y-89309523D01*
X202028571Y-89357142D01*
X201980952Y-89452380D01*
X186780952Y-104752380D02*
X186447619Y-104276190D01*
X186209523Y-104752380D02*
X186209523Y-103752380D01*
X186590476Y-103752380D01*
X186685714Y-103800000D01*
X186733333Y-103847619D01*
X186780952Y-103942857D01*
X186780952Y-104085714D01*
X186733333Y-104180952D01*
X186685714Y-104228571D01*
X186590476Y-104276190D01*
X186209523Y-104276190D01*
X187114285Y-103752380D02*
X187733333Y-103752380D01*
X187400000Y-104133333D01*
X187542857Y-104133333D01*
X187638095Y-104180952D01*
X187685714Y-104228571D01*
X187733333Y-104323809D01*
X187733333Y-104561904D01*
X187685714Y-104657142D01*
X187638095Y-104704761D01*
X187542857Y-104752380D01*
X187257142Y-104752380D01*
X187161904Y-104704761D01*
X187114285Y-104657142D01*
X188352380Y-103752380D02*
X188447619Y-103752380D01*
X188542857Y-103800000D01*
X188590476Y-103847619D01*
X188638095Y-103942857D01*
X188685714Y-104133333D01*
X188685714Y-104371428D01*
X188638095Y-104561904D01*
X188590476Y-104657142D01*
X188542857Y-104704761D01*
X188447619Y-104752380D01*
X188352380Y-104752380D01*
X188257142Y-104704761D01*
X188209523Y-104657142D01*
X188161904Y-104561904D01*
X188114285Y-104371428D01*
X188114285Y-104133333D01*
X188161904Y-103942857D01*
X188209523Y-103847619D01*
X188257142Y-103800000D01*
X188352380Y-103752380D01*
X189542857Y-104085714D02*
X189542857Y-104752380D01*
X189304761Y-103704761D02*
X189066666Y-104419047D01*
X189685714Y-104419047D01*
X191252380Y-93514285D02*
X192061904Y-93514285D01*
X192157142Y-93466666D01*
X192204761Y-93419047D01*
X192252380Y-93323809D01*
X192252380Y-93133333D01*
X192204761Y-93038095D01*
X192157142Y-92990476D01*
X192061904Y-92942857D01*
X191252380Y-92942857D01*
X191252380Y-92561904D02*
X191252380Y-91942857D01*
X191633333Y-92276190D01*
X191633333Y-92133333D01*
X191680952Y-92038095D01*
X191728571Y-91990476D01*
X191823809Y-91942857D01*
X192061904Y-91942857D01*
X192157142Y-91990476D01*
X192204761Y-92038095D01*
X192252380Y-92133333D01*
X192252380Y-92419047D01*
X192204761Y-92514285D01*
X192157142Y-92561904D01*
X191252380Y-91323809D02*
X191252380Y-91228571D01*
X191300000Y-91133333D01*
X191347619Y-91085714D01*
X191442857Y-91038095D01*
X191633333Y-90990476D01*
X191871428Y-90990476D01*
X192061904Y-91038095D01*
X192157142Y-91085714D01*
X192204761Y-91133333D01*
X192252380Y-91228571D01*
X192252380Y-91323809D01*
X192204761Y-91419047D01*
X192157142Y-91466666D01*
X192061904Y-91514285D01*
X191871428Y-91561904D01*
X191633333Y-91561904D01*
X191442857Y-91514285D01*
X191347619Y-91466666D01*
X191300000Y-91419047D01*
X191252380Y-91323809D01*
X191252380Y-90133333D02*
X191252380Y-90323809D01*
X191300000Y-90419047D01*
X191347619Y-90466666D01*
X191490476Y-90561904D01*
X191680952Y-90609523D01*
X192061904Y-90609523D01*
X192157142Y-90561904D01*
X192204761Y-90514285D01*
X192252380Y-90419047D01*
X192252380Y-90228571D01*
X192204761Y-90133333D01*
X192157142Y-90085714D01*
X192061904Y-90038095D01*
X191823809Y-90038095D01*
X191728571Y-90085714D01*
X191680952Y-90133333D01*
X191633333Y-90228571D01*
X191633333Y-90419047D01*
X191680952Y-90514285D01*
X191728571Y-90561904D01*
X191823809Y-90609523D01*
X174037142Y-106119047D02*
X174084761Y-106166666D01*
X174132380Y-106309523D01*
X174132380Y-106404761D01*
X174084761Y-106547619D01*
X173989523Y-106642857D01*
X173894285Y-106690476D01*
X173703809Y-106738095D01*
X173560952Y-106738095D01*
X173370476Y-106690476D01*
X173275238Y-106642857D01*
X173180000Y-106547619D01*
X173132380Y-106404761D01*
X173132380Y-106309523D01*
X173180000Y-106166666D01*
X173227619Y-106119047D01*
X173132380Y-105785714D02*
X173132380Y-105166666D01*
X173513333Y-105500000D01*
X173513333Y-105357142D01*
X173560952Y-105261904D01*
X173608571Y-105214285D01*
X173703809Y-105166666D01*
X173941904Y-105166666D01*
X174037142Y-105214285D01*
X174084761Y-105261904D01*
X174132380Y-105357142D01*
X174132380Y-105642857D01*
X174084761Y-105738095D01*
X174037142Y-105785714D01*
X173132380Y-104547619D02*
X173132380Y-104452380D01*
X173180000Y-104357142D01*
X173227619Y-104309523D01*
X173322857Y-104261904D01*
X173513333Y-104214285D01*
X173751428Y-104214285D01*
X173941904Y-104261904D01*
X174037142Y-104309523D01*
X174084761Y-104357142D01*
X174132380Y-104452380D01*
X174132380Y-104547619D01*
X174084761Y-104642857D01*
X174037142Y-104690476D01*
X173941904Y-104738095D01*
X173751428Y-104785714D01*
X173513333Y-104785714D01*
X173322857Y-104738095D01*
X173227619Y-104690476D01*
X173180000Y-104642857D01*
X173132380Y-104547619D01*
X173132380Y-103880952D02*
X173132380Y-103261904D01*
X173513333Y-103595238D01*
X173513333Y-103452380D01*
X173560952Y-103357142D01*
X173608571Y-103309523D01*
X173703809Y-103261904D01*
X173941904Y-103261904D01*
X174037142Y-103309523D01*
X174084761Y-103357142D01*
X174132380Y-103452380D01*
X174132380Y-103738095D01*
X174084761Y-103833333D01*
X174037142Y-103880952D01*
X190880952Y-99602380D02*
X190547619Y-99126190D01*
X190309523Y-99602380D02*
X190309523Y-98602380D01*
X190690476Y-98602380D01*
X190785714Y-98650000D01*
X190833333Y-98697619D01*
X190880952Y-98792857D01*
X190880952Y-98935714D01*
X190833333Y-99030952D01*
X190785714Y-99078571D01*
X190690476Y-99126190D01*
X190309523Y-99126190D01*
X191214285Y-98602380D02*
X191833333Y-98602380D01*
X191500000Y-98983333D01*
X191642857Y-98983333D01*
X191738095Y-99030952D01*
X191785714Y-99078571D01*
X191833333Y-99173809D01*
X191833333Y-99411904D01*
X191785714Y-99507142D01*
X191738095Y-99554761D01*
X191642857Y-99602380D01*
X191357142Y-99602380D01*
X191261904Y-99554761D01*
X191214285Y-99507142D01*
X192452380Y-98602380D02*
X192547619Y-98602380D01*
X192642857Y-98650000D01*
X192690476Y-98697619D01*
X192738095Y-98792857D01*
X192785714Y-98983333D01*
X192785714Y-99221428D01*
X192738095Y-99411904D01*
X192690476Y-99507142D01*
X192642857Y-99554761D01*
X192547619Y-99602380D01*
X192452380Y-99602380D01*
X192357142Y-99554761D01*
X192309523Y-99507142D01*
X192261904Y-99411904D01*
X192214285Y-99221428D01*
X192214285Y-98983333D01*
X192261904Y-98792857D01*
X192309523Y-98697619D01*
X192357142Y-98650000D01*
X192452380Y-98602380D01*
X193690476Y-98602380D02*
X193214285Y-98602380D01*
X193166666Y-99078571D01*
X193214285Y-99030952D01*
X193309523Y-98983333D01*
X193547619Y-98983333D01*
X193642857Y-99030952D01*
X193690476Y-99078571D01*
X193738095Y-99173809D01*
X193738095Y-99411904D01*
X193690476Y-99507142D01*
X193642857Y-99554761D01*
X193547619Y-99602380D01*
X193309523Y-99602380D01*
X193214285Y-99554761D01*
X193166666Y-99507142D01*
X119452380Y-117119047D02*
X118976190Y-117452380D01*
X119452380Y-117690476D02*
X118452380Y-117690476D01*
X118452380Y-117309523D01*
X118500000Y-117214285D01*
X118547619Y-117166666D01*
X118642857Y-117119047D01*
X118785714Y-117119047D01*
X118880952Y-117166666D01*
X118928571Y-117214285D01*
X118976190Y-117309523D01*
X118976190Y-117690476D01*
X118452380Y-116261904D02*
X118452380Y-116452380D01*
X118500000Y-116547619D01*
X118547619Y-116595238D01*
X118690476Y-116690476D01*
X118880952Y-116738095D01*
X119261904Y-116738095D01*
X119357142Y-116690476D01*
X119404761Y-116642857D01*
X119452380Y-116547619D01*
X119452380Y-116357142D01*
X119404761Y-116261904D01*
X119357142Y-116214285D01*
X119261904Y-116166666D01*
X119023809Y-116166666D01*
X118928571Y-116214285D01*
X118880952Y-116261904D01*
X118833333Y-116357142D01*
X118833333Y-116547619D01*
X118880952Y-116642857D01*
X118928571Y-116690476D01*
X119023809Y-116738095D01*
X118452380Y-115547619D02*
X118452380Y-115452380D01*
X118500000Y-115357142D01*
X118547619Y-115309523D01*
X118642857Y-115261904D01*
X118833333Y-115214285D01*
X119071428Y-115214285D01*
X119261904Y-115261904D01*
X119357142Y-115309523D01*
X119404761Y-115357142D01*
X119452380Y-115452380D01*
X119452380Y-115547619D01*
X119404761Y-115642857D01*
X119357142Y-115690476D01*
X119261904Y-115738095D01*
X119071428Y-115785714D01*
X118833333Y-115785714D01*
X118642857Y-115738095D01*
X118547619Y-115690476D01*
X118500000Y-115642857D01*
X118452380Y-115547619D01*
X118452380Y-114880952D02*
X118452380Y-114214285D01*
X119452380Y-114642857D01*
X189880952Y-116157142D02*
X189833333Y-116204761D01*
X189690476Y-116252380D01*
X189595238Y-116252380D01*
X189452380Y-116204761D01*
X189357142Y-116109523D01*
X189309523Y-116014285D01*
X189261904Y-115823809D01*
X189261904Y-115680952D01*
X189309523Y-115490476D01*
X189357142Y-115395238D01*
X189452380Y-115300000D01*
X189595238Y-115252380D01*
X189690476Y-115252380D01*
X189833333Y-115300000D01*
X189880952Y-115347619D01*
X190214285Y-115252380D02*
X190833333Y-115252380D01*
X190500000Y-115633333D01*
X190642857Y-115633333D01*
X190738095Y-115680952D01*
X190785714Y-115728571D01*
X190833333Y-115823809D01*
X190833333Y-116061904D01*
X190785714Y-116157142D01*
X190738095Y-116204761D01*
X190642857Y-116252380D01*
X190357142Y-116252380D01*
X190261904Y-116204761D01*
X190214285Y-116157142D01*
X191785714Y-116252380D02*
X191214285Y-116252380D01*
X191500000Y-116252380D02*
X191500000Y-115252380D01*
X191404761Y-115395238D01*
X191309523Y-115490476D01*
X191214285Y-115538095D01*
X192119047Y-115252380D02*
X192738095Y-115252380D01*
X192404761Y-115633333D01*
X192547619Y-115633333D01*
X192642857Y-115680952D01*
X192690476Y-115728571D01*
X192738095Y-115823809D01*
X192738095Y-116061904D01*
X192690476Y-116157142D01*
X192642857Y-116204761D01*
X192547619Y-116252380D01*
X192261904Y-116252380D01*
X192166666Y-116204761D01*
X192119047Y-116157142D01*
X111102380Y-117119047D02*
X110626190Y-117452380D01*
X111102380Y-117690476D02*
X110102380Y-117690476D01*
X110102380Y-117309523D01*
X110150000Y-117214285D01*
X110197619Y-117166666D01*
X110292857Y-117119047D01*
X110435714Y-117119047D01*
X110530952Y-117166666D01*
X110578571Y-117214285D01*
X110626190Y-117309523D01*
X110626190Y-117690476D01*
X110102380Y-116261904D02*
X110102380Y-116452380D01*
X110150000Y-116547619D01*
X110197619Y-116595238D01*
X110340476Y-116690476D01*
X110530952Y-116738095D01*
X110911904Y-116738095D01*
X111007142Y-116690476D01*
X111054761Y-116642857D01*
X111102380Y-116547619D01*
X111102380Y-116357142D01*
X111054761Y-116261904D01*
X111007142Y-116214285D01*
X110911904Y-116166666D01*
X110673809Y-116166666D01*
X110578571Y-116214285D01*
X110530952Y-116261904D01*
X110483333Y-116357142D01*
X110483333Y-116547619D01*
X110530952Y-116642857D01*
X110578571Y-116690476D01*
X110673809Y-116738095D01*
X110102380Y-115547619D02*
X110102380Y-115452380D01*
X110150000Y-115357142D01*
X110197619Y-115309523D01*
X110292857Y-115261904D01*
X110483333Y-115214285D01*
X110721428Y-115214285D01*
X110911904Y-115261904D01*
X111007142Y-115309523D01*
X111054761Y-115357142D01*
X111102380Y-115452380D01*
X111102380Y-115547619D01*
X111054761Y-115642857D01*
X111007142Y-115690476D01*
X110911904Y-115738095D01*
X110721428Y-115785714D01*
X110483333Y-115785714D01*
X110292857Y-115738095D01*
X110197619Y-115690476D01*
X110150000Y-115642857D01*
X110102380Y-115547619D01*
X110197619Y-114833333D02*
X110150000Y-114785714D01*
X110102380Y-114690476D01*
X110102380Y-114452380D01*
X110150000Y-114357142D01*
X110197619Y-114309523D01*
X110292857Y-114261904D01*
X110388095Y-114261904D01*
X110530952Y-114309523D01*
X111102380Y-114880952D01*
X111102380Y-114261904D01*
X125080952Y-125252380D02*
X124747619Y-124776190D01*
X124509523Y-125252380D02*
X124509523Y-124252380D01*
X124890476Y-124252380D01*
X124985714Y-124300000D01*
X125033333Y-124347619D01*
X125080952Y-124442857D01*
X125080952Y-124585714D01*
X125033333Y-124680952D01*
X124985714Y-124728571D01*
X124890476Y-124776190D01*
X124509523Y-124776190D01*
X125938095Y-124252380D02*
X125747619Y-124252380D01*
X125652380Y-124300000D01*
X125604761Y-124347619D01*
X125509523Y-124490476D01*
X125461904Y-124680952D01*
X125461904Y-125061904D01*
X125509523Y-125157142D01*
X125557142Y-125204761D01*
X125652380Y-125252380D01*
X125842857Y-125252380D01*
X125938095Y-125204761D01*
X125985714Y-125157142D01*
X126033333Y-125061904D01*
X126033333Y-124823809D01*
X125985714Y-124728571D01*
X125938095Y-124680952D01*
X125842857Y-124633333D01*
X125652380Y-124633333D01*
X125557142Y-124680952D01*
X125509523Y-124728571D01*
X125461904Y-124823809D01*
X126652380Y-124252380D02*
X126747619Y-124252380D01*
X126842857Y-124300000D01*
X126890476Y-124347619D01*
X126938095Y-124442857D01*
X126985714Y-124633333D01*
X126985714Y-124871428D01*
X126938095Y-125061904D01*
X126890476Y-125157142D01*
X126842857Y-125204761D01*
X126747619Y-125252380D01*
X126652380Y-125252380D01*
X126557142Y-125204761D01*
X126509523Y-125157142D01*
X126461904Y-125061904D01*
X126414285Y-124871428D01*
X126414285Y-124633333D01*
X126461904Y-124442857D01*
X126509523Y-124347619D01*
X126557142Y-124300000D01*
X126652380Y-124252380D01*
X127319047Y-124252380D02*
X127938095Y-124252380D01*
X127604761Y-124633333D01*
X127747619Y-124633333D01*
X127842857Y-124680952D01*
X127890476Y-124728571D01*
X127938095Y-124823809D01*
X127938095Y-125061904D01*
X127890476Y-125157142D01*
X127842857Y-125204761D01*
X127747619Y-125252380D01*
X127461904Y-125252380D01*
X127366666Y-125204761D01*
X127319047Y-125157142D01*
X170880952Y-96677142D02*
X170833333Y-96724761D01*
X170690476Y-96772380D01*
X170595238Y-96772380D01*
X170452380Y-96724761D01*
X170357142Y-96629523D01*
X170309523Y-96534285D01*
X170261904Y-96343809D01*
X170261904Y-96200952D01*
X170309523Y-96010476D01*
X170357142Y-95915238D01*
X170452380Y-95820000D01*
X170595238Y-95772380D01*
X170690476Y-95772380D01*
X170833333Y-95820000D01*
X170880952Y-95867619D01*
X171214285Y-95772380D02*
X171833333Y-95772380D01*
X171500000Y-96153333D01*
X171642857Y-96153333D01*
X171738095Y-96200952D01*
X171785714Y-96248571D01*
X171833333Y-96343809D01*
X171833333Y-96581904D01*
X171785714Y-96677142D01*
X171738095Y-96724761D01*
X171642857Y-96772380D01*
X171357142Y-96772380D01*
X171261904Y-96724761D01*
X171214285Y-96677142D01*
X172452380Y-95772380D02*
X172547619Y-95772380D01*
X172642857Y-95820000D01*
X172690476Y-95867619D01*
X172738095Y-95962857D01*
X172785714Y-96153333D01*
X172785714Y-96391428D01*
X172738095Y-96581904D01*
X172690476Y-96677142D01*
X172642857Y-96724761D01*
X172547619Y-96772380D01*
X172452380Y-96772380D01*
X172357142Y-96724761D01*
X172309523Y-96677142D01*
X172261904Y-96581904D01*
X172214285Y-96391428D01*
X172214285Y-96153333D01*
X172261904Y-95962857D01*
X172309523Y-95867619D01*
X172357142Y-95820000D01*
X172452380Y-95772380D01*
X173642857Y-95772380D02*
X173452380Y-95772380D01*
X173357142Y-95820000D01*
X173309523Y-95867619D01*
X173214285Y-96010476D01*
X173166666Y-96200952D01*
X173166666Y-96581904D01*
X173214285Y-96677142D01*
X173261904Y-96724761D01*
X173357142Y-96772380D01*
X173547619Y-96772380D01*
X173642857Y-96724761D01*
X173690476Y-96677142D01*
X173738095Y-96581904D01*
X173738095Y-96343809D01*
X173690476Y-96248571D01*
X173642857Y-96200952D01*
X173547619Y-96153333D01*
X173357142Y-96153333D01*
X173261904Y-96200952D01*
X173214285Y-96248571D01*
X173166666Y-96343809D01*
D12*
X112593714Y-118282714D02*
X112593714Y-118899571D01*
X112630000Y-118972142D01*
X112666285Y-119008428D01*
X112738857Y-119044714D01*
X112884000Y-119044714D01*
X112956571Y-119008428D01*
X112992857Y-118972142D01*
X113029142Y-118899571D01*
X113029142Y-118282714D01*
X113718571Y-118282714D02*
X113573428Y-118282714D01*
X113500857Y-118319000D01*
X113464571Y-118355285D01*
X113392000Y-118464142D01*
X113355714Y-118609285D01*
X113355714Y-118899571D01*
X113392000Y-118972142D01*
X113428285Y-119008428D01*
X113500857Y-119044714D01*
X113646000Y-119044714D01*
X113718571Y-119008428D01*
X113754857Y-118972142D01*
X113791142Y-118899571D01*
X113791142Y-118718142D01*
X113754857Y-118645571D01*
X113718571Y-118609285D01*
X113646000Y-118573000D01*
X113500857Y-118573000D01*
X113428285Y-118609285D01*
X113392000Y-118645571D01*
X113355714Y-118718142D01*
X114262857Y-118282714D02*
X114335428Y-118282714D01*
X114408000Y-118319000D01*
X114444285Y-118355285D01*
X114480571Y-118427857D01*
X114516857Y-118573000D01*
X114516857Y-118754428D01*
X114480571Y-118899571D01*
X114444285Y-118972142D01*
X114408000Y-119008428D01*
X114335428Y-119044714D01*
X114262857Y-119044714D01*
X114190285Y-119008428D01*
X114154000Y-118972142D01*
X114117714Y-118899571D01*
X114081428Y-118754428D01*
X114081428Y-118573000D01*
X114117714Y-118427857D01*
X114154000Y-118355285D01*
X114190285Y-118319000D01*
X114262857Y-118282714D01*
X114807142Y-118355285D02*
X114843428Y-118319000D01*
X114916000Y-118282714D01*
X115097428Y-118282714D01*
X115170000Y-118319000D01*
X115206285Y-118355285D01*
X115242571Y-118427857D01*
X115242571Y-118500428D01*
X115206285Y-118609285D01*
X114770857Y-119044714D01*
X115242571Y-119044714D01*
D11*
X189680952Y-71002380D02*
X189347619Y-70526190D01*
X189109523Y-71002380D02*
X189109523Y-70002380D01*
X189490476Y-70002380D01*
X189585714Y-70050000D01*
X189633333Y-70097619D01*
X189680952Y-70192857D01*
X189680952Y-70335714D01*
X189633333Y-70430952D01*
X189585714Y-70478571D01*
X189490476Y-70526190D01*
X189109523Y-70526190D01*
X190014285Y-70002380D02*
X190633333Y-70002380D01*
X190300000Y-70383333D01*
X190442857Y-70383333D01*
X190538095Y-70430952D01*
X190585714Y-70478571D01*
X190633333Y-70573809D01*
X190633333Y-70811904D01*
X190585714Y-70907142D01*
X190538095Y-70954761D01*
X190442857Y-71002380D01*
X190157142Y-71002380D01*
X190061904Y-70954761D01*
X190014285Y-70907142D01*
X191252380Y-70002380D02*
X191347619Y-70002380D01*
X191442857Y-70050000D01*
X191490476Y-70097619D01*
X191538095Y-70192857D01*
X191585714Y-70383333D01*
X191585714Y-70621428D01*
X191538095Y-70811904D01*
X191490476Y-70907142D01*
X191442857Y-70954761D01*
X191347619Y-71002380D01*
X191252380Y-71002380D01*
X191157142Y-70954761D01*
X191109523Y-70907142D01*
X191061904Y-70811904D01*
X191014285Y-70621428D01*
X191014285Y-70383333D01*
X191061904Y-70192857D01*
X191109523Y-70097619D01*
X191157142Y-70050000D01*
X191252380Y-70002380D01*
X192538095Y-71002380D02*
X191966666Y-71002380D01*
X192252380Y-71002380D02*
X192252380Y-70002380D01*
X192157142Y-70145238D01*
X192061904Y-70240476D01*
X191966666Y-70288095D01*
X190957142Y-97619047D02*
X191004761Y-97666666D01*
X191052380Y-97809523D01*
X191052380Y-97904761D01*
X191004761Y-98047619D01*
X190909523Y-98142857D01*
X190814285Y-98190476D01*
X190623809Y-98238095D01*
X190480952Y-98238095D01*
X190290476Y-98190476D01*
X190195238Y-98142857D01*
X190100000Y-98047619D01*
X190052380Y-97904761D01*
X190052380Y-97809523D01*
X190100000Y-97666666D01*
X190147619Y-97619047D01*
X190052380Y-97285714D02*
X190052380Y-96666666D01*
X190433333Y-97000000D01*
X190433333Y-96857142D01*
X190480952Y-96761904D01*
X190528571Y-96714285D01*
X190623809Y-96666666D01*
X190861904Y-96666666D01*
X190957142Y-96714285D01*
X191004761Y-96761904D01*
X191052380Y-96857142D01*
X191052380Y-97142857D01*
X191004761Y-97238095D01*
X190957142Y-97285714D01*
X191052380Y-95714285D02*
X191052380Y-96285714D01*
X191052380Y-96000000D02*
X190052380Y-96000000D01*
X190195238Y-96095238D01*
X190290476Y-96190476D01*
X190338095Y-96285714D01*
X191052380Y-94761904D02*
X191052380Y-95333333D01*
X191052380Y-95047619D02*
X190052380Y-95047619D01*
X190195238Y-95142857D01*
X190290476Y-95238095D01*
X190338095Y-95333333D01*
X104952380Y-116019047D02*
X104476190Y-116352380D01*
X104952380Y-116590476D02*
X103952380Y-116590476D01*
X103952380Y-116209523D01*
X104000000Y-116114285D01*
X104047619Y-116066666D01*
X104142857Y-116019047D01*
X104285714Y-116019047D01*
X104380952Y-116066666D01*
X104428571Y-116114285D01*
X104476190Y-116209523D01*
X104476190Y-116590476D01*
X103952380Y-115161904D02*
X103952380Y-115352380D01*
X104000000Y-115447619D01*
X104047619Y-115495238D01*
X104190476Y-115590476D01*
X104380952Y-115638095D01*
X104761904Y-115638095D01*
X104857142Y-115590476D01*
X104904761Y-115542857D01*
X104952380Y-115447619D01*
X104952380Y-115257142D01*
X104904761Y-115161904D01*
X104857142Y-115114285D01*
X104761904Y-115066666D01*
X104523809Y-115066666D01*
X104428571Y-115114285D01*
X104380952Y-115161904D01*
X104333333Y-115257142D01*
X104333333Y-115447619D01*
X104380952Y-115542857D01*
X104428571Y-115590476D01*
X104523809Y-115638095D01*
X103952380Y-114447619D02*
X103952380Y-114352380D01*
X104000000Y-114257142D01*
X104047619Y-114209523D01*
X104142857Y-114161904D01*
X104333333Y-114114285D01*
X104571428Y-114114285D01*
X104761904Y-114161904D01*
X104857142Y-114209523D01*
X104904761Y-114257142D01*
X104952380Y-114352380D01*
X104952380Y-114447619D01*
X104904761Y-114542857D01*
X104857142Y-114590476D01*
X104761904Y-114638095D01*
X104571428Y-114685714D01*
X104333333Y-114685714D01*
X104142857Y-114638095D01*
X104047619Y-114590476D01*
X104000000Y-114542857D01*
X103952380Y-114447619D01*
X104952380Y-113161904D02*
X104952380Y-113733333D01*
X104952380Y-113447619D02*
X103952380Y-113447619D01*
X104095238Y-113542857D01*
X104190476Y-113638095D01*
X104238095Y-113733333D01*
X200657142Y-124719047D02*
X200704761Y-124766666D01*
X200752380Y-124909523D01*
X200752380Y-125004761D01*
X200704761Y-125147619D01*
X200609523Y-125242857D01*
X200514285Y-125290476D01*
X200323809Y-125338095D01*
X200180952Y-125338095D01*
X199990476Y-125290476D01*
X199895238Y-125242857D01*
X199800000Y-125147619D01*
X199752380Y-125004761D01*
X199752380Y-124909523D01*
X199800000Y-124766666D01*
X199847619Y-124719047D01*
X199752380Y-124385714D02*
X199752380Y-123766666D01*
X200133333Y-124100000D01*
X200133333Y-123957142D01*
X200180952Y-123861904D01*
X200228571Y-123814285D01*
X200323809Y-123766666D01*
X200561904Y-123766666D01*
X200657142Y-123814285D01*
X200704761Y-123861904D01*
X200752380Y-123957142D01*
X200752380Y-124242857D01*
X200704761Y-124338095D01*
X200657142Y-124385714D01*
X200752380Y-122814285D02*
X200752380Y-123385714D01*
X200752380Y-123100000D02*
X199752380Y-123100000D01*
X199895238Y-123195238D01*
X199990476Y-123290476D01*
X200038095Y-123385714D01*
X199847619Y-122433333D02*
X199800000Y-122385714D01*
X199752380Y-122290476D01*
X199752380Y-122052380D01*
X199800000Y-121957142D01*
X199847619Y-121909523D01*
X199942857Y-121861904D01*
X200038095Y-121861904D01*
X200180952Y-121909523D01*
X200752380Y-122480952D01*
X200752380Y-121861904D01*
X196480952Y-83057142D02*
X196433333Y-83104761D01*
X196290476Y-83152380D01*
X196195238Y-83152380D01*
X196052380Y-83104761D01*
X195957142Y-83009523D01*
X195909523Y-82914285D01*
X195861904Y-82723809D01*
X195861904Y-82580952D01*
X195909523Y-82390476D01*
X195957142Y-82295238D01*
X196052380Y-82200000D01*
X196195238Y-82152380D01*
X196290476Y-82152380D01*
X196433333Y-82200000D01*
X196480952Y-82247619D01*
X196814285Y-82152380D02*
X197433333Y-82152380D01*
X197100000Y-82533333D01*
X197242857Y-82533333D01*
X197338095Y-82580952D01*
X197385714Y-82628571D01*
X197433333Y-82723809D01*
X197433333Y-82961904D01*
X197385714Y-83057142D01*
X197338095Y-83104761D01*
X197242857Y-83152380D01*
X196957142Y-83152380D01*
X196861904Y-83104761D01*
X196814285Y-83057142D01*
X198052380Y-82152380D02*
X198147619Y-82152380D01*
X198242857Y-82200000D01*
X198290476Y-82247619D01*
X198338095Y-82342857D01*
X198385714Y-82533333D01*
X198385714Y-82771428D01*
X198338095Y-82961904D01*
X198290476Y-83057142D01*
X198242857Y-83104761D01*
X198147619Y-83152380D01*
X198052380Y-83152380D01*
X197957142Y-83104761D01*
X197909523Y-83057142D01*
X197861904Y-82961904D01*
X197814285Y-82771428D01*
X197814285Y-82533333D01*
X197861904Y-82342857D01*
X197909523Y-82247619D01*
X197957142Y-82200000D01*
X198052380Y-82152380D01*
X198861904Y-83152380D02*
X199052380Y-83152380D01*
X199147619Y-83104761D01*
X199195238Y-83057142D01*
X199290476Y-82914285D01*
X199338095Y-82723809D01*
X199338095Y-82342857D01*
X199290476Y-82247619D01*
X199242857Y-82200000D01*
X199147619Y-82152380D01*
X198957142Y-82152380D01*
X198861904Y-82200000D01*
X198814285Y-82247619D01*
X198766666Y-82342857D01*
X198766666Y-82580952D01*
X198814285Y-82676190D01*
X198861904Y-82723809D01*
X198957142Y-82771428D01*
X199147619Y-82771428D01*
X199242857Y-82723809D01*
X199290476Y-82676190D01*
X199338095Y-82580952D01*
X192680952Y-118557142D02*
X192633333Y-118604761D01*
X192490476Y-118652380D01*
X192395238Y-118652380D01*
X192252380Y-118604761D01*
X192157142Y-118509523D01*
X192109523Y-118414285D01*
X192061904Y-118223809D01*
X192061904Y-118080952D01*
X192109523Y-117890476D01*
X192157142Y-117795238D01*
X192252380Y-117700000D01*
X192395238Y-117652380D01*
X192490476Y-117652380D01*
X192633333Y-117700000D01*
X192680952Y-117747619D01*
X193014285Y-117652380D02*
X193633333Y-117652380D01*
X193300000Y-118033333D01*
X193442857Y-118033333D01*
X193538095Y-118080952D01*
X193585714Y-118128571D01*
X193633333Y-118223809D01*
X193633333Y-118461904D01*
X193585714Y-118557142D01*
X193538095Y-118604761D01*
X193442857Y-118652380D01*
X193157142Y-118652380D01*
X193061904Y-118604761D01*
X193014285Y-118557142D01*
X194585714Y-118652380D02*
X194014285Y-118652380D01*
X194300000Y-118652380D02*
X194300000Y-117652380D01*
X194204761Y-117795238D01*
X194109523Y-117890476D01*
X194014285Y-117938095D01*
X195442857Y-117985714D02*
X195442857Y-118652380D01*
X195204761Y-117604761D02*
X194966666Y-118319047D01*
X195585714Y-118319047D01*
X188580952Y-109157142D02*
X188533333Y-109204761D01*
X188390476Y-109252380D01*
X188295238Y-109252380D01*
X188152380Y-109204761D01*
X188057142Y-109109523D01*
X188009523Y-109014285D01*
X187961904Y-108823809D01*
X187961904Y-108680952D01*
X188009523Y-108490476D01*
X188057142Y-108395238D01*
X188152380Y-108300000D01*
X188295238Y-108252380D01*
X188390476Y-108252380D01*
X188533333Y-108300000D01*
X188580952Y-108347619D01*
X188914285Y-108252380D02*
X189533333Y-108252380D01*
X189200000Y-108633333D01*
X189342857Y-108633333D01*
X189438095Y-108680952D01*
X189485714Y-108728571D01*
X189533333Y-108823809D01*
X189533333Y-109061904D01*
X189485714Y-109157142D01*
X189438095Y-109204761D01*
X189342857Y-109252380D01*
X189057142Y-109252380D01*
X188961904Y-109204761D01*
X188914285Y-109157142D01*
X190485714Y-109252380D02*
X189914285Y-109252380D01*
X190200000Y-109252380D02*
X190200000Y-108252380D01*
X190104761Y-108395238D01*
X190009523Y-108490476D01*
X189914285Y-108538095D01*
X190819047Y-108252380D02*
X191485714Y-108252380D01*
X191057142Y-109252380D01*
X198280952Y-96057142D02*
X198233333Y-96104761D01*
X198090476Y-96152380D01*
X197995238Y-96152380D01*
X197852380Y-96104761D01*
X197757142Y-96009523D01*
X197709523Y-95914285D01*
X197661904Y-95723809D01*
X197661904Y-95580952D01*
X197709523Y-95390476D01*
X197757142Y-95295238D01*
X197852380Y-95200000D01*
X197995238Y-95152380D01*
X198090476Y-95152380D01*
X198233333Y-95200000D01*
X198280952Y-95247619D01*
X198614285Y-95152380D02*
X199233333Y-95152380D01*
X198900000Y-95533333D01*
X199042857Y-95533333D01*
X199138095Y-95580952D01*
X199185714Y-95628571D01*
X199233333Y-95723809D01*
X199233333Y-95961904D01*
X199185714Y-96057142D01*
X199138095Y-96104761D01*
X199042857Y-96152380D01*
X198757142Y-96152380D01*
X198661904Y-96104761D01*
X198614285Y-96057142D01*
X200185714Y-96152380D02*
X199614285Y-96152380D01*
X199900000Y-96152380D02*
X199900000Y-95152380D01*
X199804761Y-95295238D01*
X199709523Y-95390476D01*
X199614285Y-95438095D01*
X201090476Y-95152380D02*
X200614285Y-95152380D01*
X200566666Y-95628571D01*
X200614285Y-95580952D01*
X200709523Y-95533333D01*
X200947619Y-95533333D01*
X201042857Y-95580952D01*
X201090476Y-95628571D01*
X201138095Y-95723809D01*
X201138095Y-95961904D01*
X201090476Y-96057142D01*
X201042857Y-96104761D01*
X200947619Y-96152380D01*
X200709523Y-96152380D01*
X200614285Y-96104761D01*
X200566666Y-96057142D01*
X200652380Y-120514285D02*
X201461904Y-120514285D01*
X201557142Y-120466666D01*
X201604761Y-120419047D01*
X201652380Y-120323809D01*
X201652380Y-120133333D01*
X201604761Y-120038095D01*
X201557142Y-119990476D01*
X201461904Y-119942857D01*
X200652380Y-119942857D01*
X200652380Y-119561904D02*
X200652380Y-118942857D01*
X201033333Y-119276190D01*
X201033333Y-119133333D01*
X201080952Y-119038095D01*
X201128571Y-118990476D01*
X201223809Y-118942857D01*
X201461904Y-118942857D01*
X201557142Y-118990476D01*
X201604761Y-119038095D01*
X201652380Y-119133333D01*
X201652380Y-119419047D01*
X201604761Y-119514285D01*
X201557142Y-119561904D01*
X200652380Y-118323809D02*
X200652380Y-118228571D01*
X200700000Y-118133333D01*
X200747619Y-118085714D01*
X200842857Y-118038095D01*
X201033333Y-117990476D01*
X201271428Y-117990476D01*
X201461904Y-118038095D01*
X201557142Y-118085714D01*
X201604761Y-118133333D01*
X201652380Y-118228571D01*
X201652380Y-118323809D01*
X201604761Y-118419047D01*
X201557142Y-118466666D01*
X201461904Y-118514285D01*
X201271428Y-118561904D01*
X201033333Y-118561904D01*
X200842857Y-118514285D01*
X200747619Y-118466666D01*
X200700000Y-118419047D01*
X200652380Y-118323809D01*
X200652380Y-117085714D02*
X200652380Y-117561904D01*
X201128571Y-117609523D01*
X201080952Y-117561904D01*
X201033333Y-117466666D01*
X201033333Y-117228571D01*
X201080952Y-117133333D01*
X201128571Y-117085714D01*
X201223809Y-117038095D01*
X201461904Y-117038095D01*
X201557142Y-117085714D01*
X201604761Y-117133333D01*
X201652380Y-117228571D01*
X201652380Y-117466666D01*
X201604761Y-117561904D01*
X201557142Y-117609523D01*
X122880952Y-117252380D02*
X122547619Y-116776190D01*
X122309523Y-117252380D02*
X122309523Y-116252380D01*
X122690476Y-116252380D01*
X122785714Y-116300000D01*
X122833333Y-116347619D01*
X122880952Y-116442857D01*
X122880952Y-116585714D01*
X122833333Y-116680952D01*
X122785714Y-116728571D01*
X122690476Y-116776190D01*
X122309523Y-116776190D01*
X123738095Y-116252380D02*
X123547619Y-116252380D01*
X123452380Y-116300000D01*
X123404761Y-116347619D01*
X123309523Y-116490476D01*
X123261904Y-116680952D01*
X123261904Y-117061904D01*
X123309523Y-117157142D01*
X123357142Y-117204761D01*
X123452380Y-117252380D01*
X123642857Y-117252380D01*
X123738095Y-117204761D01*
X123785714Y-117157142D01*
X123833333Y-117061904D01*
X123833333Y-116823809D01*
X123785714Y-116728571D01*
X123738095Y-116680952D01*
X123642857Y-116633333D01*
X123452380Y-116633333D01*
X123357142Y-116680952D01*
X123309523Y-116728571D01*
X123261904Y-116823809D01*
X124452380Y-116252380D02*
X124547619Y-116252380D01*
X124642857Y-116300000D01*
X124690476Y-116347619D01*
X124738095Y-116442857D01*
X124785714Y-116633333D01*
X124785714Y-116871428D01*
X124738095Y-117061904D01*
X124690476Y-117157142D01*
X124642857Y-117204761D01*
X124547619Y-117252380D01*
X124452380Y-117252380D01*
X124357142Y-117204761D01*
X124309523Y-117157142D01*
X124261904Y-117061904D01*
X124214285Y-116871428D01*
X124214285Y-116633333D01*
X124261904Y-116442857D01*
X124309523Y-116347619D01*
X124357142Y-116300000D01*
X124452380Y-116252380D01*
X125357142Y-116680952D02*
X125261904Y-116633333D01*
X125214285Y-116585714D01*
X125166666Y-116490476D01*
X125166666Y-116442857D01*
X125214285Y-116347619D01*
X125261904Y-116300000D01*
X125357142Y-116252380D01*
X125547619Y-116252380D01*
X125642857Y-116300000D01*
X125690476Y-116347619D01*
X125738095Y-116442857D01*
X125738095Y-116490476D01*
X125690476Y-116585714D01*
X125642857Y-116633333D01*
X125547619Y-116680952D01*
X125357142Y-116680952D01*
X125261904Y-116728571D01*
X125214285Y-116776190D01*
X125166666Y-116871428D01*
X125166666Y-117061904D01*
X125214285Y-117157142D01*
X125261904Y-117204761D01*
X125357142Y-117252380D01*
X125547619Y-117252380D01*
X125642857Y-117204761D01*
X125690476Y-117157142D01*
X125738095Y-117061904D01*
X125738095Y-116871428D01*
X125690476Y-116776190D01*
X125642857Y-116728571D01*
X125547619Y-116680952D01*
X125652380Y-121919047D02*
X125176190Y-122252380D01*
X125652380Y-122490476D02*
X124652380Y-122490476D01*
X124652380Y-122109523D01*
X124700000Y-122014285D01*
X124747619Y-121966666D01*
X124842857Y-121919047D01*
X124985714Y-121919047D01*
X125080952Y-121966666D01*
X125128571Y-122014285D01*
X125176190Y-122109523D01*
X125176190Y-122490476D01*
X124652380Y-121061904D02*
X124652380Y-121252380D01*
X124700000Y-121347619D01*
X124747619Y-121395238D01*
X124890476Y-121490476D01*
X125080952Y-121538095D01*
X125461904Y-121538095D01*
X125557142Y-121490476D01*
X125604761Y-121442857D01*
X125652380Y-121347619D01*
X125652380Y-121157142D01*
X125604761Y-121061904D01*
X125557142Y-121014285D01*
X125461904Y-120966666D01*
X125223809Y-120966666D01*
X125128571Y-121014285D01*
X125080952Y-121061904D01*
X125033333Y-121157142D01*
X125033333Y-121347619D01*
X125080952Y-121442857D01*
X125128571Y-121490476D01*
X125223809Y-121538095D01*
X124652380Y-120347619D02*
X124652380Y-120252380D01*
X124700000Y-120157142D01*
X124747619Y-120109523D01*
X124842857Y-120061904D01*
X125033333Y-120014285D01*
X125271428Y-120014285D01*
X125461904Y-120061904D01*
X125557142Y-120109523D01*
X125604761Y-120157142D01*
X125652380Y-120252380D01*
X125652380Y-120347619D01*
X125604761Y-120442857D01*
X125557142Y-120490476D01*
X125461904Y-120538095D01*
X125271428Y-120585714D01*
X125033333Y-120585714D01*
X124842857Y-120538095D01*
X124747619Y-120490476D01*
X124700000Y-120442857D01*
X124652380Y-120347619D01*
X124652380Y-119109523D02*
X124652380Y-119585714D01*
X125128571Y-119633333D01*
X125080952Y-119585714D01*
X125033333Y-119490476D01*
X125033333Y-119252380D01*
X125080952Y-119157142D01*
X125128571Y-119109523D01*
X125223809Y-119061904D01*
X125461904Y-119061904D01*
X125557142Y-119109523D01*
X125604761Y-119157142D01*
X125652380Y-119252380D01*
X125652380Y-119490476D01*
X125604761Y-119585714D01*
X125557142Y-119633333D01*
X181980952Y-101757142D02*
X181933333Y-101804761D01*
X181790476Y-101852380D01*
X181695238Y-101852380D01*
X181552380Y-101804761D01*
X181457142Y-101709523D01*
X181409523Y-101614285D01*
X181361904Y-101423809D01*
X181361904Y-101280952D01*
X181409523Y-101090476D01*
X181457142Y-100995238D01*
X181552380Y-100900000D01*
X181695238Y-100852380D01*
X181790476Y-100852380D01*
X181933333Y-100900000D01*
X181980952Y-100947619D01*
X182314285Y-100852380D02*
X182933333Y-100852380D01*
X182600000Y-101233333D01*
X182742857Y-101233333D01*
X182838095Y-101280952D01*
X182885714Y-101328571D01*
X182933333Y-101423809D01*
X182933333Y-101661904D01*
X182885714Y-101757142D01*
X182838095Y-101804761D01*
X182742857Y-101852380D01*
X182457142Y-101852380D01*
X182361904Y-101804761D01*
X182314285Y-101757142D01*
X183885714Y-101852380D02*
X183314285Y-101852380D01*
X183600000Y-101852380D02*
X183600000Y-100852380D01*
X183504761Y-100995238D01*
X183409523Y-101090476D01*
X183314285Y-101138095D01*
X184361904Y-101852380D02*
X184552380Y-101852380D01*
X184647619Y-101804761D01*
X184695238Y-101757142D01*
X184790476Y-101614285D01*
X184838095Y-101423809D01*
X184838095Y-101042857D01*
X184790476Y-100947619D01*
X184742857Y-100900000D01*
X184647619Y-100852380D01*
X184457142Y-100852380D01*
X184361904Y-100900000D01*
X184314285Y-100947619D01*
X184266666Y-101042857D01*
X184266666Y-101280952D01*
X184314285Y-101376190D01*
X184361904Y-101423809D01*
X184457142Y-101471428D01*
X184647619Y-101471428D01*
X184742857Y-101423809D01*
X184790476Y-101376190D01*
X184838095Y-101280952D01*
X105580952Y-112857142D02*
X105533333Y-112904761D01*
X105390476Y-112952380D01*
X105295238Y-112952380D01*
X105152380Y-112904761D01*
X105057142Y-112809523D01*
X105009523Y-112714285D01*
X104961904Y-112523809D01*
X104961904Y-112380952D01*
X105009523Y-112190476D01*
X105057142Y-112095238D01*
X105152380Y-112000000D01*
X105295238Y-111952380D01*
X105390476Y-111952380D01*
X105533333Y-112000000D01*
X105580952Y-112047619D01*
X106438095Y-111952380D02*
X106247619Y-111952380D01*
X106152380Y-112000000D01*
X106104761Y-112047619D01*
X106009523Y-112190476D01*
X105961904Y-112380952D01*
X105961904Y-112761904D01*
X106009523Y-112857142D01*
X106057142Y-112904761D01*
X106152380Y-112952380D01*
X106342857Y-112952380D01*
X106438095Y-112904761D01*
X106485714Y-112857142D01*
X106533333Y-112761904D01*
X106533333Y-112523809D01*
X106485714Y-112428571D01*
X106438095Y-112380952D01*
X106342857Y-112333333D01*
X106152380Y-112333333D01*
X106057142Y-112380952D01*
X106009523Y-112428571D01*
X105961904Y-112523809D01*
X107152380Y-111952380D02*
X107247619Y-111952380D01*
X107342857Y-112000000D01*
X107390476Y-112047619D01*
X107438095Y-112142857D01*
X107485714Y-112333333D01*
X107485714Y-112571428D01*
X107438095Y-112761904D01*
X107390476Y-112857142D01*
X107342857Y-112904761D01*
X107247619Y-112952380D01*
X107152380Y-112952380D01*
X107057142Y-112904761D01*
X107009523Y-112857142D01*
X106961904Y-112761904D01*
X106914285Y-112571428D01*
X106914285Y-112333333D01*
X106961904Y-112142857D01*
X107009523Y-112047619D01*
X107057142Y-112000000D01*
X107152380Y-111952380D01*
X107866666Y-112047619D02*
X107914285Y-112000000D01*
X108009523Y-111952380D01*
X108247619Y-111952380D01*
X108342857Y-112000000D01*
X108390476Y-112047619D01*
X108438095Y-112142857D01*
X108438095Y-112238095D01*
X108390476Y-112380952D01*
X107819047Y-112952380D01*
X108438095Y-112952380D01*
X121280952Y-128702380D02*
X120947619Y-128226190D01*
X120709523Y-128702380D02*
X120709523Y-127702380D01*
X121090476Y-127702380D01*
X121185714Y-127750000D01*
X121233333Y-127797619D01*
X121280952Y-127892857D01*
X121280952Y-128035714D01*
X121233333Y-128130952D01*
X121185714Y-128178571D01*
X121090476Y-128226190D01*
X120709523Y-128226190D01*
X122138095Y-127702380D02*
X121947619Y-127702380D01*
X121852380Y-127750000D01*
X121804761Y-127797619D01*
X121709523Y-127940476D01*
X121661904Y-128130952D01*
X121661904Y-128511904D01*
X121709523Y-128607142D01*
X121757142Y-128654761D01*
X121852380Y-128702380D01*
X122042857Y-128702380D01*
X122138095Y-128654761D01*
X122185714Y-128607142D01*
X122233333Y-128511904D01*
X122233333Y-128273809D01*
X122185714Y-128178571D01*
X122138095Y-128130952D01*
X122042857Y-128083333D01*
X121852380Y-128083333D01*
X121757142Y-128130952D01*
X121709523Y-128178571D01*
X121661904Y-128273809D01*
X122852380Y-127702380D02*
X122947619Y-127702380D01*
X123042857Y-127750000D01*
X123090476Y-127797619D01*
X123138095Y-127892857D01*
X123185714Y-128083333D01*
X123185714Y-128321428D01*
X123138095Y-128511904D01*
X123090476Y-128607142D01*
X123042857Y-128654761D01*
X122947619Y-128702380D01*
X122852380Y-128702380D01*
X122757142Y-128654761D01*
X122709523Y-128607142D01*
X122661904Y-128511904D01*
X122614285Y-128321428D01*
X122614285Y-128083333D01*
X122661904Y-127892857D01*
X122709523Y-127797619D01*
X122757142Y-127750000D01*
X122852380Y-127702380D01*
X124042857Y-128035714D02*
X124042857Y-128702380D01*
X123804761Y-127654761D02*
X123566666Y-128369047D01*
X124185714Y-128369047D01*
X173852380Y-102714285D02*
X174661904Y-102714285D01*
X174757142Y-102666666D01*
X174804761Y-102619047D01*
X174852380Y-102523809D01*
X174852380Y-102333333D01*
X174804761Y-102238095D01*
X174757142Y-102190476D01*
X174661904Y-102142857D01*
X173852380Y-102142857D01*
X173852380Y-101761904D02*
X173852380Y-101142857D01*
X174233333Y-101476190D01*
X174233333Y-101333333D01*
X174280952Y-101238095D01*
X174328571Y-101190476D01*
X174423809Y-101142857D01*
X174661904Y-101142857D01*
X174757142Y-101190476D01*
X174804761Y-101238095D01*
X174852380Y-101333333D01*
X174852380Y-101619047D01*
X174804761Y-101714285D01*
X174757142Y-101761904D01*
X173852380Y-100523809D02*
X173852380Y-100428571D01*
X173900000Y-100333333D01*
X173947619Y-100285714D01*
X174042857Y-100238095D01*
X174233333Y-100190476D01*
X174471428Y-100190476D01*
X174661904Y-100238095D01*
X174757142Y-100285714D01*
X174804761Y-100333333D01*
X174852380Y-100428571D01*
X174852380Y-100523809D01*
X174804761Y-100619047D01*
X174757142Y-100666666D01*
X174661904Y-100714285D01*
X174471428Y-100761904D01*
X174233333Y-100761904D01*
X174042857Y-100714285D01*
X173947619Y-100666666D01*
X173900000Y-100619047D01*
X173852380Y-100523809D01*
X174852380Y-99238095D02*
X174852380Y-99809523D01*
X174852380Y-99523809D02*
X173852380Y-99523809D01*
X173995238Y-99619047D01*
X174090476Y-99714285D01*
X174138095Y-99809523D01*
X185357142Y-98319047D02*
X185404761Y-98366666D01*
X185452380Y-98509523D01*
X185452380Y-98604761D01*
X185404761Y-98747619D01*
X185309523Y-98842857D01*
X185214285Y-98890476D01*
X185023809Y-98938095D01*
X184880952Y-98938095D01*
X184690476Y-98890476D01*
X184595238Y-98842857D01*
X184500000Y-98747619D01*
X184452380Y-98604761D01*
X184452380Y-98509523D01*
X184500000Y-98366666D01*
X184547619Y-98319047D01*
X184452380Y-97985714D02*
X184452380Y-97366666D01*
X184833333Y-97700000D01*
X184833333Y-97557142D01*
X184880952Y-97461904D01*
X184928571Y-97414285D01*
X185023809Y-97366666D01*
X185261904Y-97366666D01*
X185357142Y-97414285D01*
X185404761Y-97461904D01*
X185452380Y-97557142D01*
X185452380Y-97842857D01*
X185404761Y-97938095D01*
X185357142Y-97985714D01*
X184547619Y-96985714D02*
X184500000Y-96938095D01*
X184452380Y-96842857D01*
X184452380Y-96604761D01*
X184500000Y-96509523D01*
X184547619Y-96461904D01*
X184642857Y-96414285D01*
X184738095Y-96414285D01*
X184880952Y-96461904D01*
X185452380Y-97033333D01*
X185452380Y-96414285D01*
X185452380Y-95461904D02*
X185452380Y-96033333D01*
X185452380Y-95747619D02*
X184452380Y-95747619D01*
X184595238Y-95842857D01*
X184690476Y-95938095D01*
X184738095Y-96033333D01*
X178457142Y-94319047D02*
X178504761Y-94366666D01*
X178552380Y-94509523D01*
X178552380Y-94604761D01*
X178504761Y-94747619D01*
X178409523Y-94842857D01*
X178314285Y-94890476D01*
X178123809Y-94938095D01*
X177980952Y-94938095D01*
X177790476Y-94890476D01*
X177695238Y-94842857D01*
X177600000Y-94747619D01*
X177552380Y-94604761D01*
X177552380Y-94509523D01*
X177600000Y-94366666D01*
X177647619Y-94319047D01*
X177552380Y-93985714D02*
X177552380Y-93366666D01*
X177933333Y-93700000D01*
X177933333Y-93557142D01*
X177980952Y-93461904D01*
X178028571Y-93414285D01*
X178123809Y-93366666D01*
X178361904Y-93366666D01*
X178457142Y-93414285D01*
X178504761Y-93461904D01*
X178552380Y-93557142D01*
X178552380Y-93842857D01*
X178504761Y-93938095D01*
X178457142Y-93985714D01*
X177647619Y-92985714D02*
X177600000Y-92938095D01*
X177552380Y-92842857D01*
X177552380Y-92604761D01*
X177600000Y-92509523D01*
X177647619Y-92461904D01*
X177742857Y-92414285D01*
X177838095Y-92414285D01*
X177980952Y-92461904D01*
X178552380Y-93033333D01*
X178552380Y-92414285D01*
X177647619Y-92033333D02*
X177600000Y-91985714D01*
X177552380Y-91890476D01*
X177552380Y-91652380D01*
X177600000Y-91557142D01*
X177647619Y-91509523D01*
X177742857Y-91461904D01*
X177838095Y-91461904D01*
X177980952Y-91509523D01*
X178552380Y-92080952D01*
X178552380Y-91461904D01*
X178757142Y-81578571D02*
X179090476Y-81578571D01*
X179233333Y-82102380D02*
X178757142Y-82102380D01*
X178757142Y-81102380D01*
X179233333Y-81102380D01*
X179566666Y-81102380D02*
X180185714Y-81102380D01*
X179852380Y-81483333D01*
X179995238Y-81483333D01*
X180090476Y-81530952D01*
X180138095Y-81578571D01*
X180185714Y-81673809D01*
X180185714Y-81911904D01*
X180138095Y-82007142D01*
X180090476Y-82054761D01*
X179995238Y-82102380D01*
X179709523Y-82102380D01*
X179614285Y-82054761D01*
X179566666Y-82007142D01*
X180804761Y-81102380D02*
X180900000Y-81102380D01*
X180995238Y-81150000D01*
X181042857Y-81197619D01*
X181090476Y-81292857D01*
X181138095Y-81483333D01*
X181138095Y-81721428D01*
X181090476Y-81911904D01*
X181042857Y-82007142D01*
X180995238Y-82054761D01*
X180900000Y-82102380D01*
X180804761Y-82102380D01*
X180709523Y-82054761D01*
X180661904Y-82007142D01*
X180614285Y-81911904D01*
X180566666Y-81721428D01*
X180566666Y-81483333D01*
X180614285Y-81292857D01*
X180661904Y-81197619D01*
X180709523Y-81150000D01*
X180804761Y-81102380D01*
X181995238Y-81102380D02*
X181804761Y-81102380D01*
X181709523Y-81150000D01*
X181661904Y-81197619D01*
X181566666Y-81340476D01*
X181519047Y-81530952D01*
X181519047Y-81911904D01*
X181566666Y-82007142D01*
X181614285Y-82054761D01*
X181709523Y-82102380D01*
X181900000Y-82102380D01*
X181995238Y-82054761D01*
X182042857Y-82007142D01*
X182090476Y-81911904D01*
X182090476Y-81673809D01*
X182042857Y-81578571D01*
X181995238Y-81530952D01*
X181900000Y-81483333D01*
X181709523Y-81483333D01*
X181614285Y-81530952D01*
X181566666Y-81578571D01*
X181519047Y-81673809D01*
X195380952Y-102952380D02*
X195047619Y-102476190D01*
X194809523Y-102952380D02*
X194809523Y-101952380D01*
X195190476Y-101952380D01*
X195285714Y-102000000D01*
X195333333Y-102047619D01*
X195380952Y-102142857D01*
X195380952Y-102285714D01*
X195333333Y-102380952D01*
X195285714Y-102428571D01*
X195190476Y-102476190D01*
X194809523Y-102476190D01*
X195714285Y-101952380D02*
X196333333Y-101952380D01*
X196000000Y-102333333D01*
X196142857Y-102333333D01*
X196238095Y-102380952D01*
X196285714Y-102428571D01*
X196333333Y-102523809D01*
X196333333Y-102761904D01*
X196285714Y-102857142D01*
X196238095Y-102904761D01*
X196142857Y-102952380D01*
X195857142Y-102952380D01*
X195761904Y-102904761D01*
X195714285Y-102857142D01*
X196952380Y-101952380D02*
X197047619Y-101952380D01*
X197142857Y-102000000D01*
X197190476Y-102047619D01*
X197238095Y-102142857D01*
X197285714Y-102333333D01*
X197285714Y-102571428D01*
X197238095Y-102761904D01*
X197190476Y-102857142D01*
X197142857Y-102904761D01*
X197047619Y-102952380D01*
X196952380Y-102952380D01*
X196857142Y-102904761D01*
X196809523Y-102857142D01*
X196761904Y-102761904D01*
X196714285Y-102571428D01*
X196714285Y-102333333D01*
X196761904Y-102142857D01*
X196809523Y-102047619D01*
X196857142Y-102000000D01*
X196952380Y-101952380D01*
X198142857Y-101952380D02*
X197952380Y-101952380D01*
X197857142Y-102000000D01*
X197809523Y-102047619D01*
X197714285Y-102190476D01*
X197666666Y-102380952D01*
X197666666Y-102761904D01*
X197714285Y-102857142D01*
X197761904Y-102904761D01*
X197857142Y-102952380D01*
X198047619Y-102952380D01*
X198142857Y-102904761D01*
X198190476Y-102857142D01*
X198238095Y-102761904D01*
X198238095Y-102523809D01*
X198190476Y-102428571D01*
X198142857Y-102380952D01*
X198047619Y-102333333D01*
X197857142Y-102333333D01*
X197761904Y-102380952D01*
X197714285Y-102428571D01*
X197666666Y-102523809D01*
X107880952Y-75157142D02*
X107833333Y-75204761D01*
X107690476Y-75252380D01*
X107595238Y-75252380D01*
X107452380Y-75204761D01*
X107357142Y-75109523D01*
X107309523Y-75014285D01*
X107261904Y-74823809D01*
X107261904Y-74680952D01*
X107309523Y-74490476D01*
X107357142Y-74395238D01*
X107452380Y-74300000D01*
X107595238Y-74252380D01*
X107690476Y-74252380D01*
X107833333Y-74300000D01*
X107880952Y-74347619D01*
X108261904Y-74347619D02*
X108309523Y-74300000D01*
X108404761Y-74252380D01*
X108642857Y-74252380D01*
X108738095Y-74300000D01*
X108785714Y-74347619D01*
X108833333Y-74442857D01*
X108833333Y-74538095D01*
X108785714Y-74680952D01*
X108214285Y-75252380D01*
X108833333Y-75252380D01*
X109452380Y-74252380D02*
X109547619Y-74252380D01*
X109642857Y-74300000D01*
X109690476Y-74347619D01*
X109738095Y-74442857D01*
X109785714Y-74633333D01*
X109785714Y-74871428D01*
X109738095Y-75061904D01*
X109690476Y-75157142D01*
X109642857Y-75204761D01*
X109547619Y-75252380D01*
X109452380Y-75252380D01*
X109357142Y-75204761D01*
X109309523Y-75157142D01*
X109261904Y-75061904D01*
X109214285Y-74871428D01*
X109214285Y-74633333D01*
X109261904Y-74442857D01*
X109309523Y-74347619D01*
X109357142Y-74300000D01*
X109452380Y-74252380D01*
X110738095Y-75252380D02*
X110166666Y-75252380D01*
X110452380Y-75252380D02*
X110452380Y-74252380D01*
X110357142Y-74395238D01*
X110261904Y-74490476D01*
X110166666Y-74538095D01*
X205014285Y-110652380D02*
X205014285Y-111366666D01*
X204966666Y-111509523D01*
X204871428Y-111604761D01*
X204728571Y-111652380D01*
X204633333Y-111652380D01*
X205395238Y-110652380D02*
X206014285Y-110652380D01*
X205680952Y-111033333D01*
X205823809Y-111033333D01*
X205919047Y-111080952D01*
X205966666Y-111128571D01*
X206014285Y-111223809D01*
X206014285Y-111461904D01*
X205966666Y-111557142D01*
X205919047Y-111604761D01*
X205823809Y-111652380D01*
X205538095Y-111652380D01*
X205442857Y-111604761D01*
X205395238Y-111557142D01*
X206633333Y-110652380D02*
X206728571Y-110652380D01*
X206823809Y-110700000D01*
X206871428Y-110747619D01*
X206919047Y-110842857D01*
X206966666Y-111033333D01*
X206966666Y-111271428D01*
X206919047Y-111461904D01*
X206871428Y-111557142D01*
X206823809Y-111604761D01*
X206728571Y-111652380D01*
X206633333Y-111652380D01*
X206538095Y-111604761D01*
X206490476Y-111557142D01*
X206442857Y-111461904D01*
X206395238Y-111271428D01*
X206395238Y-111033333D01*
X206442857Y-110842857D01*
X206490476Y-110747619D01*
X206538095Y-110700000D01*
X206633333Y-110652380D01*
X207823809Y-110985714D02*
X207823809Y-111652380D01*
X207585714Y-110604761D02*
X207347619Y-111319047D01*
X207966666Y-111319047D01*
X194080952Y-71002380D02*
X193747619Y-70526190D01*
X193509523Y-71002380D02*
X193509523Y-70002380D01*
X193890476Y-70002380D01*
X193985714Y-70050000D01*
X194033333Y-70097619D01*
X194080952Y-70192857D01*
X194080952Y-70335714D01*
X194033333Y-70430952D01*
X193985714Y-70478571D01*
X193890476Y-70526190D01*
X193509523Y-70526190D01*
X194414285Y-70002380D02*
X195033333Y-70002380D01*
X194700000Y-70383333D01*
X194842857Y-70383333D01*
X194938095Y-70430952D01*
X194985714Y-70478571D01*
X195033333Y-70573809D01*
X195033333Y-70811904D01*
X194985714Y-70907142D01*
X194938095Y-70954761D01*
X194842857Y-71002380D01*
X194557142Y-71002380D01*
X194461904Y-70954761D01*
X194414285Y-70907142D01*
X195652380Y-70002380D02*
X195747619Y-70002380D01*
X195842857Y-70050000D01*
X195890476Y-70097619D01*
X195938095Y-70192857D01*
X195985714Y-70383333D01*
X195985714Y-70621428D01*
X195938095Y-70811904D01*
X195890476Y-70907142D01*
X195842857Y-70954761D01*
X195747619Y-71002380D01*
X195652380Y-71002380D01*
X195557142Y-70954761D01*
X195509523Y-70907142D01*
X195461904Y-70811904D01*
X195414285Y-70621428D01*
X195414285Y-70383333D01*
X195461904Y-70192857D01*
X195509523Y-70097619D01*
X195557142Y-70050000D01*
X195652380Y-70002380D01*
X196319047Y-70002380D02*
X196938095Y-70002380D01*
X196604761Y-70383333D01*
X196747619Y-70383333D01*
X196842857Y-70430952D01*
X196890476Y-70478571D01*
X196938095Y-70573809D01*
X196938095Y-70811904D01*
X196890476Y-70907142D01*
X196842857Y-70954761D01*
X196747619Y-71002380D01*
X196461904Y-71002380D01*
X196366666Y-70954761D01*
X196319047Y-70907142D01*
D12*
X181520285Y-65982714D02*
X181520285Y-66527000D01*
X181484000Y-66635857D01*
X181411428Y-66708428D01*
X181302571Y-66744714D01*
X181230000Y-66744714D01*
X182246000Y-65982714D02*
X181883142Y-65982714D01*
X181846857Y-66345571D01*
X181883142Y-66309285D01*
X181955714Y-66273000D01*
X182137142Y-66273000D01*
X182209714Y-66309285D01*
X182246000Y-66345571D01*
X182282285Y-66418142D01*
X182282285Y-66599571D01*
X182246000Y-66672142D01*
X182209714Y-66708428D01*
X182137142Y-66744714D01*
X181955714Y-66744714D01*
X181883142Y-66708428D01*
X181846857Y-66672142D01*
X182754000Y-65982714D02*
X182826571Y-65982714D01*
X182899142Y-66019000D01*
X182935428Y-66055285D01*
X182971714Y-66127857D01*
X183008000Y-66273000D01*
X183008000Y-66454428D01*
X182971714Y-66599571D01*
X182935428Y-66672142D01*
X182899142Y-66708428D01*
X182826571Y-66744714D01*
X182754000Y-66744714D01*
X182681428Y-66708428D01*
X182645142Y-66672142D01*
X182608857Y-66599571D01*
X182572571Y-66454428D01*
X182572571Y-66273000D01*
X182608857Y-66127857D01*
X182645142Y-66055285D01*
X182681428Y-66019000D01*
X182754000Y-65982714D01*
X183262000Y-65982714D02*
X183733714Y-65982714D01*
X183479714Y-66273000D01*
X183588571Y-66273000D01*
X183661142Y-66309285D01*
X183697428Y-66345571D01*
X183733714Y-66418142D01*
X183733714Y-66599571D01*
X183697428Y-66672142D01*
X183661142Y-66708428D01*
X183588571Y-66744714D01*
X183370857Y-66744714D01*
X183298285Y-66708428D01*
X183262000Y-66672142D01*
D11*
X107480952Y-121357142D02*
X107433333Y-121404761D01*
X107290476Y-121452380D01*
X107195238Y-121452380D01*
X107052380Y-121404761D01*
X106957142Y-121309523D01*
X106909523Y-121214285D01*
X106861904Y-121023809D01*
X106861904Y-120880952D01*
X106909523Y-120690476D01*
X106957142Y-120595238D01*
X107052380Y-120500000D01*
X107195238Y-120452380D01*
X107290476Y-120452380D01*
X107433333Y-120500000D01*
X107480952Y-120547619D01*
X108338095Y-120452380D02*
X108147619Y-120452380D01*
X108052380Y-120500000D01*
X108004761Y-120547619D01*
X107909523Y-120690476D01*
X107861904Y-120880952D01*
X107861904Y-121261904D01*
X107909523Y-121357142D01*
X107957142Y-121404761D01*
X108052380Y-121452380D01*
X108242857Y-121452380D01*
X108338095Y-121404761D01*
X108385714Y-121357142D01*
X108433333Y-121261904D01*
X108433333Y-121023809D01*
X108385714Y-120928571D01*
X108338095Y-120880952D01*
X108242857Y-120833333D01*
X108052380Y-120833333D01*
X107957142Y-120880952D01*
X107909523Y-120928571D01*
X107861904Y-121023809D01*
X109052380Y-120452380D02*
X109147619Y-120452380D01*
X109242857Y-120500000D01*
X109290476Y-120547619D01*
X109338095Y-120642857D01*
X109385714Y-120833333D01*
X109385714Y-121071428D01*
X109338095Y-121261904D01*
X109290476Y-121357142D01*
X109242857Y-121404761D01*
X109147619Y-121452380D01*
X109052380Y-121452380D01*
X108957142Y-121404761D01*
X108909523Y-121357142D01*
X108861904Y-121261904D01*
X108814285Y-121071428D01*
X108814285Y-120833333D01*
X108861904Y-120642857D01*
X108909523Y-120547619D01*
X108957142Y-120500000D01*
X109052380Y-120452380D01*
X110338095Y-121452380D02*
X109766666Y-121452380D01*
X110052380Y-121452380D02*
X110052380Y-120452380D01*
X109957142Y-120595238D01*
X109861904Y-120690476D01*
X109766666Y-120738095D01*
X183152380Y-81714285D02*
X183961904Y-81714285D01*
X184057142Y-81666666D01*
X184104761Y-81619047D01*
X184152380Y-81523809D01*
X184152380Y-81333333D01*
X184104761Y-81238095D01*
X184057142Y-81190476D01*
X183961904Y-81142857D01*
X183152380Y-81142857D01*
X183152380Y-80761904D02*
X183152380Y-80142857D01*
X183533333Y-80476190D01*
X183533333Y-80333333D01*
X183580952Y-80238095D01*
X183628571Y-80190476D01*
X183723809Y-80142857D01*
X183961904Y-80142857D01*
X184057142Y-80190476D01*
X184104761Y-80238095D01*
X184152380Y-80333333D01*
X184152380Y-80619047D01*
X184104761Y-80714285D01*
X184057142Y-80761904D01*
X183152380Y-79523809D02*
X183152380Y-79428571D01*
X183200000Y-79333333D01*
X183247619Y-79285714D01*
X183342857Y-79238095D01*
X183533333Y-79190476D01*
X183771428Y-79190476D01*
X183961904Y-79238095D01*
X184057142Y-79285714D01*
X184104761Y-79333333D01*
X184152380Y-79428571D01*
X184152380Y-79523809D01*
X184104761Y-79619047D01*
X184057142Y-79666666D01*
X183961904Y-79714285D01*
X183771428Y-79761904D01*
X183533333Y-79761904D01*
X183342857Y-79714285D01*
X183247619Y-79666666D01*
X183200000Y-79619047D01*
X183152380Y-79523809D01*
X183247619Y-78809523D02*
X183200000Y-78761904D01*
X183152380Y-78666666D01*
X183152380Y-78428571D01*
X183200000Y-78333333D01*
X183247619Y-78285714D01*
X183342857Y-78238095D01*
X183438095Y-78238095D01*
X183580952Y-78285714D01*
X184152380Y-78857142D01*
X184152380Y-78238095D01*
X180013095Y-103127380D02*
X180679761Y-104127380D01*
X180679761Y-103127380D02*
X180013095Y-104127380D01*
X180965476Y-103127380D02*
X181584523Y-103127380D01*
X181251190Y-103508333D01*
X181394047Y-103508333D01*
X181489285Y-103555952D01*
X181536904Y-103603571D01*
X181584523Y-103698809D01*
X181584523Y-103936904D01*
X181536904Y-104032142D01*
X181489285Y-104079761D01*
X181394047Y-104127380D01*
X181108333Y-104127380D01*
X181013095Y-104079761D01*
X180965476Y-104032142D01*
X182203571Y-103127380D02*
X182298809Y-103127380D01*
X182394047Y-103175000D01*
X182441666Y-103222619D01*
X182489285Y-103317857D01*
X182536904Y-103508333D01*
X182536904Y-103746428D01*
X182489285Y-103936904D01*
X182441666Y-104032142D01*
X182394047Y-104079761D01*
X182298809Y-104127380D01*
X182203571Y-104127380D01*
X182108333Y-104079761D01*
X182060714Y-104032142D01*
X182013095Y-103936904D01*
X181965476Y-103746428D01*
X181965476Y-103508333D01*
X182013095Y-103317857D01*
X182060714Y-103222619D01*
X182108333Y-103175000D01*
X182203571Y-103127380D01*
X183489285Y-104127380D02*
X182917857Y-104127380D01*
X183203571Y-104127380D02*
X183203571Y-103127380D01*
X183108333Y-103270238D01*
X183013095Y-103365476D01*
X182917857Y-103413095D01*
X189480952Y-89452380D02*
X189147619Y-88976190D01*
X188909523Y-89452380D02*
X188909523Y-88452380D01*
X189290476Y-88452380D01*
X189385714Y-88500000D01*
X189433333Y-88547619D01*
X189480952Y-88642857D01*
X189480952Y-88785714D01*
X189433333Y-88880952D01*
X189385714Y-88928571D01*
X189290476Y-88976190D01*
X188909523Y-88976190D01*
X189814285Y-88452380D02*
X190433333Y-88452380D01*
X190100000Y-88833333D01*
X190242857Y-88833333D01*
X190338095Y-88880952D01*
X190385714Y-88928571D01*
X190433333Y-89023809D01*
X190433333Y-89261904D01*
X190385714Y-89357142D01*
X190338095Y-89404761D01*
X190242857Y-89452380D01*
X189957142Y-89452380D01*
X189861904Y-89404761D01*
X189814285Y-89357142D01*
X191052380Y-88452380D02*
X191147619Y-88452380D01*
X191242857Y-88500000D01*
X191290476Y-88547619D01*
X191338095Y-88642857D01*
X191385714Y-88833333D01*
X191385714Y-89071428D01*
X191338095Y-89261904D01*
X191290476Y-89357142D01*
X191242857Y-89404761D01*
X191147619Y-89452380D01*
X191052380Y-89452380D01*
X190957142Y-89404761D01*
X190909523Y-89357142D01*
X190861904Y-89261904D01*
X190814285Y-89071428D01*
X190814285Y-88833333D01*
X190861904Y-88642857D01*
X190909523Y-88547619D01*
X190957142Y-88500000D01*
X191052380Y-88452380D01*
X191719047Y-88452380D02*
X192385714Y-88452380D01*
X191957142Y-89452380D01*
X204914285Y-78552380D02*
X204914285Y-79266666D01*
X204866666Y-79409523D01*
X204771428Y-79504761D01*
X204628571Y-79552380D01*
X204533333Y-79552380D01*
X205295238Y-78552380D02*
X205914285Y-78552380D01*
X205580952Y-78933333D01*
X205723809Y-78933333D01*
X205819047Y-78980952D01*
X205866666Y-79028571D01*
X205914285Y-79123809D01*
X205914285Y-79361904D01*
X205866666Y-79457142D01*
X205819047Y-79504761D01*
X205723809Y-79552380D01*
X205438095Y-79552380D01*
X205342857Y-79504761D01*
X205295238Y-79457142D01*
X206533333Y-78552380D02*
X206628571Y-78552380D01*
X206723809Y-78600000D01*
X206771428Y-78647619D01*
X206819047Y-78742857D01*
X206866666Y-78933333D01*
X206866666Y-79171428D01*
X206819047Y-79361904D01*
X206771428Y-79457142D01*
X206723809Y-79504761D01*
X206628571Y-79552380D01*
X206533333Y-79552380D01*
X206438095Y-79504761D01*
X206390476Y-79457142D01*
X206342857Y-79361904D01*
X206295238Y-79171428D01*
X206295238Y-78933333D01*
X206342857Y-78742857D01*
X206390476Y-78647619D01*
X206438095Y-78600000D01*
X206533333Y-78552380D01*
X207247619Y-78647619D02*
X207295238Y-78600000D01*
X207390476Y-78552380D01*
X207628571Y-78552380D01*
X207723809Y-78600000D01*
X207771428Y-78647619D01*
X207819047Y-78742857D01*
X207819047Y-78838095D01*
X207771428Y-78980952D01*
X207200000Y-79552380D01*
X207819047Y-79552380D01*
X180485714Y-88052380D02*
X180485714Y-88861904D01*
X180533333Y-88957142D01*
X180580952Y-89004761D01*
X180676190Y-89052380D01*
X180866666Y-89052380D01*
X180961904Y-89004761D01*
X181009523Y-88957142D01*
X181057142Y-88861904D01*
X181057142Y-88052380D01*
X181438095Y-88052380D02*
X182057142Y-88052380D01*
X181723809Y-88433333D01*
X181866666Y-88433333D01*
X181961904Y-88480952D01*
X182009523Y-88528571D01*
X182057142Y-88623809D01*
X182057142Y-88861904D01*
X182009523Y-88957142D01*
X181961904Y-89004761D01*
X181866666Y-89052380D01*
X181580952Y-89052380D01*
X181485714Y-89004761D01*
X181438095Y-88957142D01*
X182676190Y-88052380D02*
X182771428Y-88052380D01*
X182866666Y-88100000D01*
X182914285Y-88147619D01*
X182961904Y-88242857D01*
X183009523Y-88433333D01*
X183009523Y-88671428D01*
X182961904Y-88861904D01*
X182914285Y-88957142D01*
X182866666Y-89004761D01*
X182771428Y-89052380D01*
X182676190Y-89052380D01*
X182580952Y-89004761D01*
X182533333Y-88957142D01*
X182485714Y-88861904D01*
X182438095Y-88671428D01*
X182438095Y-88433333D01*
X182485714Y-88242857D01*
X182533333Y-88147619D01*
X182580952Y-88100000D01*
X182676190Y-88052380D01*
X183580952Y-88480952D02*
X183485714Y-88433333D01*
X183438095Y-88385714D01*
X183390476Y-88290476D01*
X183390476Y-88242857D01*
X183438095Y-88147619D01*
X183485714Y-88100000D01*
X183580952Y-88052380D01*
X183771428Y-88052380D01*
X183866666Y-88100000D01*
X183914285Y-88147619D01*
X183961904Y-88242857D01*
X183961904Y-88290476D01*
X183914285Y-88385714D01*
X183866666Y-88433333D01*
X183771428Y-88480952D01*
X183580952Y-88480952D01*
X183485714Y-88528571D01*
X183438095Y-88576190D01*
X183390476Y-88671428D01*
X183390476Y-88861904D01*
X183438095Y-88957142D01*
X183485714Y-89004761D01*
X183580952Y-89052380D01*
X183771428Y-89052380D01*
X183866666Y-89004761D01*
X183914285Y-88957142D01*
X183961904Y-88861904D01*
X183961904Y-88671428D01*
X183914285Y-88576190D01*
X183866666Y-88528571D01*
X183771428Y-88480952D01*
X192378571Y-81042857D02*
X192378571Y-80709523D01*
X192902380Y-80566666D02*
X192902380Y-81042857D01*
X191902380Y-81042857D01*
X191902380Y-80566666D01*
X191902380Y-80233333D02*
X191902380Y-79614285D01*
X192283333Y-79947619D01*
X192283333Y-79804761D01*
X192330952Y-79709523D01*
X192378571Y-79661904D01*
X192473809Y-79614285D01*
X192711904Y-79614285D01*
X192807142Y-79661904D01*
X192854761Y-79709523D01*
X192902380Y-79804761D01*
X192902380Y-80090476D01*
X192854761Y-80185714D01*
X192807142Y-80233333D01*
X191902380Y-78995238D02*
X191902380Y-78900000D01*
X191950000Y-78804761D01*
X191997619Y-78757142D01*
X192092857Y-78709523D01*
X192283333Y-78661904D01*
X192521428Y-78661904D01*
X192711904Y-78709523D01*
X192807142Y-78757142D01*
X192854761Y-78804761D01*
X192902380Y-78900000D01*
X192902380Y-78995238D01*
X192854761Y-79090476D01*
X192807142Y-79138095D01*
X192711904Y-79185714D01*
X192521428Y-79233333D01*
X192283333Y-79233333D01*
X192092857Y-79185714D01*
X191997619Y-79138095D01*
X191950000Y-79090476D01*
X191902380Y-78995238D01*
X191997619Y-78280952D02*
X191950000Y-78233333D01*
X191902380Y-78138095D01*
X191902380Y-77900000D01*
X191950000Y-77804761D01*
X191997619Y-77757142D01*
X192092857Y-77709523D01*
X192188095Y-77709523D01*
X192330952Y-77757142D01*
X192902380Y-78328571D01*
X192902380Y-77709523D01*
X193557142Y-95578571D02*
X193890476Y-95578571D01*
X194033333Y-96102380D02*
X193557142Y-96102380D01*
X193557142Y-95102380D01*
X194033333Y-95102380D01*
X194366666Y-95102380D02*
X194985714Y-95102380D01*
X194652380Y-95483333D01*
X194795238Y-95483333D01*
X194890476Y-95530952D01*
X194938095Y-95578571D01*
X194985714Y-95673809D01*
X194985714Y-95911904D01*
X194938095Y-96007142D01*
X194890476Y-96054761D01*
X194795238Y-96102380D01*
X194509523Y-96102380D01*
X194414285Y-96054761D01*
X194366666Y-96007142D01*
X195604761Y-95102380D02*
X195700000Y-95102380D01*
X195795238Y-95150000D01*
X195842857Y-95197619D01*
X195890476Y-95292857D01*
X195938095Y-95483333D01*
X195938095Y-95721428D01*
X195890476Y-95911904D01*
X195842857Y-96007142D01*
X195795238Y-96054761D01*
X195700000Y-96102380D01*
X195604761Y-96102380D01*
X195509523Y-96054761D01*
X195461904Y-96007142D01*
X195414285Y-95911904D01*
X195366666Y-95721428D01*
X195366666Y-95483333D01*
X195414285Y-95292857D01*
X195461904Y-95197619D01*
X195509523Y-95150000D01*
X195604761Y-95102380D01*
X196795238Y-95435714D02*
X196795238Y-96102380D01*
X196557142Y-95054761D02*
X196319047Y-95769047D01*
X196938095Y-95769047D01*
X121880952Y-85557142D02*
X121833333Y-85604761D01*
X121690476Y-85652380D01*
X121595238Y-85652380D01*
X121452380Y-85604761D01*
X121357142Y-85509523D01*
X121309523Y-85414285D01*
X121261904Y-85223809D01*
X121261904Y-85080952D01*
X121309523Y-84890476D01*
X121357142Y-84795238D01*
X121452380Y-84700000D01*
X121595238Y-84652380D01*
X121690476Y-84652380D01*
X121833333Y-84700000D01*
X121880952Y-84747619D01*
X122261904Y-84747619D02*
X122309523Y-84700000D01*
X122404761Y-84652380D01*
X122642857Y-84652380D01*
X122738095Y-84700000D01*
X122785714Y-84747619D01*
X122833333Y-84842857D01*
X122833333Y-84938095D01*
X122785714Y-85080952D01*
X122214285Y-85652380D01*
X122833333Y-85652380D01*
X123452380Y-84652380D02*
X123547619Y-84652380D01*
X123642857Y-84700000D01*
X123690476Y-84747619D01*
X123738095Y-84842857D01*
X123785714Y-85033333D01*
X123785714Y-85271428D01*
X123738095Y-85461904D01*
X123690476Y-85557142D01*
X123642857Y-85604761D01*
X123547619Y-85652380D01*
X123452380Y-85652380D01*
X123357142Y-85604761D01*
X123309523Y-85557142D01*
X123261904Y-85461904D01*
X123214285Y-85271428D01*
X123214285Y-85033333D01*
X123261904Y-84842857D01*
X123309523Y-84747619D01*
X123357142Y-84700000D01*
X123452380Y-84652380D01*
X124119047Y-84652380D02*
X124738095Y-84652380D01*
X124404761Y-85033333D01*
X124547619Y-85033333D01*
X124642857Y-85080952D01*
X124690476Y-85128571D01*
X124738095Y-85223809D01*
X124738095Y-85461904D01*
X124690476Y-85557142D01*
X124642857Y-85604761D01*
X124547619Y-85652380D01*
X124261904Y-85652380D01*
X124166666Y-85604761D01*
X124119047Y-85557142D01*
X205114285Y-94552380D02*
X205114285Y-95266666D01*
X205066666Y-95409523D01*
X204971428Y-95504761D01*
X204828571Y-95552380D01*
X204733333Y-95552380D01*
X205495238Y-94552380D02*
X206114285Y-94552380D01*
X205780952Y-94933333D01*
X205923809Y-94933333D01*
X206019047Y-94980952D01*
X206066666Y-95028571D01*
X206114285Y-95123809D01*
X206114285Y-95361904D01*
X206066666Y-95457142D01*
X206019047Y-95504761D01*
X205923809Y-95552380D01*
X205638095Y-95552380D01*
X205542857Y-95504761D01*
X205495238Y-95457142D01*
X206733333Y-94552380D02*
X206828571Y-94552380D01*
X206923809Y-94600000D01*
X206971428Y-94647619D01*
X207019047Y-94742857D01*
X207066666Y-94933333D01*
X207066666Y-95171428D01*
X207019047Y-95361904D01*
X206971428Y-95457142D01*
X206923809Y-95504761D01*
X206828571Y-95552380D01*
X206733333Y-95552380D01*
X206638095Y-95504761D01*
X206590476Y-95457142D01*
X206542857Y-95361904D01*
X206495238Y-95171428D01*
X206495238Y-94933333D01*
X206542857Y-94742857D01*
X206590476Y-94647619D01*
X206638095Y-94600000D01*
X206733333Y-94552380D01*
X207400000Y-94552380D02*
X208019047Y-94552380D01*
X207685714Y-94933333D01*
X207828571Y-94933333D01*
X207923809Y-94980952D01*
X207971428Y-95028571D01*
X208019047Y-95123809D01*
X208019047Y-95361904D01*
X207971428Y-95457142D01*
X207923809Y-95504761D01*
X207828571Y-95552380D01*
X207542857Y-95552380D01*
X207447619Y-95504761D01*
X207400000Y-95457142D01*
X184127142Y-76719047D02*
X184174761Y-76766666D01*
X184222380Y-76909523D01*
X184222380Y-77004761D01*
X184174761Y-77147619D01*
X184079523Y-77242857D01*
X183984285Y-77290476D01*
X183793809Y-77338095D01*
X183650952Y-77338095D01*
X183460476Y-77290476D01*
X183365238Y-77242857D01*
X183270000Y-77147619D01*
X183222380Y-77004761D01*
X183222380Y-76909523D01*
X183270000Y-76766666D01*
X183317619Y-76719047D01*
X183222380Y-76385714D02*
X183222380Y-75766666D01*
X183603333Y-76100000D01*
X183603333Y-75957142D01*
X183650952Y-75861904D01*
X183698571Y-75814285D01*
X183793809Y-75766666D01*
X184031904Y-75766666D01*
X184127142Y-75814285D01*
X184174761Y-75861904D01*
X184222380Y-75957142D01*
X184222380Y-76242857D01*
X184174761Y-76338095D01*
X184127142Y-76385714D01*
X183222380Y-75147619D02*
X183222380Y-75052380D01*
X183270000Y-74957142D01*
X183317619Y-74909523D01*
X183412857Y-74861904D01*
X183603333Y-74814285D01*
X183841428Y-74814285D01*
X184031904Y-74861904D01*
X184127142Y-74909523D01*
X184174761Y-74957142D01*
X184222380Y-75052380D01*
X184222380Y-75147619D01*
X184174761Y-75242857D01*
X184127142Y-75290476D01*
X184031904Y-75338095D01*
X183841428Y-75385714D01*
X183603333Y-75385714D01*
X183412857Y-75338095D01*
X183317619Y-75290476D01*
X183270000Y-75242857D01*
X183222380Y-75147619D01*
X184222380Y-73861904D02*
X184222380Y-74433333D01*
X184222380Y-74147619D02*
X183222380Y-74147619D01*
X183365238Y-74242857D01*
X183460476Y-74338095D01*
X183508095Y-74433333D01*
D10*
X99461252Y-80490000D02*
X98938748Y-80490000D01*
X99461252Y-81910000D02*
X98938748Y-81910000D01*
X98741422Y-84290000D02*
X99258578Y-84290000D01*
X98741422Y-85710000D02*
X99258578Y-85710000D01*
D11*
X100600000Y-67300000D02*
X106350000Y-67300000D01*
X100600000Y-74700000D02*
X100600000Y-67300000D01*
X106350000Y-74700000D02*
X100600000Y-74700000D01*
X106350000Y-67300000D02*
X106350000Y-74700000D01*
X128700000Y-64400000D02*
X121300000Y-64400000D01*
X121300000Y-58650000D02*
X128700000Y-58650000D01*
X128700000Y-58650000D02*
X128700000Y-64400000D01*
X121300000Y-64400000D02*
X121300000Y-58650000D01*
X117700000Y-58650000D02*
X117700000Y-64400000D01*
X110300000Y-64400000D02*
X110300000Y-58650000D01*
X110300000Y-58650000D02*
X117700000Y-58650000D01*
X117700000Y-64400000D02*
X110300000Y-64400000D01*
X96400000Y-88200000D02*
X90650000Y-88200000D01*
X96400000Y-65800000D02*
X96400000Y-88200000D01*
X90650000Y-65800000D02*
X96400000Y-65800000D01*
X96400000Y-81900000D02*
X96400000Y-81950000D01*
X90650000Y-88200000D02*
X90650000Y-65800000D01*
X177200000Y-64400000D02*
X154800000Y-64400000D01*
X154800000Y-64400000D02*
X154800000Y-58650000D01*
X154800000Y-58650000D02*
X177200000Y-58650000D01*
X161100000Y-64400000D02*
X161050000Y-64400000D01*
X177200000Y-58650000D02*
X177200000Y-64400000D01*
X134300000Y-58650000D02*
X151700000Y-58650000D01*
X151700000Y-58650000D02*
X151700000Y-64400000D01*
X138100000Y-64400000D02*
X138050000Y-64400000D01*
X151700000Y-64400000D02*
X134300000Y-64400000D01*
X134300000Y-64400000D02*
X134300000Y-58650000D01*
X175450000Y-81400000D02*
X158050000Y-81400000D01*
X158050000Y-75650000D02*
X175450000Y-75650000D01*
X158050000Y-81400000D02*
X158050000Y-75650000D01*
X175450000Y-75650000D02*
X175450000Y-81400000D01*
X161850000Y-81400000D02*
X161800000Y-81400000D01*
D10*
X158710000Y-67261252D02*
X158710000Y-66738748D01*
X157290000Y-67261252D02*
X157290000Y-66738748D01*
X159290000Y-67261252D02*
X159290000Y-66738748D01*
X160710000Y-67261252D02*
X160710000Y-66738748D01*
X162710000Y-67261252D02*
X162710000Y-66738748D01*
X161290000Y-67261252D02*
X161290000Y-66738748D01*
X164710000Y-67261252D02*
X164710000Y-66738748D01*
X163290000Y-67261252D02*
X163290000Y-66738748D01*
D11*
X151340000Y-89840000D02*
X150070000Y-88570000D01*
X151340000Y-105080000D02*
X98000000Y-105080000D01*
X98000000Y-88570000D02*
X98000000Y-111430000D01*
X98000000Y-110160000D02*
X151340000Y-110160000D01*
X151340000Y-88570000D02*
X98000000Y-88570000D01*
X151340000Y-94920000D02*
X98000000Y-94920000D01*
X98000000Y-111430000D02*
X151340000Y-111430000D01*
X98000000Y-89840000D02*
X151340000Y-89840000D01*
X151340000Y-111430000D02*
X151340000Y-88570000D01*
D10*
X151352500Y-75182000D02*
X151352500Y-86903000D01*
X151352500Y-75182000D02*
X142732500Y-75182000D01*
X151352500Y-86903000D02*
X142732500Y-86903000D01*
X143732500Y-74942000D02*
X142492500Y-74942000D01*
X142492500Y-74942000D02*
X142492500Y-76182000D01*
X142732500Y-75182000D02*
X142732500Y-86903000D01*
X154000000Y-82440000D02*
X153350000Y-82440000D01*
X154000000Y-85560000D02*
X155675000Y-85560000D01*
X154000000Y-85560000D02*
X153350000Y-85560000D01*
X154000000Y-82440000D02*
X154650000Y-82440000D01*
X141735000Y-85738748D02*
X141735000Y-86261252D01*
X140265000Y-85738748D02*
X140265000Y-86261252D01*
X158065000Y-83938748D02*
X158065000Y-84461252D01*
X159535000Y-83938748D02*
X159535000Y-84461252D01*
X179799622Y-97840000D02*
X179000378Y-97840000D01*
X179799622Y-98960000D02*
X179000378Y-98960000D01*
X184391233Y-83710000D02*
X184683767Y-83710000D01*
X184391233Y-82690000D02*
X184683767Y-82690000D01*
X187735000Y-92027064D02*
X187735000Y-91572936D01*
X186265000Y-92027064D02*
X186265000Y-91572936D01*
X184053733Y-73110000D02*
X184346267Y-73110000D01*
X184053733Y-72090000D02*
X184346267Y-72090000D01*
X182360000Y-75400378D02*
X182360000Y-76199622D01*
X181240000Y-75400378D02*
X181240000Y-76199622D01*
X192600378Y-111440000D02*
X193399622Y-111440000D01*
X192600378Y-112560000D02*
X193399622Y-112560000D01*
X193490000Y-75253733D02*
X193490000Y-75546267D01*
X194510000Y-75253733D02*
X194510000Y-75546267D01*
X198360000Y-88200000D02*
X198360000Y-86525000D01*
X195240000Y-88200000D02*
X195240000Y-88850000D01*
X195240000Y-88200000D02*
X195240000Y-87550000D01*
X198360000Y-88200000D02*
X198360000Y-88850000D01*
X182465000Y-92027064D02*
X182465000Y-91572936D01*
X183935000Y-92027064D02*
X183935000Y-91572936D01*
X114265000Y-124000000D02*
X114265000Y-121800000D01*
X114265000Y-124000000D02*
X114265000Y-127600000D01*
X119735000Y-124000000D02*
X119735000Y-126200000D01*
X119735000Y-124000000D02*
X119735000Y-121800000D01*
D13*
X113987500Y-127000000D02*
G75*
G03*
X113987500Y-127000000I-87500J0D01*
G01*
D10*
X195061252Y-85535000D02*
X194538748Y-85535000D01*
X195061252Y-84065000D02*
X194538748Y-84065000D01*
X128265000Y-122427064D02*
X128265000Y-121972936D01*
X129735000Y-122427064D02*
X129735000Y-121972936D01*
X203577500Y-68750000D02*
X203577500Y-69250000D01*
X208337500Y-68160000D02*
X208337500Y-67050000D01*
X204627500Y-70950000D02*
X204627500Y-69840000D01*
X204077500Y-69000000D02*
X203577500Y-68750000D01*
X203577500Y-69250000D02*
X204077500Y-69000000D01*
X208337500Y-70950000D02*
X208337500Y-69840000D01*
X204627500Y-68160000D02*
X204627500Y-67050000D01*
X188627064Y-74065000D02*
X188172936Y-74065000D01*
X188627064Y-75535000D02*
X188172936Y-75535000D01*
X199365000Y-90738748D02*
X199365000Y-91261252D01*
X200835000Y-90738748D02*
X200835000Y-91261252D01*
X191572936Y-103665000D02*
X192027064Y-103665000D01*
X191572936Y-105135000D02*
X192027064Y-105135000D01*
X196760000Y-92600000D02*
X196760000Y-90800000D01*
X193640000Y-92600000D02*
X193640000Y-93400000D01*
X193640000Y-92600000D02*
X193640000Y-91800000D01*
X196760000Y-92600000D02*
X196760000Y-93400000D01*
X171265000Y-104738748D02*
X171265000Y-105261252D01*
X172735000Y-104738748D02*
X172735000Y-105261252D01*
X191772936Y-101535000D02*
X192227064Y-101535000D01*
X191772936Y-100065000D02*
X192227064Y-100065000D01*
X116265000Y-115772936D02*
X116265000Y-116227064D01*
X117735000Y-115772936D02*
X117735000Y-116227064D01*
X191146267Y-113490000D02*
X190853733Y-113490000D01*
X191146267Y-114510000D02*
X190853733Y-114510000D01*
X108265000Y-115772936D02*
X108265000Y-116227064D01*
X109735000Y-115772936D02*
X109735000Y-116227064D01*
X122627064Y-124935000D02*
X122172936Y-124935000D01*
X122627064Y-123465000D02*
X122172936Y-123465000D01*
X171738748Y-98735000D02*
X172261252Y-98735000D01*
X171738748Y-97265000D02*
X172261252Y-97265000D01*
D14*
X112911000Y-114476000D02*
X114689000Y-114476000D01*
X112911000Y-117524000D02*
X112911000Y-114476000D01*
X114689000Y-114476000D02*
X114689000Y-117524000D01*
X114689000Y-117524000D02*
X112911000Y-117524000D01*
D10*
X190572936Y-71465000D02*
X191027064Y-71465000D01*
X190572936Y-72935000D02*
X191027064Y-72935000D01*
X192710000Y-96546267D02*
X192710000Y-96253733D01*
X191690000Y-96546267D02*
X191690000Y-96253733D01*
X106265000Y-115772936D02*
X106265000Y-116227064D01*
X107735000Y-115772936D02*
X107735000Y-116227064D01*
X199335000Y-123376248D02*
X199335000Y-123898752D01*
X197865000Y-123376248D02*
X197865000Y-123898752D01*
X194146267Y-82290000D02*
X193853733Y-82290000D01*
X194146267Y-83310000D02*
X193853733Y-83310000D01*
X197738748Y-117135000D02*
X198261252Y-117135000D01*
X197738748Y-115665000D02*
X198261252Y-115665000D01*
X193253733Y-109510000D02*
X193546267Y-109510000D01*
X193253733Y-108490000D02*
X193546267Y-108490000D01*
X199253733Y-96690000D02*
X199546267Y-96690000D01*
X199253733Y-97710000D02*
X199546267Y-97710000D01*
X199560000Y-119400000D02*
X199560000Y-117725000D01*
X196440000Y-119400000D02*
X196440000Y-120050000D01*
X199560000Y-119400000D02*
X199560000Y-120050000D01*
X196440000Y-119400000D02*
X196440000Y-118750000D01*
X121735000Y-115772936D02*
X121735000Y-116227064D01*
X120265000Y-115772936D02*
X120265000Y-116227064D01*
X122627064Y-122335000D02*
X122172936Y-122335000D01*
X122627064Y-120865000D02*
X122172936Y-120865000D01*
X179546267Y-100890000D02*
X179253733Y-100890000D01*
X179546267Y-101910000D02*
X179253733Y-101910000D01*
X111546267Y-113710000D02*
X111253733Y-113710000D01*
X111546267Y-112690000D02*
X111253733Y-112690000D01*
X122627064Y-127335000D02*
X122172936Y-127335000D01*
X122627064Y-125865000D02*
X122172936Y-125865000D01*
X173560000Y-101000000D02*
X173560000Y-99325000D01*
X170440000Y-101000000D02*
X170440000Y-101650000D01*
X173560000Y-101000000D02*
X173560000Y-101650000D01*
X170440000Y-101000000D02*
X170440000Y-100350000D01*
X182465000Y-96938748D02*
X182465000Y-97461252D01*
X183935000Y-96938748D02*
X183935000Y-97461252D01*
X180535000Y-92061252D02*
X180535000Y-91538748D01*
X179065000Y-92061252D02*
X179065000Y-91538748D01*
X180000378Y-83760000D02*
X180799622Y-83760000D01*
X180000378Y-82640000D02*
X180799622Y-82640000D01*
X196172936Y-103665000D02*
X196627064Y-103665000D01*
X196172936Y-105135000D02*
X196627064Y-105135000D01*
X103740000Y-76804437D02*
X103740000Y-79490000D01*
X104804437Y-86260000D02*
X114260000Y-86260000D01*
X114260000Y-86260000D02*
X114260000Y-82510000D01*
X102875000Y-77615000D02*
X102875000Y-78865000D01*
X103740000Y-76804437D02*
X104804437Y-75740000D01*
X114260000Y-75740000D02*
X114260000Y-79490000D01*
X103740000Y-85195563D02*
X103740000Y-82510000D01*
X103740000Y-85195563D02*
X104804437Y-86260000D01*
X104804437Y-75740000D02*
X114260000Y-75740000D01*
X102250000Y-78240000D02*
X103500000Y-78240000D01*
X208337500Y-115160000D02*
X208337500Y-114050000D01*
X204627500Y-115160000D02*
X204627500Y-114050000D01*
X203577500Y-116250000D02*
X204077500Y-116000000D01*
X204077500Y-116000000D02*
X203577500Y-115750000D01*
X203577500Y-115750000D02*
X203577500Y-116250000D01*
X204627500Y-117950000D02*
X204627500Y-116840000D01*
X208337500Y-117950000D02*
X208337500Y-116840000D01*
X194972936Y-71465000D02*
X195427064Y-71465000D01*
X194972936Y-72935000D02*
X195427064Y-72935000D01*
D11*
X186800000Y-58725000D02*
X186800000Y-64475000D01*
X179400000Y-58725000D02*
X186800000Y-58725000D01*
X179400000Y-64475000D02*
X179400000Y-58725000D01*
X186800000Y-64475000D02*
X179400000Y-64475000D01*
D10*
X112146267Y-121510000D02*
X111853733Y-121510000D01*
X112146267Y-120490000D02*
X111853733Y-120490000D01*
X184640000Y-80000000D02*
X184640000Y-81800000D01*
X184640000Y-80000000D02*
X184640000Y-79200000D01*
X187760000Y-80000000D02*
X187760000Y-80800000D01*
X187760000Y-80000000D02*
X187760000Y-79200000D01*
X179225000Y-108725000D02*
X184325000Y-108725000D01*
X179225000Y-104475000D02*
X179225000Y-108725000D01*
X189927064Y-87735000D02*
X189472936Y-87735000D01*
X189927064Y-86265000D02*
X189472936Y-86265000D01*
X204627500Y-83160000D02*
X204627500Y-82050000D01*
X208337500Y-83160000D02*
X208337500Y-82050000D01*
X208337500Y-85950000D02*
X208337500Y-84840000D01*
X204077500Y-84000000D02*
X203577500Y-83750000D01*
X203577500Y-83750000D02*
X203577500Y-84250000D01*
X203577500Y-84250000D02*
X204077500Y-84000000D01*
X204627500Y-85950000D02*
X204627500Y-84840000D01*
X182200000Y-84440000D02*
X180400000Y-84440000D01*
X182200000Y-84440000D02*
X183000000Y-84440000D01*
X182200000Y-87560000D02*
X181400000Y-87560000D01*
X182200000Y-87560000D02*
X183000000Y-87560000D01*
X193440000Y-79799622D02*
X193440000Y-79000378D01*
X194560000Y-79799622D02*
X194560000Y-79000378D01*
X194800378Y-96640000D02*
X195599622Y-96640000D01*
X194800378Y-97760000D02*
X195599622Y-97760000D01*
X129750000Y-81760000D02*
X128500000Y-81760000D01*
X128260000Y-83195563D02*
X127195563Y-84260000D01*
X127195563Y-73740000D02*
X117740000Y-73740000D01*
X117740000Y-73740000D02*
X117740000Y-77490000D01*
X128260000Y-74804437D02*
X127195563Y-73740000D01*
X128260000Y-83195563D02*
X128260000Y-80510000D01*
X129125000Y-82385000D02*
X129125000Y-81135000D01*
X128260000Y-74804437D02*
X128260000Y-77490000D01*
X117740000Y-84260000D02*
X117740000Y-80510000D01*
X127195563Y-84260000D02*
X117740000Y-84260000D01*
X208337500Y-101950000D02*
X208337500Y-100840000D01*
X204627500Y-101950000D02*
X204627500Y-100840000D01*
X203577500Y-99750000D02*
X203577500Y-100250000D01*
X203577500Y-100250000D02*
X204077500Y-100000000D01*
X208337500Y-99160000D02*
X208337500Y-98050000D01*
X204077500Y-100000000D02*
X203577500Y-99750000D01*
X204627500Y-99160000D02*
X204627500Y-98050000D01*
X185710000Y-75746267D02*
X185710000Y-75453733D01*
X184690000Y-75746267D02*
X184690000Y-75453733D01*
D15*
X104000000Y-69750000D03*
D16*
X104000000Y-72250000D03*
D17*
X123750000Y-61000000D03*
D18*
X126250000Y-61000000D03*
D17*
X112750000Y-61000000D03*
D18*
X115250000Y-61000000D03*
D15*
X93000000Y-85750000D03*
D16*
X93000000Y-83250000D03*
X93000000Y-80750000D03*
X93000000Y-78250000D03*
X93000000Y-75750000D03*
X93000000Y-73250000D03*
X93000000Y-70750000D03*
X93000000Y-68250000D03*
D17*
X157250000Y-61000000D03*
D18*
X159750000Y-61000000D03*
X162250000Y-61000000D03*
X164750000Y-61000000D03*
X167250000Y-61000000D03*
X169750000Y-61000000D03*
X172250000Y-61000000D03*
X174750000Y-61000000D03*
D17*
X136750000Y-61000000D03*
D18*
X139250000Y-61000000D03*
X141750000Y-61000000D03*
X144250000Y-61000000D03*
X146750000Y-61000000D03*
X149250000Y-61000000D03*
D17*
X160500000Y-78000000D03*
D18*
X163000000Y-78000000D03*
X165500000Y-78000000D03*
X168000000Y-78000000D03*
X170500000Y-78000000D03*
X173000000Y-78000000D03*
D17*
X181850000Y-61075000D03*
D18*
X184350000Y-61075000D03*
%LPC*%
D19*
X100225000Y-81200000D03*
X98175000Y-81200000D03*
D20*
X98062500Y-85000000D03*
X99937500Y-85000000D03*
D15*
X104000000Y-69750000D03*
D16*
X104000000Y-72250000D03*
D17*
X123750000Y-61000000D03*
D18*
X126250000Y-61000000D03*
D17*
X112750000Y-61000000D03*
D18*
X115250000Y-61000000D03*
D15*
X93000000Y-85750000D03*
D16*
X93000000Y-83250000D03*
X93000000Y-80750000D03*
X93000000Y-78250000D03*
X93000000Y-75750000D03*
X93000000Y-73250000D03*
X93000000Y-70750000D03*
X93000000Y-68250000D03*
D17*
X157250000Y-61000000D03*
D18*
X159750000Y-61000000D03*
X162250000Y-61000000D03*
X164750000Y-61000000D03*
X167250000Y-61000000D03*
X169750000Y-61000000D03*
X172250000Y-61000000D03*
X174750000Y-61000000D03*
D17*
X136750000Y-61000000D03*
D18*
X139250000Y-61000000D03*
X141750000Y-61000000D03*
X144250000Y-61000000D03*
X146750000Y-61000000D03*
X149250000Y-61000000D03*
D17*
X160500000Y-78000000D03*
D18*
X163000000Y-78000000D03*
X165500000Y-78000000D03*
X168000000Y-78000000D03*
X170500000Y-78000000D03*
X173000000Y-78000000D03*
D21*
X138750000Y-79000000D03*
X133250000Y-79000000D03*
D22*
X95000000Y-60000000D03*
D23*
X96697056Y-58302944D03*
X92600000Y-60000000D03*
X97400000Y-60000000D03*
X93302944Y-61697056D03*
X93302944Y-58302944D03*
X96697056Y-61697056D03*
X95000000Y-62400000D03*
X95000000Y-57600000D03*
X206697056Y-61697056D03*
X203302944Y-61697056D03*
X203302944Y-58302944D03*
X205000000Y-57600000D03*
X207400000Y-60000000D03*
X202600000Y-60000000D03*
D22*
X205000000Y-60000000D03*
D23*
X206697056Y-58302944D03*
X205000000Y-62400000D03*
X207400000Y-125000000D03*
X203302944Y-123302944D03*
X203302944Y-126697056D03*
D22*
X205000000Y-125000000D03*
D23*
X205000000Y-122600000D03*
X205000000Y-127400000D03*
X206697056Y-126697056D03*
X206697056Y-123302944D03*
X202600000Y-125000000D03*
D22*
X95000000Y-125000000D03*
D23*
X95000000Y-127400000D03*
X96697056Y-126697056D03*
X92600000Y-125000000D03*
X93302944Y-123302944D03*
X93302944Y-126697056D03*
X97400000Y-125000000D03*
X96697056Y-123302944D03*
X95000000Y-122600000D03*
D24*
X158000000Y-68025000D03*
X158000000Y-65975000D03*
X160000000Y-68025000D03*
X160000000Y-65975000D03*
X162000000Y-68025000D03*
X162000000Y-65975000D03*
X164000000Y-68025000D03*
X164000000Y-65975000D03*
D25*
X148800000Y-92380000D03*
D26*
X146260000Y-92380000D03*
X143720000Y-92380000D03*
X141180000Y-92380000D03*
X138640000Y-92380000D03*
X136100000Y-92380000D03*
X133560000Y-92380000D03*
X131020000Y-92380000D03*
X128480000Y-92380000D03*
X125940000Y-92380000D03*
X123400000Y-92380000D03*
X120860000Y-92380000D03*
X118320000Y-92380000D03*
X115780000Y-92380000D03*
X113240000Y-92380000D03*
X110700000Y-92380000D03*
X108160000Y-92380000D03*
X105620000Y-92380000D03*
X103080000Y-92380000D03*
X100540000Y-92380000D03*
X100540000Y-107620000D03*
X103080000Y-107620000D03*
X105620000Y-107620000D03*
X108160000Y-107620000D03*
X110700000Y-107620000D03*
X113240000Y-107620000D03*
X115780000Y-107620000D03*
X118320000Y-107620000D03*
X120860000Y-107620000D03*
X123400000Y-107620000D03*
X125940000Y-107620000D03*
X128480000Y-107620000D03*
X131020000Y-107620000D03*
X133560000Y-107620000D03*
X136100000Y-107620000D03*
X138640000Y-107620000D03*
X141180000Y-107620000D03*
X143720000Y-107620000D03*
X146260000Y-107620000D03*
X148800000Y-107620000D03*
D27*
X144792500Y-78553000D03*
D28*
X144792500Y-81093000D03*
X144792500Y-83633000D03*
D29*
X154937500Y-84950000D03*
X154937500Y-83050000D03*
X153062500Y-84000000D03*
D30*
X141000000Y-84962500D03*
X141000000Y-87037500D03*
X158800000Y-83162500D03*
X158800000Y-85237500D03*
D31*
X180462500Y-98400000D03*
X178337500Y-98400000D03*
D32*
X183675000Y-83200000D03*
X185400000Y-83200000D03*
D33*
X187000000Y-92800000D03*
X187000000Y-90800000D03*
D32*
X183337500Y-72600000D03*
X185062500Y-72600000D03*
D34*
X181800000Y-74737500D03*
X181800000Y-76862500D03*
D35*
X191937500Y-112000000D03*
X194062500Y-112000000D03*
D36*
X194000000Y-74537500D03*
X194000000Y-76262500D03*
D37*
X197750000Y-87262500D03*
X195850000Y-87262500D03*
X196800000Y-89137500D03*
D33*
X183200000Y-92800000D03*
X183200000Y-90800000D03*
D38*
X114725000Y-126862500D03*
X115375000Y-126862500D03*
X116025000Y-126862500D03*
X116675000Y-126862500D03*
X117325000Y-126862500D03*
X117975000Y-126862500D03*
X118625000Y-126862500D03*
X119275000Y-126862500D03*
X119275000Y-121137500D03*
X118625000Y-121137500D03*
X117975000Y-121137500D03*
X117325000Y-121137500D03*
X116675000Y-121137500D03*
X116025000Y-121137500D03*
X115375000Y-121137500D03*
X114725000Y-121137500D03*
D39*
X195837500Y-84800000D03*
X193762500Y-84800000D03*
D33*
X129000000Y-123200000D03*
X129000000Y-121200000D03*
D40*
X206337500Y-71550000D03*
D41*
X206537500Y-69000000D03*
D40*
X206337500Y-66450000D03*
D42*
X189400000Y-74800000D03*
X187400000Y-74800000D03*
D30*
X200100000Y-89962500D03*
X200100000Y-92037500D03*
D43*
X190800000Y-104400000D03*
X192800000Y-104400000D03*
D44*
X196150000Y-91462500D03*
X195200000Y-91462500D03*
X194250000Y-91462500D03*
X194250000Y-93737500D03*
X196150000Y-93737500D03*
D30*
X172000000Y-103962500D03*
X172000000Y-106037500D03*
D43*
X191000000Y-100800000D03*
X193000000Y-100800000D03*
D45*
X117000000Y-115000000D03*
X117000000Y-117000000D03*
D46*
X191862500Y-114000000D03*
X190137500Y-114000000D03*
D45*
X109000000Y-115000000D03*
X109000000Y-117000000D03*
D42*
X123400000Y-124200000D03*
X121400000Y-124200000D03*
D47*
X170962500Y-98000000D03*
X173037500Y-98000000D03*
D48*
X115000000Y-116950000D03*
X115000000Y-116000000D03*
X115000000Y-115050000D03*
X112600000Y-115050000D03*
X112600000Y-116950000D03*
D43*
X189800000Y-72200000D03*
X191800000Y-72200000D03*
D49*
X192200000Y-97262500D03*
X192200000Y-95537500D03*
D45*
X107000000Y-115000000D03*
X107000000Y-117000000D03*
D30*
X198600000Y-122600000D03*
X198600000Y-124675000D03*
D46*
X194862500Y-82800000D03*
X193137500Y-82800000D03*
D47*
X196962500Y-116400000D03*
X199037500Y-116400000D03*
D32*
X192537500Y-109000000D03*
X194262500Y-109000000D03*
X198537500Y-97200000D03*
X200262500Y-97200000D03*
D37*
X198950000Y-118462500D03*
X197050000Y-118462500D03*
X198000000Y-120337500D03*
D45*
X121000000Y-115000000D03*
X121000000Y-117000000D03*
D42*
X123400000Y-121600000D03*
X121400000Y-121600000D03*
D46*
X180262500Y-101400000D03*
X178537500Y-101400000D03*
X112262500Y-113200000D03*
X110537500Y-113200000D03*
D42*
X123400000Y-126600000D03*
X121400000Y-126600000D03*
D37*
X172950000Y-100062500D03*
X171050000Y-100062500D03*
X172000000Y-101937500D03*
D30*
X183200000Y-96162500D03*
X183200000Y-98237500D03*
D50*
X179800000Y-92837500D03*
X179800000Y-90762500D03*
D35*
X179337500Y-83200000D03*
X181462500Y-83200000D03*
D43*
X195400000Y-104400000D03*
X197400000Y-104400000D03*
D51*
X105000000Y-81000000D03*
X113000000Y-81000000D03*
D40*
X206337500Y-118550000D03*
D41*
X206537500Y-116000000D03*
D40*
X206337500Y-113450000D03*
D43*
X194200000Y-72200000D03*
X196200000Y-72200000D03*
D17*
X181850000Y-61075000D03*
D18*
X184350000Y-61075000D03*
D46*
X112862500Y-121000000D03*
X111137500Y-121000000D03*
D52*
X185250000Y-81137500D03*
X186200000Y-81137500D03*
X187150000Y-81137500D03*
X187150000Y-78862500D03*
X185250000Y-78862500D03*
D53*
X180400000Y-107700000D03*
X183150000Y-107700000D03*
X183150000Y-105500000D03*
X180400000Y-105500000D03*
D42*
X190700000Y-87000000D03*
X188700000Y-87000000D03*
D40*
X206337500Y-86550000D03*
D41*
X206537500Y-84000000D03*
D40*
X206337500Y-81450000D03*
D54*
X181062500Y-85050000D03*
X181062500Y-86000000D03*
X181062500Y-86950000D03*
X183337500Y-86950000D03*
X183337500Y-85050000D03*
D55*
X194000000Y-80462500D03*
X194000000Y-78337500D03*
D35*
X194137500Y-97200000D03*
X196262500Y-97200000D03*
D56*
X127000000Y-79000000D03*
X119000000Y-79000000D03*
D40*
X206337500Y-102550000D03*
D41*
X206537500Y-100000000D03*
D40*
X206337500Y-97450000D03*
D49*
X185200000Y-76462500D03*
X185200000Y-74737500D03*
D25*
X134240000Y-125000000D03*
D26*
X136780000Y-125000000D03*
X139320000Y-125000000D03*
X141860000Y-125000000D03*
X144400000Y-125000000D03*
X146940000Y-125000000D03*
X149480000Y-125000000D03*
X152020000Y-125000000D03*
X154560000Y-125000000D03*
X157100000Y-125000000D03*
X159640000Y-125000000D03*
X162180000Y-125000000D03*
X164720000Y-125000000D03*
X167260000Y-125000000D03*
X169800000Y-125000000D03*
X172340000Y-125000000D03*
X174880000Y-125000000D03*
X177420000Y-125000000D03*
X179960000Y-125000000D03*
X182500000Y-125000000D03*
D57*
X106000000Y-125000000D03*
X194000000Y-60000000D03*
X106000000Y-60000000D03*
X194000000Y-125000000D03*
M02*
